<svg version="1.1" xmlns="http://www.w3.org/2000/svg" xmlns:xlink="http://www.w3.org/1999/xlink" width="507" height="384" viewBox="0,0,507,384"><g transform="translate(9.25,10)"><g stroke-miterlimit="10"><path d="M-9.25,374v-384h507v384z" fill="#1c4096" stroke="none" stroke-width="0"/><g><path d="M312.07226,266.46023v-188.375h172.92774v188.375z" fill="#f1f1f1" stroke="#9c9c9c" stroke-width="4"/><path d="M316.16357,125.50189v-5.625h165.24024v5.625z" fill="#9c9c9c" stroke="none" stroke-width="0"/><path d="M445.9375,266.25189v-146.375h5.59619v146.375z" fill="#9c9c9c" stroke="#000000" stroke-width="0"/><path d="M479.40381,266.25189v-146.375h5.59619v146.375z" fill="#9c9c9c" stroke="#000000" stroke-width="0"/><path d="M479.40381,266.25189v-146.375h5.59619v146.375z" fill="#9c9c9c" stroke="#000000" stroke-width="0"/><path d="M412.47119,266.25189v-146.375h5.59619v146.375z" fill="#9c9c9c" stroke="#000000" stroke-width="0"/><path d="M379.00488,266.25189v-146.375h5.59619v146.375z" fill="#9c9c9c" stroke="#000000" stroke-width="0"/><path d="M345.53857,266.25189v-146.375h5.59619v146.375z" fill="#9c9c9c" stroke="#000000" stroke-width="0"/><path d="M312.07226,266.25189v-146.375h5.59619v146.375z" fill="#9c9c9c" stroke="#000000" stroke-width="0"/><path d="M315.42591,159.66856v-5.625h166.03833v5.625z" fill="#9c9c9c" stroke="none" stroke-width="0"/><path d="M316.91601,193.27273v-5.625h163.24024v5.625z" fill="#9c9c9c" stroke="none" stroke-width="0"/><path d="M316.91601,227.43939v-5.625h163.24024v5.625z" fill="#9c9c9c" stroke="none" stroke-width="0"/><path d="M316.16357,266.25189v-5.625h166.03833v5.625z" fill="#9c9c9c" stroke="none" stroke-width="0"/><text transform="translate(332.45109,107.46172) scale(0.59631,0.59631)" font-size="40" xml:space="preserve" fill="#9c9c9c" stroke="none" stroke-width="1" font-family="&quot;Comic Sans MS&quot;, Sans Serif" font-weight="normal" text-anchor="start"><tspan x="0" dy="0">NOVEMBER</tspan></text><path d="M317.43775,137.71196c-0.06137,0 -0.11967,-0.00388 -0.17503,-0.01126c-1.426,4.55559 1.10674,9.96285 4.76224,11.96806c2.77586,1.52269 6.03696,1.40737 8.98636,1.54888c4.50301,-0.52864 8.36821,-0.98094 12.37627,-3.82417c0.58831,-0.41734 1.34514,-0.56008 1.7858,-1.20426c1.46396,-2.14009 0.99168,-7.59319 0.22095,-9.90351c-2.73407,-8.19554 -10.50187,-11.94849 -17.11363,-10.55173c-2.78103,0.96475 -5.38565,1.76555 -7.86598,3.68753c-0.37899,0.29368 -1.20881,0.83702 -1.46138,1.48503c3.90083,-2.86372 9.30673,-2.61528 13.55166,-2.85818c0,0 1.22018,-0.06982 1.27565,1.46624c0.05547,1.53606 -1.16473,1.60588 -1.16473,1.60588c-4.32407,0.24743 -10.56897,-0.32604 -13.92073,3.8822c-0.01207,0.01515 -0.02407,0.03031 -0.036,0.04551v1.12614c0,0 0,1.53764 -1.22145,1.53764zM316.21497,133.90495c-0.00992,-1.51234 -0.0469,-2.68296 0.50895,-4.25259c1.6164,-4.56443 7.70768,-5.77467 11.0316,-6.92177c8.95995,-1.86861 21.41139,5.2451 20.59246,18.60226c-0.1336,2.1791 -0.10541,4.97377 -1.29507,6.82086c-0.60088,0.93293 -1.6158,1.27808 -2.434,1.89585c-4.27334,3.22654 -8.69576,3.68625 -13.54053,4.24222c-3.33722,-0.15136 -6.95108,-0.09343 -10.08483,-1.83526c-5.64832,-3.1395 -8.70811,-12.1813 -4.77857,-18.55156z" fill="#ff0000" stroke="none" stroke-width="0.5"/><text transform="translate(325.22661,145.38384) scale(0.5,0.5)" font-size="40" xml:space="preserve" fill="#000000" stroke="none" stroke-width="1" font-family="Sans Serif" font-weight="normal" text-anchor="start"><tspan x="0" dy="0">1</tspan></text></g><g><path d="M105.52098,253.91288v-188.375h172.92774v188.375z" fill="#f1f1f1" stroke="#9c9c9c" stroke-width="4"/><path d="M109.27896,114.62121v-5.625h165.24024v5.625z" fill="#9c9c9c" stroke="none" stroke-width="0"/><path d="M239.05289,255.37121v-146.375h5.59619v146.375z" fill="#9c9c9c" stroke="#000000" stroke-width="0"/><path d="M272.5192,255.37121v-146.375h5.59619v146.375z" fill="#9c9c9c" stroke="#000000" stroke-width="0"/><path d="M272.5192,255.37121v-146.375h5.59619v146.375z" fill="#9c9c9c" stroke="#000000" stroke-width="0"/><path d="M205.58658,255.37121v-146.375h5.59619v146.375z" fill="#9c9c9c" stroke="#000000" stroke-width="0"/><path d="M172.12027,255.37121v-146.375h5.59619v146.375z" fill="#9c9c9c" stroke="#000000" stroke-width="0"/><path d="M138.65396,255.37121v-146.375h5.59619v146.375z" fill="#9c9c9c" stroke="#000000" stroke-width="0"/><path d="M105.18765,255.37121v-146.375h5.59619v146.375z" fill="#9c9c9c" stroke="#000000" stroke-width="0"/><path d="M108.5413,148.78788v-5.625h166.03834v5.625z" fill="#9c9c9c" stroke="none" stroke-width="0"/><path d="M110.0314,182.39205v-5.625h163.24024v5.625z" fill="#9c9c9c" stroke="none" stroke-width="0"/><path d="M110.0314,216.55871v-5.625h163.24024v5.625z" fill="#9c9c9c" stroke="none" stroke-width="0"/><path d="M109.27896,255.37121v-5.625h166.03834v5.625z" fill="#9c9c9c" stroke="none" stroke-width="0"/><text transform="translate(137.05355,95.09778) scale(0.59631,0.59631)" font-size="40" xml:space="preserve" fill="#9c9c9c" stroke="none" stroke-width="1" font-family="&quot;Comic Sans MS&quot;, Sans Serif" font-weight="normal" text-anchor="start"><tspan x="0" dy="0">OCTOBER</tspan></text><path d="M112.65815,137.75829c-0.64286,-1.28514 0.64287,-1.92771 0.64287,-1.92771l0.19639,-0.0904c3.27721,-2.06249 6.61424,-4.14899 9.67777,-6.53902c-1.21128,-1.72448 -2.37339,-3.47609 -3.455,-5.26777c-1.09061,-1.80657 -2.05009,-3.7271 -3.16725,-5.54166c0,0 -0.75339,-1.22369 0.47086,-1.97673c1.22424,-0.75304 1.97763,0.47065 1.97763,0.47065c1.1349,1.84337 2.11437,3.79792 3.22156,5.63368c0.99308,1.64657 2.05677,3.25888 3.1653,4.84714c2.67703,-2.36132 5.12427,-4.98614 7.95756,-7.19004c0,0 1.13468,-0.88213 2.01721,0.25203c0.88253,1.13416 -0.25215,2.0163 -0.25215,2.0163c-2.86545,2.22637 -5.32877,4.88999 -8.04284,7.26898c2.81097,3.84109 5.81455,7.56805 8.63112,11.33117l0.29407,0.53697c0,0 0.64287,1.28514 -0.64286,1.92771c-1.28573,0.64257 -1.92858,-0.64257 -1.92858,-0.64257l-0.02537,-0.10162c-2.78888,-3.73265 -5.75277,-7.42785 -8.54264,-11.22918c-3.1158,2.41968 -6.49781,4.54208 -9.82456,6.63575l-0.44249,0.22889c0,0 -1.28573,0.64257 -1.92859,-0.64257z" fill="#ff0000" stroke="none" stroke-width="0.5"/><path d="M151.25416,122.55343c-0.36974,-0.09926 -0.89893,-0.38339 -0.89893,-1.19671c0,-1.25 1.25,-1.25 1.25,-1.25l1.23806,0.44977c1.57467,1.8896 3.18517,3.73738 4.80134,5.57713c0.32577,-0.26424 0.6555,-0.52389 0.98992,-0.77805c1.69377,-1.28733 5.37597,-2.24432 5.63385,-4.52177c0,0 0.24515,-1.22573 1.47088,-0.98058c1.22573,0.24515 0.98058,1.47087 0.98058,1.47087c-0.84636,3.43522 -4.00278,4.0589 -6.58837,6.03379c-0.28111,0.21471 -0.55901,0.43313 -0.83413,0.65478c2.73415,3.10913 5.45508,6.22828 8.0168,9.52109c0,0 0.76743,0.98669 -0.21926,1.75412c-0.98669,0.76743 -1.75412,-0.21927 -1.75412,-0.21927c-2.53939,-3.26573 -5.23697,-6.35848 -7.94851,-9.4407c-3.44024,3.04769 -6.57717,6.44858 -10.33981,9.136l-0.11889,0.14338c0,0 -0.88388,0.88388 -1.76776,0c-0.88388,-0.88388 0,-1.76776 0,-1.76776l0.43667,-0.41217c3.69761,-2.62364 6.77508,-5.96705 10.14241,-8.97151c-1.50993,-1.71785 -3.01513,-3.44263 -4.4907,-5.2024z" fill="#ff0000" stroke="none" stroke-width="0.5"/><path d="M182.6842,138.26632c-1.2756,-1.2756 0,-2.55119 0,-2.55119l1.20264,-1.20264c1.54582,-1.54582 3.10975,-3.09 4.67237,-4.64248c-2.62778,-3.41486 -5.02262,-7.03428 -7.3359,-10.77112c0,0 -0.94952,-1.53384 0.58432,-2.48336c1.53384,-0.94952 2.48337,0.58432 2.48337,0.58432c2.17847,3.51907 4.42529,6.88711 6.87032,10.07105c3.55884,-3.58078 7.05438,-7.23387 10.25399,-11.07815c0,0 1.15487,-1.38584 2.54071,-0.23098c1.38584,1.15487 0.23097,2.54071 0.23097,2.54071c-3.35826,4.02519 -7.02731,7.8478 -10.7568,11.59685c2.91818,3.47727 6.1409,6.70555 9.85684,9.63675l1.35818,1.78458c0,0 1.08237,1.44317 -0.36079,2.52554c-1.44316,1.08238 -2.52554,-0.36079 -2.52554,-0.36079l-1.04711,-1.42245c-3.72012,-2.8651 -6.95433,-6.08847 -9.88111,-9.56739c-1.46887,1.46016 -2.93811,2.91359 -4.39262,4.3681l-1.20264,1.20264c0,0 -1.27559,1.2756 -2.55119,0z" fill="#ff0000" stroke="none" stroke-width="0.5"/><path d="M214.99741,139.25388c-1.08405,-0.62236 -0.46169,-1.70641 -0.46169,-1.70641l1.18685,-2.06686c1.16467,-1.86214 2.49195,-3.97241 3.9839,-6.0425c-2.2152,-2.68714 -4.28224,-5.49428 -6.22944,-8.3402c0,0 -0.70586,-1.03163 0.32578,-1.73749c1.03163,-0.70586 1.73749,0.32578 1.73749,0.32578c1.79292,2.62043 3.68952,5.21242 5.71468,7.7039c2.70157,-3.39145 5.87332,-6.39508 9.52507,-7.62834c0,0 1.18585,-0.39529 1.58114,0.79057c0.39529,1.18586 -0.79057,1.58114 -0.79057,1.58114c-3.2957,1.08173 -6.21792,3.97191 -8.70188,7.18719c2.78249,3.23431 5.80349,6.25791 9.12137,8.9017l0.79832,0.63718c0,0 0.97697,0.77976 0.1972,1.75673c-0.77976,0.97697 -1.75673,0.19721 -1.75673,0.19721l-0.79832,-0.63717c-3.28713,-2.6277 -6.29496,-5.60684 -9.07421,-8.79209c-1.31551,1.88278 -2.4827,3.76958 -3.48938,5.3815l-1.16317,2.02649c0,0 -0.62236,1.08405 -1.70641,0.46169z" fill="#ff0000" stroke="none" stroke-width="0.5"/><path d="M117.41197,174.99167c-0.04728,0.33477 -0.26193,1.09483 -1.23665,1.09483c-1.25,0 -1.25,-1.25 -1.25,-1.25l0.25,-1.02778c2.34797,-3.11678 4.75574,-6.30761 7.10398,-9.56552c-3.17685,-3.32766 -6.47751,-6.56457 -9.5331,-9.95939c0,0 -0.83621,-0.92911 0.09291,-1.76532c0.92912,-0.83621 1.76532,0.09291 1.76532,0.09291c2.93427,3.26057 6.08995,6.37679 9.14883,9.56548c3.09454,-4.38681 6.03817,-8.89053 8.54691,-13.4945c0,0 0.59856,-1.09737 1.69593,-0.49881c1.09737,0.59857 0.49881,1.69594 0.49881,1.69594c-2.63954,4.83449 -5.74865,9.54369 -9.00406,14.13142c1.52671,1.63516 3.01292,3.29959 4.41711,5.02158c1.77663,2.17871 3.07903,4.75158 4.76736,6.99844l0.39581,0.74653c0,0 0.55901,1.11804 -0.55902,1.67705c-1.11803,0.55901 -1.67705,-0.55902 -1.67705,-0.55902l-0.15974,-0.36457c-1.66393,-2.22244 -2.95249,-4.76711 -4.70526,-6.91904c-1.26318,-1.55085 -2.59426,-3.05452 -3.96211,-4.53199c-2.18721,3.02358 -4.41746,5.9938 -6.59597,8.91176z" fill="#ff0000" stroke="none" stroke-width="0.5"/><path d="M144.03911,173.63299c-1.95039,-0.75546 -0.65013,-1.88864 -0.65013,-1.88864l1.0033,-0.87326c3.25317,-3.02966 7.00081,-5.90203 10.64841,-8.79427c-3.67333,-3.23244 -7.64747,-6.35583 -10.29315,-9.92332c0,0 -0.92337,-1.2518 1.23116,-1.78829c2.15454,-0.53649 3.07791,0.71532 3.07791,0.71532c2.27246,3.09913 5.6413,5.85828 8.89751,8.65196c3.27829,-2.69216 6.33483,-5.44191 8.70174,-8.38876c0,0 0.99126,-1.23415 3.11542,-0.65822c2.12416,0.57593 1.13288,1.81009 1.13288,1.81009c-2.74123,3.41288 -6.37247,6.55996 -10.20782,9.65508c0.42181,0.38795 0.83508,0.77854 1.23674,1.17271c2.82771,2.775 4.92519,5.49451 8.55224,7.93698l0.62136,1.07388c0,0 0.28493,1.35182 -2.04175,1.51737c-2.06103,0.14665 -2.51994,-0.89735 -2.59786,-1.13766c-3.5206,-2.49764 -5.70025,-5.18664 -8.55085,-7.98609c-0.06765,-0.06644 -0.1356,-0.13278 -0.20383,-0.19902c-3.22471,2.55211 -6.46858,5.10625 -9.34233,7.78377l-1.08033,0.94264c0,0 -1.30024,1.13319 -3.25062,0.37773z" fill="#ff0000" stroke="none" stroke-width="0.5"/><path d="M267.89254,144.05371c-0.88389,0.88388 -1.76777,0 -1.76777,0l-0.36998,-0.38079c-3.0767,-3.85093 -5.84595,-7.88326 -8.40158,-12.04682c-2.11476,2.1904 -4.1101,4.49295 -6.06463,6.69367l-0.73239,1.08791c-0.22308,0.34181 -0.60893,0.56771 -1.04754,0.56771c-0.5623,0 -1.03789,-0.37128 -1.19497,-0.88206l-0.54644,-1.63933c0,0 -0.39528,-1.18585 0.79057,-1.58113c0.64059,-0.21353 1.05048,0.03433 1.292,0.30741c1.98939,-2.25325 4.02398,-4.56655 6.17864,-6.75553c-2.3224,-3.93487 -4.4724,-7.9768 -6.52671,-12.0848c0,0 -0.55902,-1.11803 0.55902,-1.67705c1.11803,-0.55901 1.67705,0.55901 1.67705,0.55901c1.93475,3.87008 3.95357,7.68352 6.12586,11.4017c3.09284,-2.92285 6.45749,-5.5068 10.29442,-7.25842c0,0 1.13796,-0.51726 1.65521,0.6207c0.51725,1.13796 -0.62071,1.65521 -0.62071,1.65521c-3.74534,1.69442 -7.0194,4.26927 -10.0262,7.1694c2.58716,4.25796 5.39818,8.37814 8.54059,12.30067l0.18557,0.17476c0,0 0.88388,0.88388 0,1.76777z" fill="#ff0000" stroke="none" stroke-width="0.5"/><path d="M177.93593,205.81385c-0.64286,-1.28514 0.64287,-1.92771 0.64287,-1.92771l0.19639,-0.0904c3.27721,-2.06249 6.61424,-4.14899 9.67777,-6.53902c-1.21128,-1.72448 -2.37339,-3.47609 -3.455,-5.26777c-1.09061,-1.80657 -2.05009,-3.7271 -3.16725,-5.54166c0,0 -0.75338,-1.22369 0.47086,-1.97673c1.22424,-0.75304 1.97763,0.47065 1.97763,0.47065c1.1349,1.84337 2.11437,3.79791 3.22156,5.63368c0.99308,1.64657 2.05677,3.25888 3.1653,4.84714c2.67703,-2.36132 5.12427,-4.98614 7.95756,-7.19004c0,0 1.13468,-0.88213 2.01721,0.25203c0.88253,1.13416 -0.25215,2.0163 -0.25215,2.0163c-2.86545,2.22637 -5.32877,4.88999 -8.04284,7.26898c2.81097,3.84109 5.81455,7.56805 8.63112,11.33117l0.29407,0.53697c0,0 0.64287,1.28514 -0.64286,1.92771c-1.28573,0.64257 -1.92858,-0.64257 -1.92858,-0.64257l-0.02537,-0.10162c-2.78888,-3.73265 -5.75277,-7.42785 -8.54264,-11.22918c-3.1158,2.41968 -6.49782,4.54208 -9.82457,6.63575l-0.44248,0.22889c0,0 -1.28573,0.64257 -1.92859,-0.64257z" fill="#ff0000" stroke="none" stroke-width="0.5"/><path d="M159.12657,196.36695c3.36732,3.00446 6.4448,6.34787 10.14241,8.97151l0.43667,0.41217c0,0 0.88388,0.88388 0,1.76776c-0.88388,0.88388 -1.76776,0 -1.76776,0l-0.11889,-0.14338c-3.76264,-2.68741 -6.89957,-6.08831 -10.33981,-9.136c-2.71153,3.08222 -5.40912,6.17497 -7.94851,9.4407c0,0 -0.76742,0.98669 -1.75411,0.21927c-0.98669,-0.76743 -0.21927,-1.75411 -0.21927,-1.75411c2.56171,-3.29281 5.28265,-6.41197 8.0168,-9.52109c-0.27512,-0.22165 -0.55302,-0.44007 -0.83413,-0.65478c-2.58559,-1.97489 -5.74201,-2.59857 -6.58837,-6.03378c0,0 -0.24515,-1.22573 0.98058,-1.47087c1.22573,-0.24515 1.47088,0.98058 1.47088,0.98058c0.25788,2.27746 3.94008,3.23444 5.63385,4.52177c0.33442,0.25417 0.66415,0.51381 0.98992,0.77805c1.61616,-1.83975 3.22666,-3.68753 4.80133,-5.57713l1.23806,-0.44977c0,0 1.25,0 1.25,1.25c0,0.81332 -0.52919,1.09744 -0.89893,1.1967c-1.47557,1.75977 -2.98077,3.48456 -4.4907,5.2024z" fill="#ff0000" stroke="none" stroke-width="0.5"/><path d="M235.50562,224.46244c1.2756,1.2756 0,2.55119 0,2.55119l-1.20264,1.20263c-1.54582,1.54582 -3.10974,3.09 -4.67237,4.64248c2.62779,3.41486 5.02262,7.03428 7.3359,10.77112c0,0 0.94951,1.53384 -0.58433,2.48336c-1.53384,0.94952 -2.48337,-0.58432 -2.48337,-0.58432c-2.17847,-3.51907 -4.42529,-6.88711 -6.87032,-10.07105c-3.55885,3.58078 -7.05438,7.23387 -10.25399,11.07815c0,0 -1.15487,1.38584 -2.5407,0.23098c-1.38584,-1.15486 -0.23097,-2.54071 -0.23097,-2.54071c3.35827,-4.02519 7.02732,-7.8478 10.7568,-11.59685c-2.91818,-3.47727 -6.14089,-6.70555 -9.85684,-9.63675l-1.35818,-1.78459c0,0 -1.08238,-1.44317 0.36079,-2.52554c1.44316,-1.08238 2.52554,0.36079 2.52554,0.36079l1.0471,1.42246c3.72013,2.86511 6.95433,6.08847 9.88112,9.56739c1.46887,-1.46016 2.93812,-2.91359 4.39262,-4.3681l1.20263,-1.20264c0,0 1.27559,-1.2756 2.55119,0z" fill="#ff0000" stroke="none" stroke-width="0.5"/><path d="M146.45099,242.10198l0.22642,-0.11711c4.09847,-2.90921 7.93254,-6.09945 11.58917,-9.48363c-2.09517,-3.61411 -4.53662,-6.98881 -7.67294,-9.64628c0,0 -0.95225,-0.80977 -0.14249,-1.76202c0.80976,-0.95225 1.76201,-0.14248 1.76201,-0.14248c3.20869,2.73761 5.73476,6.14593 7.90643,9.80552c3.10952,-2.97903 6.09762,-6.09179 9.02042,-9.28208c0,0 0.84445,-0.92163 1.76608,-0.07717c0.92163,0.84446 0.07718,1.76609 0.07718,1.76609c-3.10309,3.38625 -6.28005,6.68271 -9.5934,9.82888c1.47099,2.69637 2.79238,5.47931 4.0868,8.19211c0.3072,-0.19629 0.76938,-0.32211 1.32675,0.05906c1.03179,0.70563 0.32615,1.73741 0.32615,1.73741l-0.97546,1.42635c-0.29127,0.44804 -0.8505,0.6745 -1.3912,0.52014c-0.42176,-0.12041 -0.73077,-0.44356 -0.85145,-0.83347l-0.40561,-1.24716c-1.27532,-2.65272 -2.56192,-5.41454 -3.99415,-8.10133c-3.6004,3.30206 -7.37019,6.4193 -11.38582,9.2777l-0.4603,0.26459c0,0 -1.09256,0.60729 -1.69986,-0.48527c-0.60729,-1.09256 0.48527,-1.69986 0.48527,-1.69986z" fill="#ff0000" stroke="none" stroke-width="0.5"/><path d="M257.18212,196.08917c3.36732,3.00446 6.4448,6.34787 10.14241,8.97151l0.43666,0.41217c0,0 0.88389,0.88388 0,1.76776c-0.88388,0.88388 -1.76777,0 -1.76777,0l-0.11889,-0.14338c-3.76264,-2.68741 -6.89958,-6.08831 -10.33981,-9.136c-2.71153,3.08222 -5.40912,6.17497 -7.94851,9.4407c0,0 -0.76743,0.98669 -1.75411,0.21927c-0.98669,-0.76743 -0.21927,-1.75412 -0.21927,-1.75412c2.56172,-3.29281 5.28265,-6.41196 8.0168,-9.52109c-0.27512,-0.22165 -0.55302,-0.44007 -0.83413,-0.65478c-2.58559,-1.97489 -5.74201,-2.59857 -6.58837,-6.03378c0,0 -0.24515,-1.22572 0.98058,-1.47087c1.22573,-0.24515 1.47087,0.98058 1.47087,0.98058c0.25788,2.27746 3.94008,3.23444 5.63385,4.52177c0.33442,0.25417 0.66414,0.51381 0.98992,0.77805c1.61617,-1.83975 3.22667,-3.68753 4.80134,-5.57713l1.23806,-0.44977c0,0 1.25,0 1.25,1.25c0,0.81332 -0.52919,1.09745 -0.89893,1.19671c-1.47557,1.75977 -2.98078,3.48456 -4.49071,5.2024z" fill="#ff0000" stroke="none" stroke-width="0.5"/><path d="M231.86622,185.23541c0.04728,-0.33477 0.26193,-1.09482 1.23665,-1.09482c1.25,0 1.25,1.25 1.25,1.25l-0.25,1.02778c-2.34797,3.11678 -4.75574,6.30761 -7.10398,9.56551c3.17685,3.32766 6.47751,6.56457 9.5331,9.95939c0,0 0.83621,0.92911 -0.09291,1.76532c-0.92912,0.83621 -1.76533,-0.09291 -1.76533,-0.09291c-2.93427,-3.26057 -6.08995,-6.37679 -9.14883,-9.56548c-3.09454,4.38681 -6.03818,8.89053 -8.54691,13.4945c0,0 -0.59857,1.09737 -1.69593,0.4988c-1.09737,-0.59857 -0.49881,-1.69593 -0.49881,-1.69593c2.63954,-4.83449 5.74864,-9.54369 9.00406,-14.13142c-1.52671,-1.63516 -3.01292,-3.29959 -4.41711,-5.02158c-1.77663,-2.17871 -3.07903,-4.75158 -4.76735,-6.99844l-0.39582,-0.74653c0,0 -0.55902,-1.11804 0.55902,-1.67705c1.11804,-0.55901 1.67705,0.55902 1.67705,0.55902l0.15975,0.36457c1.66392,2.22244 2.95249,4.76711 4.70527,6.91904c1.26318,1.55085 2.59425,3.05452 3.96211,4.53199c2.18721,-3.02358 4.41746,-5.9938 6.59598,-8.91176z" fill="#ff0000" stroke="none" stroke-width="0.5"/><path d="M133.47596,191.24559c1.08405,0.62236 0.46169,1.70641 0.46169,1.70641l-1.18684,2.06686c-1.16467,1.86214 -2.49196,3.97242 -3.98391,6.04251c2.2152,2.68714 4.28224,5.49428 6.22944,8.3402c0,0 0.70585,1.03163 -0.32578,1.73749c-1.03163,0.70586 -1.73748,-0.32578 -1.73748,-0.32578c-1.79292,-2.62043 -3.68952,-5.21241 -5.71469,-7.70389c-2.70156,3.39145 -5.87331,6.39508 -9.52506,7.62834c0,0 -1.18586,0.39529 -1.58114,-0.79057c-0.39529,-1.18586 0.79057,-1.58114 0.79057,-1.58114c3.2957,-1.08173 6.21792,-3.97191 8.70188,-7.18718c-2.7825,-3.23431 -5.80348,-6.25791 -9.12137,-8.9017l-0.79832,-0.63718c0,0 -0.97697,-0.77976 -0.1972,-1.75673c0.77976,-0.97697 1.75673,-0.19721 1.75673,-0.19721l0.79832,0.63717c3.28713,2.6277 6.29496,5.60684 9.07421,8.79209c1.31551,-1.88278 2.4827,-3.76958 3.48938,-5.3815l1.16316,-2.02649c0,0 0.62236,-1.08405 1.70641,-0.46169z" fill="#ff0000" stroke="none" stroke-width="0.5"/><path d="M137.35688,222.99124c1.81576,0.75546 0.60525,1.88864 0.60525,1.88864l-0.93404,0.87326c-3.02863,3.02966 -6.51759,5.90203 -9.91342,8.79426c3.41978,3.23243 7.11962,6.35583 9.58268,9.92333c0,0 0.85963,1.2518 -1.14619,1.78829c-2.00582,0.53649 -2.86546,-0.71532 -2.86546,-0.71532c-2.1156,-3.09913 -5.25192,-5.85827 -8.28337,-8.65195c-3.05201,2.69215 -5.89758,5.44191 -8.10111,8.38875c0,0 -0.92284,1.23415 -2.90038,0.65822c-1.97754,-0.57594 -1.05469,-1.81009 -1.05469,-1.81009c2.55202,-3.41287 5.93262,-6.55995 9.50324,-9.65508c-0.3927,-0.38795 -0.77744,-0.77854 -1.15138,-1.17271c-2.63253,-2.775 -4.58524,-5.49451 -7.96194,-7.93698l-0.57847,-1.07388c0,0 -0.26527,-1.35182 1.90081,-1.51737c1.91877,-0.14665 2.346,0.89735 2.41854,1.13766c3.2776,2.49764 5.3068,5.18664 7.96065,7.98609c0.06298,0.06644 0.12625,0.13278 0.18977,0.19902c3.00213,-2.55211 6.02209,-5.10625 8.69749,-7.78377l1.00576,-0.94264c0,0 1.21049,-1.13319 3.02625,-0.37773z" fill="#ff0000" stroke="none" stroke-width="0.5"/><path d="M249.75956,149.7881c0.88388,-0.88388 1.76777,0 1.76777,0l0.36998,0.38079c3.0767,3.85093 5.84595,7.88326 8.40158,12.04682c2.11476,-2.1904 4.1101,-4.49295 6.06462,-6.69367l0.73239,-1.08791c0.22308,-0.34181 0.60893,-0.56771 1.04755,-0.56771c0.5623,0 1.03788,0.37128 1.19497,0.88206l0.54644,1.63933c0,0 0.39529,1.18585 -0.79057,1.58113c-0.64059,0.21353 -1.05048,-0.03433 -1.29199,-0.30741c-1.9894,2.25325 -4.02398,4.56655 -6.17864,6.75553c2.3224,3.93487 4.4724,7.9768 6.52672,12.0848c0,0 0.55901,1.11803 -0.55902,1.67705c-1.11804,0.55901 -1.67705,-0.55901 -1.67705,-0.55901c-1.93475,-3.87007 -3.95357,-7.68352 -6.12586,-11.4017c-3.09283,2.92285 -6.45749,5.5068 -10.29442,7.25842c0,0 -1.13796,0.51726 -1.65521,-0.6207c-0.51725,-1.13796 0.6207,-1.65521 0.6207,-1.65521c3.74535,-1.69442 7.0194,-4.26927 10.0262,-7.1694c-2.58716,-4.25796 -5.39818,-8.37814 -8.54059,-12.30067l-0.18557,-0.17477c0,0 -0.88389,-0.88388 0,-1.76776z" fill="#ff0000" stroke="none" stroke-width="0.5"/><path d="M189.35249,166.12887c-2.88871,-4.24976 -5.44088,-8.85823 -8.7123,-12.70584l-0.37128,-0.57845c0,0 -0.74425,-1.23099 0.26005,-2.14323c1.0043,-0.91225 1.74854,0.31875 1.74854,0.31875l0.0965,0.19528c3.32637,3.93667 5.92889,8.62554 8.88335,12.94087c3.13545,-3.24795 6.25865,-6.51118 9.25082,-10.01265c0,0 0.90422,-1.05788 1.76728,0.05045c0.86306,1.10834 -0.04116,2.16622 -0.04116,2.16622c-3.01824,3.53028 -6.16842,6.82131 -9.3302,10.0978c0.23952,0.31833 0.48227,0.63326 0.72873,0.94426c2.26694,2.86056 5.29728,4.18586 5.62909,8.50332c0,0 0.06216,1.53027 -1.18629,1.60647c-1.24845,0.0762 -1.31062,-1.45408 -1.31062,-1.45408c0.07995,-2.80768 -3.4214,-4.63188 -4.90738,-6.49804c-0.29339,-0.36845 -0.58133,-0.74269 -0.86469,-1.1218c-1.86922,1.9391 -3.73402,3.88894 -5.56953,5.89595l-1.29075,0.32206c0,0 -1.2364,-0.2254 -1.05252,-1.74089c0.11964,-0.98606 0.68487,-1.23512 1.06519,-1.28879c1.71839,-1.86748 3.46095,-3.6872 5.20716,-5.49765z" fill="#ff0000" stroke="none" stroke-width="0.5"/><path d="M232.77756,175.34004l-0.35519,-0.34932c-2.56038,-2.98248 -5.16508,-6.00871 -7.42767,-9.2404c-3.78775,2.80828 -7.71044,5.46377 -11.47697,8.20673l-0.05424,0.0896c0,0 -0.99361,1.03808 -2.03233,0.04458c-1.03872,-0.9935 -0.0451,-2.03158 -0.0451,-2.03158l0.43949,-0.42622c3.80199,-2.76389 7.77197,-5.43801 11.59162,-8.27804c-1.89078,-3.07421 -3.45794,-6.34633 -5.53841,-9.31941c0,0 -0.82368,-1.1778 0.35434,-2.00087c1.17803,-0.82307 2.00171,0.35472 2.00171,0.35472c2.05637,2.94212 3.61962,6.17243 5.48023,9.21882c1.52801,-1.1902 3.02027,-2.41664 4.4552,-3.69664c1.59979,-1.42708 3.11264,-3.00535 4.74115,-4.43151c0,0 1.08107,-0.94674 2.02843,0.13416c0.94736,1.0809 -0.1337,2.02763 -0.1337,2.02763c-1.60307,1.40388 -3.08677,2.95555 -4.6621,4.35963c-1.56235,1.39251 -3.18978,2.72298 -4.85617,4.013c2.22141,3.18793 4.79372,6.16658 7.31597,9.10464l0.16095,0.14435c0,0 1.03872,0.9935 0.04511,2.03158c-0.99361,1.03807 -2.03233,0.04458 -2.03233,0.04458z" fill="#ff0000" stroke="none" stroke-width="0.5"/><path d="M180.26154,224.4863c0.74812,-1.3031 2.05122,-0.55499 2.05122,-0.55499l2.4845,1.42667c2.23842,1.40001 4.77511,2.9955 7.2635,4.78893c3.23012,-2.66282 6.60451,-5.14754 10.0255,-7.48821c0,0 1.24009,-0.84848 2.08858,0.39161c0.84849,1.24009 -0.39161,2.08858 -0.39161,2.08858c-3.14993,2.15521 -6.26568,4.43506 -9.26061,6.86944c4.07675,3.24747 7.68732,7.06012 9.16979,11.44977c0,0 0.47516,1.42548 -0.95032,1.90064c-1.42548,0.47516 -1.90064,-0.95032 -1.90064,-0.95032c-1.30031,-3.96166 -4.77451,-7.47436 -8.63949,-10.46025c-3.88786,3.34475 -7.52244,6.97618 -10.70046,10.96451l-0.76593,0.95963c0,0 -0.93732,1.17438 -2.11171,0.23705c-1.17439,-0.93733 -0.23706,-2.11171 -0.23706,-2.11171l0.76593,-0.95963c3.15867,-3.95135 6.7398,-7.56697 10.56869,-10.90782c-2.26323,-1.58133 -4.53129,-2.98436 -6.46893,-4.19447l-2.43597,-1.39821c0,0 -1.30311,-0.74812 -0.55499,-2.05122z" fill="#ff0000" stroke="none" stroke-width="0.5"/><path d="M243.55314,231.49795c-0.06137,0 -0.11967,-0.00388 -0.17503,-0.01126c-1.426,4.55559 1.10673,9.96285 4.76224,11.96806c2.77586,1.52269 6.03696,1.40737 8.98637,1.54888c4.50301,-0.52864 8.36821,-0.98094 12.37627,-3.82417c0.58832,-0.41734 1.34514,-0.56008 1.7858,-1.20426c1.46396,-2.14009 0.99168,-7.59319 0.22095,-9.90351c-2.73407,-8.19554 -10.50187,-11.94849 -17.11363,-10.55173c-2.78103,0.96475 -5.38565,1.76555 -7.86598,3.68753c-0.37899,0.29368 -1.20881,0.83702 -1.46138,1.48503c3.90084,-2.86372 9.30673,-2.61528 13.55166,-2.85818c0,0 1.22018,-0.06982 1.27565,1.46624c0.05547,1.53606 -1.16472,1.60588 -1.16472,1.60588c-4.32407,0.24743 -10.56897,-0.32604 -13.92073,3.8822c-0.01207,0.01515 -0.02407,0.03032 -0.036,0.04551v1.12614c0,0 0,1.53764 -1.22145,1.53764zM242.33036,227.69093c-0.00992,-1.51235 -0.0469,-2.68296 0.50895,-4.25259c1.6164,-4.56443 7.70768,-5.77467 11.0316,-6.92177c8.95995,-1.86861 21.4114,5.2451 20.59246,18.60225c-0.1336,2.1791 -0.10541,4.97377 -1.29507,6.82086c-0.60087,0.93293 -1.6158,1.27808 -2.43399,1.89585c-4.27334,3.22654 -8.69577,3.68625 -13.54053,4.24222c-3.33723,-0.15136 -6.95108,-0.09343 -10.08483,-1.83526c-5.64832,-3.1395 -8.70811,-12.1813 -4.77857,-18.55155z" fill="#ff0000" stroke="none" stroke-width="0.5"/><text transform="translate(247.00866,239.83649) scale(0.5,0.5)" font-size="40" xml:space="preserve" fill="#000000" stroke="none" stroke-width="1" font-family="Sans Serif" font-weight="normal" text-anchor="start"><tspan x="0" dy="0">31</tspan></text></g><path d="M179.05352,317.13273c10.74494,3.05979 38.88236,11.65772 54.16967,13.56389c14.56575,1.8162 40.94105,0.37066 52.05292,0.00714c3.18849,-0.10431 4.66061,3.38781 4.09636,7.91307c-0.76194,6.11068 -1.73971,13.95241 -2.12693,17.05784c-0.32047,2.5701 -2.39038,5.08416 -5.21539,4.11135c-10.41282,-3.58572 -36.36673,-12.18106 -50.95905,-14.00057c-15.5852,-1.94331 -43.78022,0.00314 -54.72962,0.88701c-2.83883,0.22915 -3.88002,-2.56221 -3.37646,-6.60074c0.90108,-7.22659 1.82439,-16.8022 2.19275,-19.75637c0.18975,-1.52184 0.95922,-4.01885 3.89576,-3.18262z" fill="#8a6952" stroke="none" stroke-width="0"/><path d="M281.07431,332.75699c1.04553,-0.84469 2.73947,-2.0054 4.2018,-2.05324c3.18849,-0.10431 4.66061,3.38781 4.09636,7.91307c-0.76194,6.11068 -1.73971,13.95241 -2.12693,17.05784c-0.32047,2.5701 -2.39038,5.08416 -5.21539,4.11135c-1.29643,-0.44643 -2.46664,-2.11378 -3.23572,-3.47097c-0.58485,-1.03208 -0.83649,-2.83148 -0.67825,-4.31118c0.50793,-4.74985 1.4799,-14.00307 1.69927,-16.0546c0.07524,-0.7036 0.65363,-2.70331 1.25886,-3.19227z" fill="#b7a496" stroke="none" stroke-width="0"/><path d="M179.05352,317.13273c1.97286,0.56181 -0.0869,8.78923 -0.61817,14.57588c-0.53127,5.78664 -0.02083,14.79651 -2.09388,14.96385c-2.83883,0.22915 -3.88002,-2.56221 -3.37646,-6.60074c0.90108,-7.22659 1.82439,-16.8022 2.19275,-19.75637c0.18975,-1.52184 0.95922,-4.01885 3.89576,-3.18262z" fill="#b7a496" stroke="none" stroke-width="0"/><path d="M233.72196,347.63686c-1.59069,0.31864 -1.90933,-1.27206 -1.90933,-1.27206l-0.10722,-0.56378c-1.42101,-4.95949 -0.76807,-9.38804 -0.13868,-14.43567c0,0 0.20073,-1.60983 1.81055,-1.4091c1.60982,0.20073 1.4091,1.81055 1.4091,1.81055c-0.57314,4.59661 -1.27414,8.62578 0.0365,13.13493l0.17113,0.82579c0,0 0.31864,1.5907 -1.27205,1.90934z" fill="#cfa685" stroke="none" stroke-width="0.5"/><path d="M229.50937,347.14589c-1.4508,0.72595 -2.17675,-0.72485 -2.17675,-0.72485l-0.51376,-1.19922c-0.79596,-5.24493 0.54223,-10.25676 1.18372,-15.43076c0,0 0.20074,-1.60983 1.81056,-1.4091c1.60982,0.20073 1.40909,1.81055 1.40909,1.81055c-0.60545,4.82984 -1.98022,9.63592 -1.19731,14.53082l0.2093,0.2458c0,0 0.72595,1.4508 -0.72485,2.17676z" fill="#cfa685" stroke="none" stroke-width="0.5"/><path d="M229.83732,338.66911c-0.03243,-0.02362 -0.06528,-0.05037 -0.09851,-0.08047c-0.8502,-0.76999 -0.25268,-2.18944 -0.25268,-2.18944c1.04949,-2.4887 2.21423,-4.97542 3.58082,-7.10262c5.58095,-8.68723 10.15832,4.39864 3.32229,9.36526c-0.20669,0.15017 -0.41108,0.27302 -0.61385,0.37281c1.06215,2.24947 1.79106,5.57811 1.44092,7.44894c-0.74982,4.00632 -3.77567,5.47618 -5.45984,2.47553c-1.36308,-2.42859 -2.07633,-6.97364 -1.91915,-10.29001zM235.13212,346.98437c1.63028,-2.70683 -0.76483,-5.67064 -2.71373,-7.69501c-0.01907,-0.00235 -0.03813,-0.00469 -0.05723,-0.00703l-0.18449,-0.023l-0.11225,0.38881l-0.11513,-0.06288c0.24736,3.00457 1.5085,10.17908 3.18284,7.39911zM237.72463,329.84494c-1.31715,-2.78813 -4.18254,2.80695 -5.68415,6.1277l0.72211,0.09005c1.73981,0.22151 7.06593,-1.76426 4.96203,-6.21775z" fill="#f4c49c" stroke="none" stroke-width="0.5"/><path d="M325.87283,326.68252c10.74494,3.05979 38.88236,11.65772 54.16967,13.56389c14.56575,1.8162 40.94105,0.37066 52.05292,0.00714c3.18849,-0.10431 4.66061,3.38781 4.09636,7.91307c-0.76194,6.11068 -1.73971,13.95241 -2.12693,17.05784c-0.32047,2.5701 -2.39038,5.08416 -5.21539,4.11135c-10.41282,-3.58572 -36.36673,-12.18106 -50.95905,-14.00057c-15.5852,-1.94331 -43.78022,0.00314 -54.72962,0.88701c-2.83883,0.22915 -3.88002,-2.56221 -3.37646,-6.60074c0.90108,-7.22659 1.82439,-16.8022 2.19275,-19.75637c0.18975,-1.52184 0.95922,-4.01885 3.89576,-3.18262z" fill="#9966ff" stroke="none" stroke-width="0"/><path d="M427.89362,342.30678c1.04553,-0.84469 2.73947,-2.0054 4.2018,-2.05324c3.18849,-0.10431 4.66061,3.38781 4.09636,7.91307c-0.76194,6.11068 -1.73971,13.95241 -2.12693,17.05784c-0.32047,2.5701 -2.39038,5.08416 -5.21539,4.11135c-1.29643,-0.44643 -2.46664,-2.11378 -3.23572,-3.47097c-0.58485,-1.03208 -0.83649,-2.83148 -0.67825,-4.31118c0.50793,-4.74985 1.4799,-14.00307 1.69927,-16.0546c0.07524,-0.7036 0.65363,-2.70331 1.25886,-3.19227z" fill="#55398d" stroke="none" stroke-width="0"/><path d="M325.87283,326.68252c1.97286,0.56181 -0.0869,8.78923 -0.61817,14.57588c-0.53127,5.78664 -0.02083,14.79651 -2.09388,14.96385c-2.83883,0.22915 -3.88002,-2.56221 -3.37646,-6.60074c0.90108,-7.22659 1.82439,-16.8022 2.19275,-19.75637c0.18975,-1.52184 0.95922,-4.01885 3.89576,-3.18262z" fill="#55398d" stroke="none" stroke-width="0"/><path d="M380.54127,357.18665c-1.59069,0.31864 -1.90933,-1.27206 -1.90933,-1.27206l-0.10722,-0.56378c-1.42101,-4.95949 -0.76807,-9.38804 -0.13868,-14.43567c0,0 0.20073,-1.60983 1.81055,-1.4091c1.60982,0.20073 1.4091,1.81055 1.4091,1.81055c-0.57314,4.59661 -1.27414,8.62578 0.0365,13.13493l0.17113,0.82579c0,0 0.31864,1.5907 -1.27205,1.90934z" fill="#1c122f" stroke="none" stroke-width="0.5"/><path d="M376.32868,356.69568c-1.4508,0.72595 -2.17675,-0.72485 -2.17675,-0.72485l-0.51376,-1.19922c-0.79596,-5.24493 0.54223,-10.25676 1.18372,-15.43076c0,0 0.20074,-1.60983 1.81056,-1.4091c1.60982,0.20073 1.40909,1.81055 1.40909,1.81055c-0.60545,4.82984 -1.98022,9.63592 -1.19731,14.53082l0.2093,0.2458c0,0 0.72595,1.4508 -0.72485,2.17676z" fill="#1c122f" stroke="none" stroke-width="0.5"/><path d="M376.65663,348.2189c-0.03243,-0.02362 -0.06528,-0.05037 -0.09851,-0.08047c-0.8502,-0.76999 -0.25268,-2.18944 -0.25268,-2.18944c1.04949,-2.4887 2.21423,-4.97542 3.58082,-7.10262c5.58095,-8.68723 10.15832,4.39864 3.32229,9.36526c-0.20669,0.15017 -0.41108,0.27302 -0.61385,0.37281c1.06215,2.24947 1.79106,5.57811 1.44092,7.44894c-0.74982,4.00632 -3.77567,5.47618 -5.45984,2.47553c-1.36308,-2.42859 -2.07633,-6.97364 -1.91915,-10.29001zM381.95143,356.53416c1.63028,-2.70683 -0.76483,-5.67064 -2.71373,-7.69501c-0.01907,-0.00235 -0.03813,-0.00469 -0.05723,-0.00703l-0.18449,-0.023l-0.11225,0.38881l-0.11513,-0.06288c0.24736,3.00457 1.5085,10.17908 3.18284,7.39911zM384.54394,339.39473c-1.31715,-2.78813 -4.18254,2.80695 -5.68415,6.1277l0.72211,0.09005c1.73981,0.22151 7.06593,-1.76426 4.96203,-6.21775z" fill="#2c1d4a" stroke="none" stroke-width="0.5"/><path d="M23.28002,341.27969l-4.34513,-5.51559l7.78446,-4.84746l-5.02979,-6.00833l5.12522,-2.62673l99.5888,18.52942l-5.33707,5.02365l7.28229,6.663l-6.79376,1.62514l1.31377,5.68633z" fill="#020000" stroke="none" stroke-width="0"/><text transform="translate(24.16371,336.53016) rotate(10.54001) scale(0.41873,0.41873)" font-size="40" xml:space="preserve" fill="#ffffff" stroke="none" stroke-width="1" font-family="Sans Serif" font-weight="normal" text-anchor="start"><tspan x="0" dy="0">*SOLD OUT*</tspan></text></g></g></svg>