<svg version="1.1" xmlns="http://www.w3.org/2000/svg" xmlns:xlink="http://www.w3.org/1999/xlink" width="201.60731" height="185.06036" viewBox="0,0,201.60731,185.06036"><g transform="translate(-151.59887,-85.83694)"><g fill="#633b29" stroke="#4f2f20" stroke-miterlimit="10"><path d="M214.07803,106.57837l18.6201,-18.6201l70.09923,70.09923l-18.6201,18.6201z" stroke-width="3"/><path d="M197.64026,203.0104v-26.3328h69.44698v26.3328z" stroke-width="4"/><path d="M209.3278,234.65716v-26.3328h71.42621v26.3328z" stroke-width="4"/><path d="M238.68753,265.8214l-7.42702,-25.26372l44.82267,-14.02189l7.42702,25.26372z" stroke-width="4"/><path d="M214.07803,201.51721c0,-28.37965 25.59591,-51.38591 57.17005,-51.38591c31.57414,0 79.95811,23.00626 79.95811,51.38591c0,28.37965 -48.38396,51.38591 -79.95811,51.38591c-31.57414,0 -57.17005,-23.00626 -57.17005,-51.38591z" stroke-width="4"/><path d="M197.66969,201.85293l6.30858,-25.56595l67.4246,16.6375l-6.30858,25.56596z" stroke-width="3"/><path d="M208.8146,236.0363l6.34491,-25.55697l69.3218,17.21022l-6.34492,25.55696z" stroke-width="3"/><path d="M239.00352,269.24521l-2.82155,-26.1812l71.35662,-7.69013l2.82155,26.1812z" stroke-width="3"/><path d="M152.84888,180.51053v-26.33281h99.13528v26.33281z" stroke-width="2.5"/></g></g></svg>