<svg version="1.1" xmlns="http://www.w3.org/2000/svg" xmlns:xlink="http://www.w3.org/1999/xlink" width="770.68443" height="399.23124" viewBox="0,0,770.68443,399.23124"><g transform="translate(30.46385,10.78851)"><g stroke="none" stroke-miterlimit="10"><path d="M-19,370.2115v-381h518v381z" fill="#1c4096" stroke-width="0"/><path d="M-30.46385,388.44274v-91.40518h557.9809v91.40518z" fill="#710900" stroke-width="0"/><text transform="translate(6.82828,38.86224) scale(0.5,0.5)" font-size="40" xml:space="preserve" fill="#ffffff" stroke-width="1" font-family="Sans Serif" font-weight="normal" text-anchor="start"><tspan x="0" dy="0">you must stop gooning for the rest of the month</tspan></text><g><path d="M333.06783,63.37891c-6.67612,14.01601 -24.96074,50.584 -31.10599,71.09081c-5.85519,19.53889 -9.9705,56.01367 -12.04065,71.32369c-0.59402,4.39312 -5.71933,5.60317 -11.78964,3.78409c-8.19703,-2.45639 -18.71614,-5.60861 -22.88186,-6.85695c-3.4476,-1.03314 -6.41406,-4.4505 -4.42814,-8.09662c7.32001,-13.43937 25.09641,-47.01601 30.96228,-66.59054c6.26499,-20.90642 10.11451,-59.99042 11.4341,-75.19809c0.34214,-3.94286 4.40764,-4.72438 9.82504,-3.10097c9.69394,2.90497 22.60149,6.38332 26.5643,7.57085c2.04144,0.61174 5.28511,2.24323 3.46055,6.07374z" fill="#8a6952" stroke-width="0"/><path d="M288.07892,199.56135c0.91579,1.62787 2.11473,4.21725 1.8423,6.23207c-0.59402,4.39312 -5.71933,5.60317 -11.78964,3.7841c-8.19704,-2.45639 -18.71614,-5.60862 -22.88185,-6.85696c-3.4476,-1.03314 -6.41407,-4.4505 -4.42815,-8.09661c0.91136,-1.67325 3.46651,-2.89136 5.50395,-3.6315c1.54938,-0.56285 4.07317,-0.49176 6.06414,0.06707c6.39107,1.79381 18.84561,5.26433 21.60601,6.03908c0.94671,0.26572 3.55313,1.52044 4.08324,2.46277z" fill="#b7a496" stroke-width="0"/><path d="M333.06783,63.37891c-1.2258,2.57345 -12.02333,-2.15051 -19.82968,-4.21594c-7.80633,-2.06543 -20.27005,-3.44843 -20.02021,-6.32769c0.34214,-3.94286 4.40764,-4.72438 9.82504,-3.10097c9.69394,2.90497 22.60149,6.38332 26.5643,7.57085c2.04144,0.61174 5.28511,2.24323 3.46055,6.07375z" fill="#b7a496" stroke-width="0"/><path d="M278.63426,131.2378c-0.06896,-2.25329 2.18434,-2.32225 2.18434,-2.32225l0.7973,-0.01661c7.12416,-0.80086 13.04145,1.11739 19.81248,3.14646c0,0 2.15947,0.64712 1.51234,2.80658c-0.64713,2.15946 -2.80658,1.51235 -2.80658,1.51235c-6.16602,-1.84775 -11.52495,-3.73954 -18.00653,-2.98583l-1.17109,0.04363c0,0 -2.2533,0.06896 -2.32226,-2.18433z" fill="#cfa685" stroke-width="0.5"/><path d="M280.28066,125.57899c-0.65941,-2.15574 1.49633,-2.81515 1.49633,-2.81515l1.76197,-0.42681c7.37081,0.12159 13.92896,3.11361 20.87035,5.18846c0,0 2.15947,0.64714 1.51235,2.80659c-0.64713,2.15946 -2.80658,1.51234 -2.80658,1.51234c-6.47814,-1.94592 -12.7459,-4.94052 -19.63407,-4.99909l-0.38518,0.22998c0,0 -2.15574,0.65941 -2.81516,-1.49633z" fill="#cfa685" stroke-width="0.5"/><path d="M291.82014,127.98758c0.03986,-0.03898 0.08411,-0.07781 0.13303,-0.11639c1.25158,-0.98702 3.05847,0.15981 3.05847,0.15981c3.16757,2.01326 6.30579,4.184 8.90472,6.54822c10.61374,9.65514 -8.37509,12.90276 -13.60059,2.38779c-0.158,-0.31793 -0.27909,-0.62638 -0.36897,-0.92729c-3.32782,0.9355 -8.05735,1.16494 -10.53992,0.25276c-5.31634,-1.95341 -6.63106,-6.4393 -2.13016,-8.05349c3.64281,-1.30644 10.0355,-1.23328 14.54342,-0.2514zM279.20241,133.32088c3.33222,2.85951 7.94695,0.26263 11.17128,-1.93995c0.00763,-0.02559 0.01524,-0.05116 0.02286,-0.0768l0.07416,-0.24748l-0.50682,-0.24367l0.11277,-0.14323c-4.17417,-0.35549 -14.29651,-0.28564 -10.87425,2.65114zM302.08845,140.83465c4.12486,-1.1604 -2.87951,-6.37987 -7.0827,-9.20497l-0.29029,0.96865c-0.70564,2.33277 0.78434,10.08983 7.37299,8.2363z" fill="#f4c49c" stroke-width="0.5"/></g><g><path d="M176.58012,94.02945l-7.76957,2.71889l-6.65835,-19.02708l7.76957,-2.71889z" fill="#cecbc0" stroke-width="0"/><path d="M172.31288,186.36669c-4.07416,-11.64243 -27.33995,-78.12733 -27.33995,-78.12733l57.40849,-20.08958c0,0 22.48822,64.26291 26.8868,76.8324c1.44113,4.11821 2.67625,7.7845 -3.79565,10.04928c-13.53838,4.73763 -39.91024,13.96623 -45.5383,15.93571c-2.60854,0.91284 -6.44852,-1.2489 -7.62138,-4.60048z" fill="#e5e3db" stroke-width="0"/><path d="M160.45803,104.03173l-2.71889,-7.76957l27.19349,-9.51611l2.71889,7.76957z" fill="#cecbc0" stroke-width="0"/><path d="M189.95478,68.58686c-2.14902,3.61382 -10.48723,5.38868 -20.97055,7.91041c-10.48332,2.52174 -10.85298,2.84153 -8.70396,-0.77229c2.14902,-3.61382 2.19827,-3.39479 12.68159,-5.91653c10.48332,-2.52174 19.14195,-4.83542 16.99294,-1.2216z" fill="#e5e3db" stroke-width="0"/><text transform="translate(158.27975,132.09904) rotate(-19.28741) scale(0.30788,0.30788)" font-size="40" xml:space="preserve" fill="#fffdf5" stroke-width="1" font-family="&quot;Comic Sans MS&quot;, Sans Serif" font-weight="normal" text-anchor="start"><tspan x="0" dy="0">67 lotion</tspan></text></g><g fill="#bcbcbc" stroke-width="0"><path d="M166.87772,144.73662c0,6.07142 -6.71689,10.99327 -15.00259,10.99327c-8.2857,0 -15.00259,-4.92186 -15.00259,-10.99327c0,-6.07142 6.71689,-10.99327 15.00259,-10.99327c8.2857,0 15.00259,4.92186 15.00259,10.99327z"/><path d="M197.65889,150.03925c0,8.99998 -9.32258,16.29591 -20.82256,16.29591c-11.49998,0 -20.82256,-7.29593 -20.82256,-16.29591c0,-8.99998 9.32258,-16.29591 20.82256,-16.29591c11.49998,0 20.82256,7.29593 20.82256,16.29591z"/><path d="M231.02671,147.4526c0,5.28571 -8.16449,9.57062 -18.2359,9.57062c-10.07141,0 -18.2359,-4.28491 -18.2359,-9.57062c0,-5.28571 8.16449,-9.57062 18.2359,-9.57062c10.07141,0 18.2359,4.28491 18.2359,9.57062z"/><path d="M272.15448,150.03925c0,6.71427 -10.07533,12.15727 -22.50388,12.15727c-12.42855,0 -22.50388,-5.44299 -22.50388,-12.15727c0,-6.71427 10.07533,-12.15727 22.50388,-12.15727c12.42855,0 22.50388,5.44299 22.50388,12.15727z"/><path d="M243.05465,146.15928c0,5.99999 -5.38509,10.86394 -12.02794,10.86394c-6.64285,0 -12.02794,-4.86395 -12.02794,-10.86394c0,-5.99999 5.38509,-10.86394 12.02794,-10.86394c6.64285,0 12.02794,4.86395 12.02794,10.86394z"/><path d="M285.08776,145.38328c0,4.14285 -4.22701,7.50129 -9.44128,7.50129c-5.21428,0 -9.44128,-3.35844 -9.44128,-7.50129c0,-4.14285 4.22701,-7.50129 9.44128,-7.50129c5.21428,0 9.44128,3.35844 9.44128,7.50129z"/><path d="M303.71164,143.9606c0,3.35714 -5.15347,6.07863 -11.51061,6.07863c-6.35713,0 -11.51061,-2.7215 -11.51061,-6.07863c0,-3.35714 5.15347,-6.07863 11.51061,-6.07863c6.35713,0 11.51061,2.7215 11.51061,6.07863z"/><path d="M323.11154,144.47795c0,3.64285 -5.15347,6.59596 -11.51061,6.59596c-6.35713,0 -11.51061,-2.95311 -11.51061,-6.59596c0,-3.64285 5.15347,-6.59596 11.51061,-6.59596c6.35713,0 11.51061,2.95311 11.51061,6.59596z"/><path d="M333.71682,141.5033c0,3.57142 -3.01102,6.46663 -6.7253,6.46663c-3.71428,0 -6.7253,-2.89521 -6.7253,-6.46663c0,-3.57142 3.01102,-6.46663 6.7253,-6.46663c3.71428,0 6.7253,2.89521 6.7253,6.46663z"/><path d="M322.46488,142.53796c0,-4.14285 5.03767,-7.50129 11.25194,-7.50129c6.21427,0 11.25194,3.35844 11.25194,7.50129c0,4.14285 -5.03767,7.50129 -11.25194,7.50129c-6.21427,0 -11.25194,-3.35844 -11.25194,-7.50129z"/></g><g fill="#565656" stroke-width="0"><path d="M172.85954,332.73883l-28.52171,-189.42298h127.54958v189.42298z"/><path d="M208.11262,332.73883v-189.42298h127.54958l-28.52171,189.42298z"/></g><g stroke-width="0"><g><path d="M375.54867,339.32946v-216.91674l364.67191,0v216.91678z" fill="#4a2105"/><path d="M434.92074,243.16545v-94.04288h245.92781v94.04288z" fill="#331704"/><path d="M434.90572,333.02443v-60.67682h245.92781v60.67682z" fill="#331704"/></g><g><path d="M434.92074,242.73461v-59.90782h10.95875v59.90782z" fill="#0d4c9e"/><path d="M445.87949,242.73461v-73.39771h13.4264v73.39774z" fill="#0d9e1e"/><path d="M458.87504,243.16545v-67.66327h10.95874v67.66327z" fill="#9e120d"/><path d="M486.95438,243.16545l-17.12059,-50.31439l12.71071,-4.32509l17.12056,50.31435z" fill="#d49c11"/></g></g></g></g></svg>