<svg version="1.1" xmlns="http://www.w3.org/2000/svg" xmlns:xlink="http://www.w3.org/1999/xlink" width="507" height="384" viewBox="0,0,507,384"><g transform="translate(14.25,15)"><g stroke-miterlimit="10"><path d="M-14.25,369v-384h507v384z" fill="#1c4096" stroke="none" stroke-width="0"/><path d="M198.34594,352.80966v-276.96897h254.25677v276.96897z" fill-opacity="0.45098" fill="#000000" stroke="none" stroke-width="0"/><g><path d="M190.1604,343.16204v-276.96897h254.25677v276.96897z" fill="#f1f1f1" stroke="#9c9c9c" stroke-width="4"/><path d="M195.68577,138.36062v-8.27047h242.95379v8.27047z" fill="#9c9c9c" stroke="none" stroke-width="0"/><path d="M386.49321,345.30625v-215.2161h8.22811v215.2161z" fill="#9c9c9c" stroke="#000000" stroke-width="0"/><path d="M435.69896,345.30625v-215.2161h8.22811v215.2161z" fill="#9c9c9c" stroke="#000000" stroke-width="0"/><path d="M435.69896,345.30625v-215.2161h8.22811v215.2161z" fill="#9c9c9c" stroke="#000000" stroke-width="0"/><path d="M337.28749,345.30625v-215.2161h8.22811v215.2161z" fill="#9c9c9c" stroke="#000000" stroke-width="0"/><path d="M288.08176,345.30625v-215.2161h8.22811v215.2161z" fill="#9c9c9c" stroke="#000000" stroke-width="0"/><path d="M238.87603,345.30625v-215.2161h8.22811v215.2161z" fill="#9c9c9c" stroke="#000000" stroke-width="0"/><path d="M189.6703,345.30625v-215.2161h8.22811v215.2161z" fill="#9c9c9c" stroke="#000000" stroke-width="0"/><path d="M194.6012,188.5961v-8.27047h244.12724v8.27047z" fill="#9c9c9c" stroke="none" stroke-width="0"/><path d="M196.7921,238.00452v-8.27047h240.01317v8.27047z" fill="#9c9c9c" stroke="none" stroke-width="0"/><path d="M196.7921,288.23998v-8.27047h240.01317v8.27047z" fill="#9c9c9c" stroke="none" stroke-width="0"/><path d="M195.68577,345.30625v-8.27047h244.12724v8.27047z" fill="#9c9c9c" stroke="none" stroke-width="0"/><text transform="translate(236.52294,109.6552) scale(0.87676,0.87676)" font-size="40" xml:space="preserve" fill="#9c9c9c" stroke="none" stroke-width="1" font-family="&quot;Comic Sans MS&quot;, Sans Serif" font-weight="normal" text-anchor="start"><tspan x="0" dy="0">OCTOBER</tspan></text><path d="M200.65423,172.37922c-0.9452,-1.88955 0.94522,-2.83432 0.94522,-2.83432l0.28875,-0.13292c4.8185,-3.03249 9.72496,-6.10029 14.22929,-9.61436c-1.78095,-2.53551 -3.48961,-5.11092 -5.07991,-7.74524c-1.60353,-2.65621 -3.01426,-5.47998 -4.65683,-8.14794c0,0 -1.10771,-1.7992 0.69231,-2.9064c1.80001,-1.1072 2.90772,0.692 2.90772,0.692c1.66865,2.71032 3.10877,5.58411 4.73668,8.28324c1.46013,2.42096 3.02408,4.79155 4.65396,7.12678c3.93605,-3.47186 7.53425,-7.33115 11.70005,-10.57156c0,0 1.66833,-1.297 2.96592,0.37056c1.29759,1.66756 -0.37074,2.96458 -0.37074,2.96458c-4.21309,3.27345 -7.83492,7.18978 -11.82544,10.68763c4.13299,5.64758 8.54917,11.12735 12.69039,16.66029l0.43237,0.78951c0,0 0.94522,1.88955 -0.9452,2.83432c-1.89042,0.94477 -2.8356,-0.94477 -2.8356,-0.94477l-0.0373,-0.14941c-4.10051,-5.48814 -8.45833,-10.92122 -12.5603,-16.51034c-4.58118,3.55767 -9.55377,6.67825 -14.44511,9.75659l-0.6506,0.33654c0,0 -1.89042,0.94477 -2.83562,-0.94477z" fill="#ff0000" stroke="none" stroke-width="0.5"/><path d="M257.40219,150.02342c-0.54363,-0.14594 -1.3217,-0.5637 -1.3217,-1.75953c0,-1.83788 1.83788,-1.83788 1.83788,-1.83788l1.82033,0.6613c2.31525,2.77829 4.68318,5.49509 7.05944,8.20009c0.47898,-0.38851 0.96379,-0.77028 1.45549,-1.14397c2.49036,-1.89277 7.90432,-3.29984 8.28349,-6.64839c0,0 0.36045,-1.8022 2.16264,-1.44175c1.8022,0.36045 1.44175,2.16263 1.44175,2.16263c-1.24441,5.05083 -5.88531,5.96783 -9.68692,8.87152c-0.41332,0.31569 -0.82192,0.63683 -1.22643,0.96273c4.02004,4.57137 8.02064,9.15748 11.78715,13.99892c0,0 1.12836,1.45074 -0.32238,2.57909c-1.45074,1.12836 -2.57909,-0.32239 -2.57909,-0.32239c-3.73368,-4.80162 -7.69995,-9.34891 -11.68675,-13.88072c-5.05821,4.48104 -9.67046,9.48139 -15.20269,13.43272l-0.1748,0.21081c0,0 -1.29957,1.29957 -2.59915,0c-1.29957,-1.29957 0,-2.59915 0,-2.59915l0.64204,-0.60602c5.43662,-3.85755 9.96144,-8.77339 14.91245,-13.19087c-2.22006,-2.52577 -4.43316,-5.06172 -6.60271,-7.64912z" fill="#ff0000" stroke="none" stroke-width="0.5"/><path d="M303.61398,173.12618c-1.87552,-1.87552 0,-3.75103 0,-3.75103l1.76825,-1.76825c2.27283,-2.27283 4.57229,-4.54325 6.86982,-6.82587c-3.86364,-5.02089 -7.38479,-10.34255 -10.78602,-15.83685c0,0 -1.39609,-2.25521 0.85913,-3.6513c2.25521,-1.39609 3.65131,0.85913 3.65131,0.85913c3.20302,5.17411 6.50653,10.12616 10.10148,14.80753c5.23259,-5.26484 10.3721,-10.63601 15.07651,-16.28828c0,0 1.69801,-2.03761 3.73562,-0.33961c2.03761,1.69801 0.3396,3.73562 0.3396,3.73562c-4.93767,5.91826 -10.3323,11.53867 -15.81579,17.05092c4.29062,5.11265 9.029,9.85921 14.49258,14.16898l1.99694,2.62388c0,0 1.59142,2.1219 -0.53047,3.71332c-2.12189,1.59143 -3.71332,-0.53047 -3.71332,-0.53047l-1.53957,-2.09144c-5.46972,-4.21257 -10.225,-8.95192 -14.52826,-14.06699c-2.15969,2.14688 -4.31992,4.28387 -6.4585,6.42245l-1.76825,1.76825c0,0 -1.87551,1.87552 -3.75103,0z" fill="#ff0000" stroke="none" stroke-width="0.5"/><path d="M351.12428,174.5782c-1.59389,-0.91506 -0.67883,-2.50895 -0.67883,-2.50895l1.74503,-3.03892c1.71242,-2.73792 3.66393,-5.84066 5.85755,-8.88433c-3.25702,-3.95092 -6.2962,-8.07828 -9.15919,-12.26265c0,0 -1.03783,-1.51681 0.479,-2.55464c1.51681,-1.03783 2.55464,0.479 2.55464,0.479c2.63614,3.85284 5.42472,7.66385 8.40233,11.32709c3.97214,-4.98647 8.63558,-9.40273 14.00477,-11.216c0,0 1.74356,-0.5812 2.32476,1.16238c0.5812,1.74358 -1.16238,2.32476 -1.16238,2.32476c-4.84569,1.59047 -9.14225,5.83992 -12.79443,10.56737c4.09111,4.75543 8.53291,9.20105 13.41121,13.08823l1.17378,0.93685c0,0 1.43645,1.14649 0.28994,2.58293c-1.14649,1.43645 -2.58293,0.28996 -2.58293,0.28996l-1.17378,-0.93684c-4.83309,-3.86352 -9.25552,-8.24377 -13.34187,-12.92707c-1.9342,2.76826 -3.65033,5.54244 -5.13046,7.91245l-1.71022,2.97956c0,0 -0.91506,1.59389 -2.50895,0.67883z" fill="#ff0000" stroke="none" stroke-width="0.5"/><path d="M207.6438,227.1237c-0.06952,0.49221 -0.38512,1.60974 -1.81825,1.60974c-1.83788,0 -1.83788,-1.83788 -1.83788,-1.83788l0.36758,-1.51115c3.45224,-4.58262 6.9924,-9.27412 10.44503,-14.06425c-4.67094,-4.89268 -9.52392,-9.65193 -14.01658,-14.64336c0,0 -1.22948,-1.36608 0.13661,-2.59556c1.36609,-1.22948 2.59556,0.13661 2.59556,0.13661c4.31428,4.79404 8.95409,9.37584 13.45158,14.06419c4.54992,-6.44995 8.87796,-13.0718 12.56658,-19.84105c0,0 0.88007,-1.61347 2.49354,-0.7334c1.61347,0.88008 0.7334,2.49355 0.7334,2.49355c-3.88093,7.10818 -8.45228,14.03215 -13.23873,20.77752c2.24473,2.40419 4.42992,4.85141 6.49451,7.38326c2.61219,3.20337 4.52712,6.98628 7.00948,10.28985l0.58196,1.09763c0,0 0.82192,1.64386 -0.82193,2.46578c-1.64385,0.82192 -2.46578,-0.82193 -2.46578,-0.82193l-0.23487,-0.53603c-2.44649,-3.26767 -4.34106,-7.00911 -6.91817,-10.17311c-1.85726,-2.28022 -3.81436,-4.49108 -5.82552,-6.66341c-3.21587,4.44559 -6.49502,8.81272 -9.6981,13.10302z" fill="#ff0000" stroke="none" stroke-width="0.5"/><path d="M246.79385,225.12602c-2.86767,-1.11076 -0.95589,-2.77688 -0.95589,-2.77688l1.47516,-1.28396c4.78316,-4.45453 10.29334,-8.67779 15.65643,-12.93027c-5.40092,-4.75268 -11.24412,-9.34502 -15.13408,-14.59032c0,0 -1.35764,-1.84053 1.81018,-2.62933c3.16783,-0.7888 4.52547,1.05174 4.52547,1.05174c3.34121,4.55667 8.29444,8.61347 13.08207,12.72103c4.82009,-3.9583 9.31414,-8.00128 12.79422,-12.33405c0,0 1.45746,-1.81458 4.58062,-0.96779c3.12317,0.84679 1.66568,2.66139 1.66568,2.66139c-4.03045,5.01798 -9.36948,9.64515 -15.00862,14.19593c0.62019,0.57041 1.22782,1.14469 1.81839,1.72424c4.1576,4.0801 7.24154,8.07861 12.57441,11.66979l0.91359,1.57893c0,0 0.41893,1.98759 -3.002,2.231c-3.03035,0.21562 -3.70508,-1.31938 -3.81965,-1.67271c-5.17636,-3.6723 -8.38111,-7.62595 -12.57237,-11.742c-0.09947,-0.09769 -0.19937,-0.19523 -0.29969,-0.29262c-4.74131,3.75238 -9.51079,7.50775 -13.73609,11.44453l-1.58842,1.38597c0,0 -1.91175,1.66614 -4.77941,0.55538z" fill="#ff0000" stroke="none" stroke-width="0.5"/><path d="M428.89633,181.63542c-1.29959,1.29957 -2.59916,0 -2.59916,0l-0.54398,-0.55988c-4.52369,-5.66205 -8.59534,-11.59081 -12.3529,-17.71252c-3.10935,3.22056 -6.04311,6.60601 -8.91686,9.84175l-1.07684,1.59956c-0.328,0.50257 -0.89531,0.83471 -1.5402,0.83471c-0.82675,0 -1.52602,-0.5459 -1.75697,-1.2969l-0.80343,-2.41032c0,0 -0.58118,-1.74356 1.16238,-2.32475c0.94186,-0.31395 1.54453,0.05048 1.89964,0.45199c2.92501,-3.31297 5.91648,-6.71423 9.08449,-9.9327c-3.41464,-5.78546 -6.5758,-11.72834 -9.59626,-17.76836c0,0 -0.82193,-1.64385 0.82193,-2.46578c1.64385,-0.82192 2.46578,0.82192 2.46578,0.82192c2.84468,5.6902 5.81296,11.29713 9.00689,16.76399c4.54742,-4.29749 9.49449,-8.09668 15.13595,-10.6721c0,0 1.67315,-0.76053 2.43367,0.91262c0.76052,1.67315 -0.91263,2.43367 -0.91263,2.43367c-5.5068,2.49132 -10.32067,6.27714 -14.74159,10.54121c3.80392,6.26051 7.93698,12.31843 12.55728,18.08575l0.27284,0.25695c0,0 1.29957,1.29957 0,2.59916z" fill="#ff0000" stroke="none" stroke-width="0.5"/><path d="M296.63257,272.44175c-0.9452,-1.88955 0.94522,-2.83432 0.94522,-2.83432l0.28875,-0.13292c4.8185,-3.03249 9.72496,-6.10029 14.22929,-9.61436c-1.78095,-2.53551 -3.48961,-5.11092 -5.07991,-7.74524c-1.60353,-2.65621 -3.01426,-5.47998 -4.65683,-8.14794c0,0 -1.1077,-1.7992 0.69231,-2.9064c1.80001,-1.1072 2.90772,0.692 2.90772,0.692c1.66865,2.71032 3.10877,5.58409 4.73668,8.28324c1.46013,2.42096 3.02408,4.79155 4.65396,7.12678c3.93605,-3.47186 7.53425,-7.33115 11.70005,-10.57156c0,0 1.66833,-1.297 2.96592,0.37056c1.29759,1.66756 -0.37074,2.96458 -0.37074,2.96458c-4.21309,3.27345 -7.83492,7.18978 -11.82544,10.68763c4.13299,5.64758 8.54917,11.12735 12.69039,16.66029l0.43237,0.78951c0,0 0.94522,1.88955 -0.9452,2.83432c-1.89042,0.94477 -2.8356,-0.94477 -2.8356,-0.94477l-0.0373,-0.14941c-4.10051,-5.48814 -8.45833,-10.92122 -12.5603,-16.51034c-4.58118,3.55767 -9.55379,6.67825 -14.44513,9.75659l-0.65058,0.33654c0,0 -1.89042,0.94477 -2.83562,-0.94477z" fill="#ff0000" stroke="none" stroke-width="0.5"/><path d="M268.97704,258.55191c4.95099,4.41748 9.47583,9.33331 14.91245,13.19087l0.64204,0.60602c0,0 1.29957,1.29957 0,2.59915c-1.29957,1.29957 -2.59915,0 -2.59915,0l-0.1748,-0.21081c-5.53223,-3.95132 -10.14448,-8.95168 -15.20269,-13.43272c-3.98678,4.53181 -7.95306,9.0791 -11.68675,13.88072c0,0 -1.12834,1.45074 -2.57908,0.32239c-1.45074,-1.12836 -0.32239,-2.57908 -0.32239,-2.57908c3.7665,-4.84144 7.76711,-9.42756 11.78715,-13.99892c-0.40451,-0.32589 -0.81311,-0.64704 -1.22643,-0.96273c-3.80161,-2.90369 -8.44251,-3.82069 -9.68692,-8.87151c0,0 -0.36045,-1.8022 1.44175,-2.16263c1.8022,-0.36045 2.16264,1.44175 2.16264,1.44175c0.37916,3.34856 5.79312,4.75562 8.28349,6.64839c0.4917,0.37371 0.9765,0.75546 1.45549,1.14397c2.37625,-2.705 4.74418,-5.4218 7.05943,-8.20009l1.82033,-0.6613c0,0 1.83788,0 1.83788,1.83788c0,1.19583 -0.77807,1.61357 -1.3217,1.75952c-2.16954,2.5874 -4.38265,5.12337 -6.60271,7.64912z" fill="#ff0000" stroke="none" stroke-width="0.5"/><path d="M381.27765,299.86089c1.87552,1.87552 0,3.75103 0,3.75103l-1.76825,1.76823c-2.27283,2.27283 -4.57227,4.54325 -6.86982,6.82587c3.86366,5.02089 7.38479,10.34255 10.78602,15.83685c0,0 1.39607,2.25521 -0.85914,3.6513c-2.25521,1.39609 -3.65131,-0.85913 -3.65131,-0.85913c-3.20302,-5.17411 -6.50653,-10.12616 -10.10148,-14.80753c-5.2326,5.26484 -10.3721,10.63601 -15.07651,16.28828c0,0 -1.69801,2.03761 -3.73561,0.33961c-2.03761,-1.698 -0.3396,-3.73562 -0.3396,-3.73562c4.93769,-5.91826 10.33231,-11.53867 15.81579,-17.05092c-4.29062,-5.11265 -9.02899,-9.85921 -14.49258,-14.16898l-1.99694,-2.62389c0,0 -1.59143,-2.1219 0.53047,-3.71332c2.12189,-1.59143 3.71332,0.53047 3.71332,0.53047l1.53956,2.09145c5.46973,4.21259 10.225,8.95192 14.52827,14.06699c2.15969,-2.14688 4.31994,-4.28387 6.4585,-6.42245l1.76823,-1.76825c0,0 1.87551,-1.87552 3.75103,0z" fill="#ff0000" stroke="none" stroke-width="0.5"/><path d="M250.34006,325.7964l0.33291,-0.17219c6.02601,-4.27743 11.66326,-8.96806 17.03963,-13.94384c-3.08054,-5.31385 -6.67022,-10.27569 -11.28157,-14.18299c0,0 -1.4001,-1.19061 -0.2095,-2.59071c1.1906,-1.4001 2.59069,-0.20949 2.59069,-0.20949c4.71776,4.02513 8.43185,9.0364 11.62487,14.41712c4.57195,-4.38009 8.96537,-8.9568 13.26278,-13.6475c0,0 1.2416,-1.35508 2.59668,-0.11346c1.35508,1.24161 0.11348,2.59669 0.11348,2.59669c-4.56249,4.97883 -9.2336,9.82563 -14.10524,14.45147c2.16281,3.96449 4.10565,8.05626 6.00885,12.04491c0.45168,-0.28861 1.13122,-0.4736 1.95073,0.08684c1.51705,1.03749 0.47954,2.55453 0.47954,2.55453l-1.43423,2.09717c-0.42826,0.65876 -1.2505,0.99172 -2.04549,0.76477c-0.62012,-0.17704 -1.07446,-0.65217 -1.25189,-1.22546l-0.59637,-1.83371c-1.87511,-3.90031 -3.76681,-7.96103 -5.87262,-11.91144c-5.29369,4.85504 -10.83644,9.43834 -16.74064,13.64106l-0.67678,0.38903c0,0 -1.6064,0.8929 -2.49932,-0.7135c-0.8929,-1.6064 0.7135,-2.49932 0.7135,-2.49932z" fill="#ff0000" stroke="none" stroke-width="0.5"/><path d="M413.14873,258.14349c4.95099,4.41748 9.47583,9.33331 14.91245,13.19087l0.64202,0.60602c0,0 1.29959,1.29957 0,2.59915c-1.29957,1.29957 -2.59916,0 -2.59916,0l-0.1748,-0.21081c-5.53223,-3.95132 -10.1445,-8.95168 -15.20269,-13.43272c-3.98678,4.53181 -7.95306,9.0791 -11.68675,13.88072c0,0 -1.12836,1.45074 -2.57908,0.32239c-1.45074,-1.12836 -0.32239,-2.57909 -0.32239,-2.57909c3.76651,-4.84144 7.76711,-9.42755 11.78715,-13.99892c-0.40451,-0.32589 -0.81311,-0.64704 -1.22643,-0.96273c-3.80161,-2.90369 -8.44251,-3.82069 -9.68692,-8.87151c0,0 -0.36045,-1.80218 1.44175,-2.16263c1.8022,-0.36045 2.16263,1.44175 2.16263,1.44175c0.37916,3.34856 5.79312,4.75562 8.28349,6.64839c0.4917,0.37371 0.97649,0.75546 1.45549,1.14397c2.37627,-2.705 4.74419,-5.4218 7.05944,-8.20009l1.82033,-0.6613c0,0 1.83788,0 1.83788,1.83788c0,1.19583 -0.77807,1.61359 -1.3217,1.75953c-2.16954,2.5874 -4.38266,5.12337 -6.60272,7.64912z" fill="#ff0000" stroke="none" stroke-width="0.5"/><path d="M375.92662,242.18513c0.06952,-0.49221 0.38512,-1.60972 1.81825,-1.60972c1.83788,0 1.83788,1.83788 1.83788,1.83788l-0.36758,1.51115c-3.45224,4.58262 -6.9924,9.27412 -10.44503,14.06423c4.67094,4.89268 9.52392,9.65193 14.01658,14.64336c0,0 1.22948,1.36608 -0.13661,2.59556c-1.36609,1.22948 -2.59558,-0.13661 -2.59558,-0.13661c-4.31428,-4.79404 -8.95409,-9.37584 -13.45158,-14.06419c-4.54992,6.44995 -8.87797,13.0718 -12.56658,19.84105c0,0 -0.88008,1.61347 -2.49354,0.73339c-1.61347,-0.88008 -0.7334,-2.49354 -0.7334,-2.49354c3.88093,-7.10818 8.45226,-14.03215 13.23873,-20.77752c-2.24473,-2.40419 -4.42992,-4.85141 -6.49451,-7.38326c-2.61219,-3.20337 -4.52712,-6.98628 -7.00947,-10.28985l-0.58198,-1.09763c0,0 -0.82193,-1.64386 0.82193,-2.46578c1.64386,-0.82192 2.46578,0.82193 2.46578,0.82193l0.23488,0.53603c2.44647,3.26767 4.34106,7.00911 6.91819,10.17311c1.85726,2.28022 3.81434,4.49108 5.82552,6.66341c3.21587,-4.44559 6.49502,-8.81272 9.69811,-13.10302z" fill="#ff0000" stroke="none" stroke-width="0.5"/><path d="M231.26279,251.02194c1.59389,0.91506 0.67883,2.50895 0.67883,2.50895l-1.74502,3.03892c-1.71242,2.73792 -3.66394,5.84067 -5.85757,8.88434c3.25702,3.95092 6.2962,8.07828 9.15919,12.26265c0,0 1.03782,1.51681 -0.479,2.55464c-1.51681,1.03783 -2.55463,-0.479 -2.55463,-0.479c-2.63614,-3.85284 -5.42472,-7.66384 -8.40235,-11.32708c-3.97212,4.98647 -8.63557,9.40273 -14.00476,11.216c0,0 -1.74358,0.5812 -2.32476,-1.16238c-0.5812,-1.74358 1.16238,-2.32476 1.16238,-2.32476c4.84569,-1.59047 9.14225,-5.83992 12.79443,-10.56736c-4.09113,-4.75543 -8.53289,-9.20105 -13.41121,-13.08823l-1.17378,-0.93685c0,0 -1.43645,-1.14649 -0.28994,-2.58293c1.14649,-1.43645 2.58293,-0.28996 2.58293,-0.28996l1.17378,0.93684c4.83309,3.86352 9.25552,8.24377 13.34187,12.92707c1.9342,-2.76826 3.65033,-5.54244 5.13046,-7.91245l1.7102,-2.97956c0,0 0.91506,-1.59389 2.50895,-0.67883z" fill="#ff0000" stroke="none" stroke-width="0.5"/><path d="M236.96893,297.69777c2.66972,1.11076 0.8899,2.77688 0.8899,2.77688l-1.37333,1.28396c-4.45301,4.45453 -9.58285,8.67779 -14.57577,12.93026c5.02812,4.75266 10.46802,9.34502 14.08948,14.59034c0,0 1.26392,1.84053 -1.68525,2.62933c-2.94917,0.7888 -4.2131,-1.05174 -4.2131,-1.05174c-3.11058,-4.55667 -7.72193,-8.61345 -12.17909,-12.72102c-4.48739,3.95829 -8.67125,8.00128 -11.91111,12.33403c0,0 -1.35686,1.81458 -4.26445,0.96779c-2.90759,-0.84681 -1.55072,-2.66139 -1.55072,-2.66139c3.75225,-5.01796 8.72277,-9.64514 13.97267,-14.19593c-0.57739,-0.57041 -1.14308,-1.14469 -1.69288,-1.72424c-3.87063,-4.0801 -6.74171,-8.07861 -11.70649,-11.66979l-0.85053,-1.57893c0,0 -0.39003,-1.98759 2.79477,-2.231c2.82118,-0.21562 3.44934,1.31938 3.55599,1.67271c4.81908,3.6723 7.80262,7.62595 11.70459,11.742c0.0926,0.09769 0.18563,0.19523 0.27902,0.29262c4.41405,-3.75238 8.85432,-7.50775 12.78798,-11.44453l1.47878,-1.38597c0,0 1.77979,-1.66614 4.44951,-0.55538z" fill="#ff0000" stroke="none" stroke-width="0.5"/><path d="M402.23531,190.06673c1.29957,-1.29957 2.59916,0 2.59916,0l0.54398,0.55988c4.52369,5.66205 8.59534,11.59081 12.3529,17.71252c3.10935,-3.22056 6.04311,-6.60601 8.91685,-9.84175l1.07684,-1.59956c0.328,-0.50257 0.89531,-0.83471 1.54022,-0.83471c0.82675,0 1.526,0.5459 1.75697,1.2969l0.80343,2.41032c0,0 0.5812,1.74356 -1.16238,2.32475c-0.94186,0.31395 -1.54453,-0.05048 -1.89962,-0.45199c-2.92503,3.31297 -5.91648,6.71423 -9.08449,9.9327c3.41464,5.78546 6.5758,11.72834 9.59628,17.76836c0,0 0.82192,1.64385 -0.82193,2.46578c-1.64386,0.82192 -2.46578,-0.82192 -2.46578,-0.82192c-2.84468,-5.69019 -5.81296,-11.29713 -9.00689,-16.76399c-4.54741,4.29749 -9.49449,8.09668 -15.13595,10.6721c0,0 -1.67315,0.76053 -2.43367,-0.91262c-0.76052,-1.67315 0.91262,-2.43367 0.91262,-2.43367c5.50681,-2.49132 10.32067,-6.27714 14.74159,-10.54121c-3.80392,-6.26051 -7.93698,-12.31843 -12.55728,-18.08575l-0.27284,-0.25697c0,0 -1.29959,-1.29957 0,-2.59915z" fill="#ff0000" stroke="none" stroke-width="0.5"/><path d="M313.41841,214.09267c-4.24729,-6.24845 -7.99976,-13.02431 -12.80975,-18.68148l-0.5459,-0.8505c0,0 -1.09428,-1.80993 0.38235,-3.1512c1.47663,-1.34129 2.57089,0.46866 2.57089,0.46866l0.14188,0.28712c4.89078,5.78811 8.71729,12.68219 13.06125,19.02704c4.61007,-4.77548 9.20213,-9.57343 13.60154,-14.72166c0,0 1.32948,-1.55541 2.59844,0.07418c1.26896,1.6296 -0.06052,3.18501 -0.06052,3.18501c-4.43774,5.19059 -9.06947,10.02942 -13.71825,14.84686c0.35217,0.46804 0.70908,0.93109 1.07146,1.38835c3.3331,4.2059 7.78862,6.1545 8.27649,12.50249c0,0 0.09139,2.24997 -1.74421,2.362c-1.8356,0.11204 -1.92701,-2.13794 -1.92701,-2.13794c0.11755,-4.12815 -5.03051,-6.81028 -7.21535,-9.55411c-0.43137,-0.54173 -0.85473,-1.09198 -1.27136,-1.64939c-2.74833,2.85107 -5.49015,5.71793 -8.18892,8.66885l-1.8978,0.47353c0,0 -1.81789,-0.33141 -1.54753,-2.55964c0.17591,-1.44981 1.00697,-1.816 1.56616,-1.89492c2.52656,-2.74577 5.08866,-5.42131 7.65612,-8.08323z" fill="#ff0000" stroke="none" stroke-width="0.5"/><path d="M377.26657,227.63591l-0.52224,-0.51361c-3.76454,-4.38516 -7.59425,-8.83464 -10.92095,-13.58622c-5.56915,4.12903 -11.33671,8.03342 -16.87466,12.06641l-0.07975,0.13174c0,0 -1.46091,1.5263 -2.98815,0.06555c-1.52724,-1.46075 -0.06631,-2.98705 -0.06631,-2.98705l0.64618,-0.62667c5.59009,-4.06377 11.42718,-7.99554 17.04323,-12.17126c-2.78003,-4.52003 -5.08423,-9.33105 -8.14316,-13.70239c0,0 -1.21106,-1.73173 0.52099,-2.94189c1.73207,-1.21017 2.94313,0.52155 2.94313,0.52155c3.02349,4.32582 5.32195,9.07536 8.05762,13.55449c2.24664,-1.74996 4.44072,-3.5532 6.55051,-5.43519c2.35218,-2.09824 4.57653,-4.41879 6.97094,-6.51568c0,0 1.5895,-1.392 2.98241,0.19726c1.39291,1.58925 -0.19658,2.98124 -0.19658,2.98124c-2.357,2.06413 -4.5385,4.34556 -6.85472,6.40999c-2.29713,2.04742 -4.68995,4.00361 -7.14006,5.90034c3.26615,4.68723 7.04824,9.06676 10.75672,13.38661l0.23665,0.21224c0,0 1.52724,1.46075 0.06633,2.98705c-1.46091,1.52628 -2.98815,0.06555 -2.98815,0.06555z" fill="#ff0000" stroke="none" stroke-width="0.5"/><path d="M300.05193,299.89597c1.09997,-1.91596 3.01592,-0.81601 3.01592,-0.81601l3.65298,2.09764c3.29116,2.05844 7.02087,4.4043 10.67957,7.04119c4.74927,-3.91516 9.71065,-7.56846 14.74056,-11.00996c0,0 1.82331,-1.24753 3.07085,0.57579c1.24754,1.82331 -0.57579,3.07085 -0.57579,3.07085c-4.63136,3.16882 -9.21247,6.5209 -13.61593,10.10018c5.99407,4.77478 11.30272,10.38054 13.4824,16.83467c0,0 0.69863,2.09589 -1.39726,2.79452c-2.09589,0.69863 -2.79452,-1.39726 -2.79452,-1.39726c-1.91185,-5.82485 -7.01999,-10.9896 -12.7027,-15.37977c-5.71635,4.91781 -11.06029,10.25712 -15.73296,16.12119l-1.12615,1.41095c0,0 -1.37815,1.7267 -3.10486,0.34854c-1.72671,-1.37816 -0.34855,-3.10486 -0.34855,-3.10486l1.12615,-1.41095c4.64421,-5.8097 9.90957,-11.12576 15.53921,-16.03784c-3.32764,-2.32504 -6.66238,-4.38792 -9.51131,-6.16716l-3.58162,-2.0558c0,0 -1.91597,-1.09997 -0.81601,-3.01592z" fill="#ff0000" stroke="none" stroke-width="0.5"/><path d="M393.10997,310.20524c-0.09023,0 -0.17595,-0.0057 -0.25735,-0.01656c-2.09666,6.69811 1.62723,14.64844 7.00195,17.59672c4.08136,2.23882 8.87618,2.06927 13.21272,2.27733c6.6208,-0.77726 12.30383,-1.44228 18.19691,-5.6227c0.86501,-0.61362 1.97777,-0.82349 2.62567,-1.77063c2.15247,-3.14659 1.45807,-11.16432 0.32486,-14.56119c-4.01992,-12.04996 -15.44097,-17.56794 -25.16228,-15.51428c-4.08897,1.41848 -7.91856,2.5959 -11.5654,5.4218c-0.55723,0.4318 -1.77732,1.23068 -2.14868,2.18345c5.73543,-4.21055 13.68374,-3.84526 19.92509,-4.2024c0,0 1.79404,-0.10266 1.8756,2.15582c0.08156,2.25848 -1.7125,2.36114 -1.7125,2.36114c-6.35771,0.3638 -15.53962,-0.47938 -20.46774,5.70802c-0.01775,0.02228 -0.03539,0.04458 -0.05293,0.06691v1.65577c0,0 0,2.2608 -1.79591,2.2608zM391.31211,304.60776c-0.01459,-2.22362 -0.06896,-3.94477 0.74831,-6.25261c2.3766,-6.71111 11.33265,-8.49053 16.21983,-10.17712c13.17387,-2.74743 31.48132,7.7119 30.27723,27.35101c-0.19643,3.20394 -0.15498,7.31297 -1.90415,10.02875c-0.88346,1.37169 -2.37572,1.87917 -3.57871,2.78748c-6.28312,4.744 -12.78545,5.41992 -19.90873,6.23736c-4.90675,-0.22255 -10.22022,-0.13737 -14.82779,-2.69839c-8.30476,-4.61603 -12.80359,-17.91024 -7.02596,-27.27646z" fill="#ff0000" stroke="none" stroke-width="0.5"/><text transform="translate(398.19064,322.46544) scale(0.73515,0.73515)" font-size="40" xml:space="preserve" fill="#000000" stroke="none" stroke-width="1" font-family="Sans Serif" font-weight="normal" text-anchor="start"><tspan x="0" dy="0">31</tspan></text></g><text transform="translate(9.72866,99.56752) scale(0.5,0.5)" font-size="40" xml:space="preserve" fill="#ffffff" stroke="none" stroke-width="1" font-family="&quot;Comic Sans MS&quot;, Sans Serif" font-weight="normal" text-anchor="start"><tspan x="0" dy="0">It's almost </tspan><tspan x="0" dy="48px">No Nut November!</tspan></text></g></g></svg>