<svg version="1.1" xmlns="http://www.w3.org/2000/svg" xmlns:xlink="http://www.w3.org/1999/xlink" width="181.22774" height="343.48192" viewBox="0,0,181.22774,343.48192"><g transform="translate(-174.01781,-104.82747)"><g stroke="none" stroke-miterlimit="10"><path d="M174.01782,448.30939v-60.61631c1.78032,-1.46206 3.21245,-3.81428 3.21245,-7.59861c0,-3.78434 -1.43213,-6.13656 -3.21245,-7.59862v-19.23136c2.57552,-0.14423 5.16842,-0.1979 7.71062,-0.6307c2.35127,-0.4003 4.48897,-1.75501 6.85606,-2.04762c6.05771,-0.74883 12.40014,0.27448 18.39385,-0.55009l1.45565,1.16452c1.72096,1.4011 3.91696,2.24107 6.30915,2.24107c5.52284,0 10,-4.47715 10,-10v-2.71502c0,-8.09677 0.84394,-16.70711 -0.04866,-24.74182c-0.37482,-3.3739 -1.79838,-6.63672 -2.02167,-10.02076c-0.13625,-2.06477 0.29128,-4.17418 -0.09505,-6.20706c-0.54459,-2.86557 -1.65366,-5.59913 -2.66834,-8.33381c-0.17011,-0.45846 -0.76727,-0.70634 -0.86382,-1.18571c-0.44993,-2.23395 0.41425,-4.56251 0.21884,-6.83292c-0.38564,-4.48057 -0.63008,-8.70562 -0.63008,-13.26849c0,-4.49236 -0.33134,-8.78003 -0.72743,-13.20298c-0.16824,-1.87866 0.17448,-3.79584 -0.13177,-5.65698c-0.19782,-1.20224 -1.13375,-2.1961 -1.35751,-3.39378c-0.77033,-4.12309 -0.11521,-8.70595 -0.57324,-12.90587c-0.61866,-5.67291 -2.81189,-11.30746 -3.39378,-16.96889c-0.48341,-4.70323 -0.4718,-9.40779 -1.57746,-14.08504c-0.74955,-3.17078 -1.76298,-6.23427 -2.46881,-9.43494c-0.07295,-1.79489 0.14725,-3.62601 -0.21884,-5.38469c-0.48869,-2.34767 -2.3036,-4.55844 -2.52244,-7.06937c-0.23573,-2.70477 0.25436,-5.44199 0,-8.14507c-0.34739,-3.69173 -1.78683,-8.90604 -0.78427,-12.49846c0.32752,-1.17356 1.15991,-2.19151 1.35751,-3.39378c0.32254,-1.96245 0.1421,-3.9752 0.18044,-5.96361c0.07718,-4.00237 -0.25754,-8.22807 -0.31632,-12.40479c2.4237,-2.74382 4.90075,-5.43973 7.5936,-7.95011c4.1343,-3.85416 9.3566,-7.07005 13.77065,-10.68871c4.3393,-3.55737 13.1981,-9.50527 16.98382,-15.42769c1.62491,0.17915 3.25371,0.44725 4.87794,0.7214c4.14129,2.4241 8.95124,3.69503 13.20876,5.82378c3.28577,1.64288 8.70342,5.34762 13.10741,4.83969c-0.26905,0.22442 1.23409,0.75643 3.97757,3.46844c2.70415,2.67313 4.44678,6.16917 6.65532,9.26439c0.71143,0.99705 1.91637,1.57583 2.61359,2.58286c3.29477,4.75873 5.35517,9.86401 9.35602,14.22237c0.89742,0.97762 1.72438,2.08795 2.71736,2.9654c-0.65434,3.02651 -0.50216,5.36408 -0.51479,8.69178c-0.04555,11.99097 0,23.98297 0,35.97404c0.13707,6.35588 -2.62999,11.609 -3.33407,17.91399c-0.24016,2.15057 0.28472,4.34201 0.03695,6.49171c-0.16971,1.4725 -1.02681,2.79855 -1.27612,4.25968c-0.46038,2.69819 -0.66995,5.4364 -0.84438,8.16803c-0.1205,1.88704 0.87651,3.88106 0.25509,5.66692c-1.13143,3.25157 -1.93009,6.38952 -2.22885,9.89952c-0.0849,0.9974 0.39262,2.01602 0.19259,2.99684c-0.2022,0.99142 -1.16547,1.72158 -1.35751,2.71502c-1.96656,10.1731 1.13904,20.99419 -0.8976,31.17739c-0.01979,2.05712 0.55464,4.1693 0.08046,6.17111c-0.32983,1.39241 -1.0847,2.66783 -1.35751,4.07253c-0.30994,1.59586 0.10747,3.31453 -0.39332,4.86115c-0.47584,1.46958 -1.32561,2.83056 -1.59164,4.35217c-0.27276,1.56009 0.24885,3.1872 0,4.75129c-0.14882,0.93539 -0.9214,1.67582 -1.16807,2.59029c-0.70058,2.59722 -0.42264,5.42272 -1.30499,7.96394c-1.39988,4.03174 -3.38218,7.98313 -3.7821,12.23221c-0.46947,4.98801 -0.6623,10.98672 -0.25858,16.38079c-0.52227,1.50177 -0.90035,3.12012 -1.11368,4.86406c-0.24435,1.99743 0.56909,3.98421 0.85362,5.97632c0,0 0.88603,4.43013 4.4447,6.73942c1.59241,2.40382 4.5093,4.74685 9.72012,3.87838c9.86394,-1.64399 8.21994,-11.50793 8.21994,-11.50793c-0.29848,-1.68361 -0.30519,-3.41249 -0.46022,-5.1164c1.24325,-0.65689 2.35237,-1.55964 3.60541,-2.20096c1.0649,-0.54503 2.40337,0.07671 3.58762,-0.09247c2.28413,-0.3263 4.49067,-1.1383 6.78756,-1.35751c5.91888,-0.5649 11.91677,-0.46351 17.77659,-1.47091c2.34285,-0.40278 4.65369,-1.22373 7.03074,-1.19545c1.27346,0.01515 3.57976,0.98482 3.81127,-0.26751c0.0038,-0.02056 2.58823,2.95284 2.88896,3.62911c0.71067,1.59814 1.03838,3.3404 1.55757,5.0106c0.68309,1.70285 1.21243,3.54519 2.37238,4.96675l-0.26751,0.41749c0,0 0,4.69055 3.21245,7.64676v81.60958z" fill="#633b29" stroke-width="NaN"/><path d="M301.50793,151.87511c-2.17705,0 -2.45828,-1.89582 -2.49461,-2.38562c-0.3609,-1.54955 -0.75537,-3.09167 -1.18406,-4.6238c-2.62715,-4.83689 -6.80367,-8.50427 -10.58633,-12.4505c-3.82139,-3.98664 -7.97156,-10.30352 -13.08841,-12.70849c-2.60315,-1.22351 -5.35887,-1.9536 -7.93015,-3.38317c-5.2903,-2.94127 -9.44482,-5.52151 -15.63436,-6.50069c-2.57063,0.18423 -5.24281,-0.10438 -7.7294,0.67244c-4.80602,1.50143 -9.22819,5.44755 -12.85931,8.79395c-4.34331,4.00276 -9.19559,7.97215 -12.74864,12.72073c-3.35465,4.48344 -6.19271,9.35455 -9.23157,14.05106c0,0 -1.35813,2.09892 -3.45706,0.74079c-2.09893,-1.35813 -0.74079,-3.45705 -0.74079,-3.45705c3.10978,-4.80591 6.01435,-9.79084 9.45729,-14.37159c3.74218,-4.97888 8.76852,-9.16889 13.33792,-13.36582c4.20317,-3.86055 9.23378,-8.18058 14.78464,-9.89491c3.07217,-0.94881 6.23531,-0.68774 9.40206,-0.88496c4.22403,0.63694 8.98379,1.70547 12.77191,3.80809c1.76797,0.98132 3.31001,2.33716 5.07795,3.31852c3.42879,1.90328 7.2521,2.70925 10.40356,5.04842c3.61996,2.68692 6.34877,6.38381 9.45421,9.61288c4.99884,5.19784 10.51928,9.95806 13.94838,16.36731c0.5417,1.8654 1.0454,3.743 1.48277,5.63558l0.06402,0.75683c0,0 0,2.5 -2.5,2.5z" fill="#f966ff" stroke-width="0.5"/><path d="M209.17482,143.95646c-2.04681,0.11333 19.59127,-37.29554 40.49255,-36.98839c22.8476,0.33576 50.22633,39.51917 50.22633,39.51917c0,0 -45.43572,-5.03805 -90.71888,-2.53078z" fill="#f966ff" stroke-width="0"/><path d="M303.53123,150.98881c-1.38675,2.08013 -3.46687,0.69338 -3.46687,0.69338l-1.86533,-1.24818c-1.22579,-0.91939 -2.08179,-2.56275 -3.58017,-2.88321c-0.65144,-0.13932 -1.28288,0.3891 -1.94561,0.45678c-4.73899,0.48398 -9.50588,1.51491 -14.29965,1.28889c-11.12953,-0.52474 -22.68893,-1.97906 -33.37764,-5.18206c-11.1142,5.14771 -24.22643,3.03475 -36.01288,2.14002l-2.53079,-0.19467c0,0 -2.49264,-0.19174 -2.30089,-2.68438c0.19174,-2.49264 2.68438,-2.30089 2.68438,-2.30089l2.53078,0.19467c10.6657,0.83032 23.215,3.13679 33.32327,-1.57811v-0.40679c0,-10.77839 -2.12298,-22.20736 1.08393,-32.66203c0,0 0.73521,-2.38945 3.12466,-1.65423c2.38945,0.73521 1.65424,3.12467 1.65424,3.12467c-3.05075,9.88186 -0.86282,20.99661 -0.86282,31.1916v0.40652c6.90759,1.9419 13.99145,2.88831 21.12741,3.71706c4.27697,0.49672 8.70518,1.17462 13.02842,0.97258c3.51949,-0.16448 6.92824,-1.17102 10.47314,-1.36024c1.17169,-0.06254 2.36775,-0.60953 3.50531,-0.32192c0.75495,0.19087 4.57561,3.13632 5.37491,3.73577l1.63883,1.08793c0,0 2.08013,1.38675 0.69338,3.46687z" fill="#fb89ff" stroke-width="0.5"/></g></g></svg>