<svg version="1.1" xmlns="http://www.w3.org/2000/svg" xmlns:xlink="http://www.w3.org/1999/xlink" width="246.6451" height="446.51056" viewBox="0,0,246.6451,446.51056"><g transform="translate(57.41387,64.42245)"><g stroke-miterlimit="10"><path d="M-56.41387,381.08811v-444.51056" fill="none" stroke="#000000" stroke-width="2" stroke-linecap="round"/><g stroke-linecap="butt"><path d="M43.45248,244.3267v-151.0962h109.3451v151.0962z" fill="#8a6952" stroke="none" stroke-width="0"/><path d="M102.0381,123.34382h-7.82609v-19.16549h7.82609z" fill="#cecbc0" stroke="none" stroke-width="0"/><text transform="translate(67.73506,234.46039) scale(0.5,0.5)" font-size="40" xml:space="preserve" fill="#ffffff" stroke="none" stroke-width="1" font-family="Sans Serif" font-weight="normal" text-anchor="start"><tspan x="0" dy="0">Lotion</tspan></text><path d="M69.21202,204.86556c0,-11.72712 0,-78.69565 0,-78.69565h57.82609c0,0 0,64.73037 0,77.3913c0,4.14817 -0.04295,7.82609 -6.56193,7.82609c-13.63686,0 -40.20056,0 -45.86956,0c-2.62752,0 -5.3946,-3.14577 -5.3946,-6.52174z" fill="#e5e3db" stroke="none" stroke-width="0"/><path d="M84.4294,127.25685v-7.82609h27.3913v7.82609z" fill="#cecbc0" stroke="none" stroke-width="0"/><path d="M122.03003,104.71214c-3.06334,2.56812 -11.10326,1.54239 -21.30271,0.51327c-10.19945,-1.02912 -10.6316,-0.85823 -7.56826,-3.42635c3.06334,-2.56812 3.03875,-2.3561 13.2382,-1.32698c10.19945,1.02912 18.69611,1.67194 15.63278,4.24006z" fill="#e5e3db" stroke="none" stroke-width="0"/><text transform="translate(73.66065,151.75992) scale(0.29271,0.29271)" font-size="40" xml:space="preserve" fill="#fffdf5" stroke="none" stroke-width="1" font-family="&quot;Comic Sans MS&quot;, Sans Serif" font-weight="normal" text-anchor="start"><tspan x="0" dy="0">67 lotion</tspan></text><path d="M7.01884,264.69674v-191.83629h182.21239v191.83629z" fill="none" stroke="#000000" stroke-width="0"/></g></g></g></svg>