<svg version="1.1" xmlns="http://www.w3.org/2000/svg" xmlns:xlink="http://www.w3.org/1999/xlink" width="246.64509" height="446.51056" viewBox="0,0,246.64509,446.51056"><g transform="translate(57.41386,64.42245)"><g stroke-miterlimit="10"><path d="M-56.41385,381.08811v-444.51056" fill="none" stroke="#000000" stroke-width="2" stroke-linecap="round"/><path d="M102.03811,123.34382h-7.82609v-19.16549h7.82609z" fill="#a19e96" stroke="none" stroke-width="0" stroke-linecap="butt"/><text transform="translate(67.73507,234.17188) scale(0.5,0.5)" font-size="40" xml:space="preserve" fill="#c7c7c7" stroke="none" stroke-width="1" stroke-linecap="butt" font-family="Sans Serif" font-weight="normal" text-anchor="start"><tspan x="0" dy="0">Lotion</tspan></text><path d="M69.21201,204.86556c0,-11.72712 0,-78.69565 0,-78.69565h57.82609c0,0 0,64.73037 0,77.3913c0,4.14817 -0.04295,7.82609 -6.56193,7.82609c-13.63686,0 -40.20056,0 -45.86956,0c-2.62752,0 -5.3946,-3.14577 -5.3946,-6.52174z" fill="#b3b1ab" stroke="none" stroke-width="0" stroke-linecap="butt"/><path d="M84.42941,127.25685v-7.82609h27.3913v7.82609z" fill="#a19e96" stroke="none" stroke-width="0" stroke-linecap="butt"/><path d="M122.03004,104.71214c-3.06334,2.56812 -11.10326,1.54239 -21.30271,0.51327c-10.19945,-1.02912 -10.6316,-0.85823 -7.56826,-3.42635c3.06334,-2.56812 3.03875,-2.3561 13.2382,-1.32698c10.19945,1.02912 18.69611,1.67194 15.63278,4.24006z" fill="#b3b1ab" stroke="none" stroke-width="0" stroke-linecap="butt"/><text transform="translate(73.66066,151.47141) scale(0.29271,0.29271)" font-size="40" xml:space="preserve" fill="#c7c5bf" stroke="none" stroke-width="1" stroke-linecap="butt" font-family="&quot;Comic Sans MS&quot;, Sans Serif" font-weight="normal" text-anchor="start"><tspan x="0" dy="0">67 lotion</tspan></text><path d="M7.01885,264.69674v-191.83629h182.21239v191.83629z" fill="none" stroke="#000000" stroke-width="0" stroke-linecap="butt"/><path d="M46.56325,169.01295l3.53477,-18.99812l99.58881,18.52942c0,0 -0.72803,3.91285 -1.19179,6.40541c-0.65025,3.49489 -2.34299,12.5927 -2.34299,12.5927z" fill="#020000" stroke="none" stroke-width="0" stroke-linecap="butt"/><text transform="translate(47.44695,164.26342) rotate(10.54001) scale(0.41873,0.41873)" font-size="40" xml:space="preserve" fill="#ffffff" stroke="none" stroke-width="1" stroke-linecap="butt" font-family="Sans Serif" font-weight="normal" text-anchor="start"><tspan x="0" dy="0">*SOLD OUT*</tspan></text></g></g></svg>