<svg version="1.1" xmlns="http://www.w3.org/2000/svg" xmlns:xlink="http://www.w3.org/1999/xlink" width="258.18182" height="135" viewBox="0,0,258.18182,135"><g transform="translate(-110.90909,-11.33658)"><g stroke="none" stroke-miterlimit="10"><g stroke-width="0"><path d="M110.90909,146.33658v-135h258.18182v135z" fill="#000000"/><path d="M131.77227,135.42749v-113.18182h216.45547v113.18182z" fill="#fffcf7"/></g><g fill="#1c4096" stroke-width="0.5"><g><g><path d="M223.99663,86.86003c1.75,0 1.75,1.75 1.75,1.75v1.54604c0,7.17972 0.23023,15.05091 -2.36544,21.85124c0,0 -0.1218,0.31668 -0.39757,0.61753c0.05831,1.01275 -1.14157,1.55553 -1.14157,1.55553c-1.67386,0.74583 -2.84635,1.43615 -4.85507,1.55603c-0.03183,0.0019 -0.06703,-0.00135 -0.10466,-0.00871c0.06448,0.02816 0.12374,0.0616 0.17436,0.10353c0.40455,0.33509 0.52176,0.86491 0.68338,1.35434c1.3746,-0.75915 3.34753,-1.15149 5.26294,-1.36158l-0.06454,-0.10704l1.99573,-0.82756c0.29324,-0.12803 0.62724,-0.2005 0.98165,-0.2005c1.1654,0 2.11015,0.7835 2.11015,1.75c0,0.61707 -0.38511,1.15955 -0.96688,1.47115l-2.00647,1.10934l-0.01556,-0.01935l-0.03757,0.04778c-1.21215,0.58681 -2.79098,1.51909 -4.42856,2.079c0.36837,0.55151 0.8626,1.21871 1.2853,1.73662c1.29536,-1.20791 3.26936,-2.19661 5.18423,-2.93995c0.00618,-0.00572 0.01235,-0.01144 0.0185,-0.01712l0.07005,-0.06455l-0.27611,-0.30531l2.01665,-1.25435c0.35555,-0.22618 0.80042,-0.3606 1.28314,-0.3606c1.1654,0 2.11015,0.7835 2.11015,1.75c0,0.45257 -0.20715,0.86501 -0.54711,1.17568l-1.51986,1.4005c-1.04531,0.96108 -2.95163,2.8901 -4.74909,4.03097c1.39894,0.48239 4.17493,1.10572 4.94349,1.26893c0.18203,-1.0087 0.48807,-1.98441 0.80919,-2.3811c0.00826,-0.0102 0.01655,-0.02039 0.02486,-0.03057l-0.01095,-0.00321l1.00052,-2.35097c0.27588,-0.70013 1.06981,-1.20594 2.00618,-1.20594c1.1654,0 2.11015,0.7835 2.11015,1.75c0,0.20784 -0.04369,0.40721 -0.12386,0.59215l-0.65662,1.63365c-0.09126,0.24497 -0.19377,0.53358 -0.30802,0.84732c0.07054,0.43023 -0.22231,0.87595 -0.49611,1.28608c-0.09659,0.23153 -0.19867,0.46374 -0.3064,0.69117c1.87691,0.0632 4.14046,-0.50557 5.93826,-0.6004c0.4607,-0.0243 0.93957,0.36719 1.36124,0.21138c0.88929,-0.32861 -0.37743,-1.59295 -0.73193,-2.34492l0.01003,-0.07131l-0.03118,0.00647l-0.66643,-2.21072c-0.04855,-0.14733 -0.07448,-0.30241 -0.07448,-0.46251c0,-0.9665 0.94475,-1.75 2.11015,-1.75c0.84238,0 1.56947,0.40936 1.90782,1.00129l1.33536,2.21489l-0.38571,0.15994c0.35187,0.41576 0.67052,0.84865 0.94398,1.30259c0.27678,0.45947 1.1238,-0.43431 1.66372,-0.6859c0.76838,-0.35805 1.55736,-0.70696 2.40108,-0.9183c0.351,-0.08792 0.86173,0.27356 1.09883,0.04161c0.80692,-0.78941 -0.90504,-1.91933 -1.39183,-2.88199l-0.96789,-1.6054c-0.15438,-0.24318 -0.24176,-0.52019 -0.24176,-0.81412c0,-0.9665 0.94474,-1.75 2.11015,-1.75c0.7111,0 1.34004,0.29171 1.72234,0.7387l1.33101,1.51778c0.93343,0.60473 0.81477,2.1048 1.90577,2.48736c0.12516,0.04389 0.87476,-0.32158 1.61176,-0.71015c-1.11269,-0.86668 -1.63867,-2.19116 -1.87844,-3.53402l-0.42372,0.11713l-0.66232,-1.64785c-0.08017,-0.18494 -0.12386,-0.38432 -0.12386,-0.59215c0,-0.9665 0.94474,-1.75 2.11015,-1.75c0.62601,0 1.18835,0.22607 1.5748,0.58514l1.49402,1.3767c0.94633,0.80402 2.07524,1.5913 2.81907,2.55722c1.30265,-0.35565 2.86628,-0.81884 3.00899,-0.90886c0.21778,-0.13737 -0.41049,-0.30077 -0.62876,-0.43761c-1.30446,-0.81779 -1.44671,-0.82135 -3.06079,-1.59758l-1.32285,-2.21158c0,0 -0.51178,-1.69775 1.53536,-2.12219c2.04715,-0.42444 2.55893,1.27331 2.55893,1.27331l-0.64495,0.03722c2.44643,1.18967 6.99139,3.10957 5.4621,6.39781c-0.53778,1.15633 -3.60213,2.36532 -6.36751,2.95013c-1.01418,1.88089 -5.15575,3.55735 -7.61129,3.58808c-0.10099,0.33096 -0.26131,0.65952 -0.49479,0.98337c-0.05374,0.07455 -4.38232,1.69496 -4.97384,1.93431c-0.93735,0.37928 -1.74876,1.14714 -2.79128,1.17249c-0.46575,0.01133 -0.90971,-0.01652 -1.32621,-0.0785c-0.2723,0.44705 -0.69737,0.91106 -1.32548,1.4067c-0.82969,0.65471 -2.25772,0.32058 -3.38406,0.49249c-2.39058,0.36487 -7.33684,0.95448 -9.78338,-0.36582c-0.65955,-0.02999 -1.3537,-0.16026 -1.9873,-0.1987c-2.92508,-0.17747 -7.74969,-1.26427 -8.64411,-4.09629c-2.1764,-1.09827 -4.08684,-3.49148 -4.53508,-5.63913c-1.77873,-1.52857 -4.29577,-6.12331 -3.86024,-7.0588c0.53374,-1.14644 6.17041,-2.07794 7.68842,-2.77778c0,0 0.08102,-0.03665 0.21842,-0.08057c0.03384,-0.16948 0.07491,-0.27627 0.07491,-0.27627c2.46206,-6.34592 2.13215,-13.88891 2.13215,-20.59481v-1.54604c0,0 0,-1.75 1.75,-1.75zM216.64433,115.6466c-0.38364,-0.17092 -0.81805,-0.50746 -0.67187,-0.30862c0.1345,0.18297 0.41181,0.23544 0.67188,0.30862z"/><path d="M262.63471,113.25684c-1.45609,0.97073 -2.42681,-0.48537 -2.42681,-0.48537l0.337,0.14395c-2.73185,-1.49835 -5.84443,-2.42517 -8.83418,-3.30132c-0.51917,-0.04748 -0.86022,-0.30367 -1.08221,-0.59134c-0.25328,-0.26152 -0.4581,-0.63677 -0.42958,-1.15892l-0.11827,-0.84812c-0.50252,-6.59133 -0.56735,-13.19345 -0.56735,-19.81119c0,0 0,-1.75 1.75,-1.75c1.75,0 1.75,1.75 1.75,1.75c0,6.44795 0.05097,12.88414 0.53887,19.30613c2.96129,0.88613 5.96321,1.86353 8.66871,3.33212l0.8992,0.98724c0,0 0.97073,1.45609 -0.48536,2.42682z"/></g><path d="M262.86825,86.09933c-0.04007,0.02003 -0.07963,0.03853 -0.11867,0.05555c-0.02573,0.88729 -0.86085,1.40924 -0.86085,1.40924l-0.88121,0.51951c-1.38989,1.24752 -2.59132,2.58305 -4.03532,3.76475c-0.39763,0.40971 -0.8238,0.52349 -1.19913,0.5073c-0.37325,0.02123 -0.7986,-0.08556 -1.20007,-0.48494l-1.18523,-0.92245c-1.02396,-0.83819 -2.03026,-1.69859 -3.01406,-2.58356c0,0 -1.30077,-1.17068 -0.13008,-2.47145c1.17069,-1.30076 2.47145,-0.13008 2.47145,-0.13008c0.94253,0.84873 1.90718,1.67332 2.88903,2.47624l0.10348,0.08042c1.00702,-0.92062 1.92848,-1.9084 2.95856,-2.83776l1.36759,-0.88599c0,0 0.03227,-0.02017 0.09026,-0.0498c-0.65924,-1.20005 -1.29997,-2.29719 -2.08914,-3.37367c-0.17948,-0.04128 -0.29288,-0.08988 -0.29288,-0.08988l-0.96757,-0.41477c-4.97051,-2.07491 -10.71612,-3.6919 -15.20099,-6.75369l-1.01605,-0.00251c-3.60482,0.2387 -7.19344,0.02856 -10.78008,0.41833c-0.23326,0.19119 -0.44109,0.28212 -0.44109,0.28212c-3.8441,1.67861 -7.09925,4.19477 -11.11092,5.53836l-0.32351,0.2383c-0.10509,0.73682 -0.74663,1.20339 -0.74663,1.20339c-1.70963,1.23548 -2.92756,2.56625 -4.09448,4.19245c1.48474,1.03961 2.95443,2.00934 4.64183,2.78237l0.14583,0.0916c1.45188,-0.39785 2.78831,-0.9309 4.21029,-1.52355l0.17155,-0.09041c0,0 1.56525,-0.78263 2.34787,0.78262c0.78262,1.56525 -0.78262,2.34788 -0.78262,2.34788l-0.39065,0.19069c-1.87462,0.78089 -3.63972,1.45535 -5.62047,1.91695c0,0 -1.23169,0.28423 -1.84303,-0.67724c-2.27382,-1.09519 -4.21886,-2.48207 -6.29214,-3.94546c-0.49851,-0.34062 -0.7039,-0.739 -0.76049,-1.11265c-0.08166,-0.36897 -0.03341,-0.81455 0.3091,-1.31174l0.27167,-0.40751c1.62159,-2.42827 3.26006,-4.33556 5.62713,-6.06655c0,0 0.03374,-0.02455 0.09459,-0.06083c0.09895,-0.82224 0.87764,-1.28944 0.87764,-1.28944l1.04972,-0.58124c3.53955,-1.17359 6.48648,-3.3388 9.80111,-4.95458c0.40135,-0.74792 1.32714,-0.88017 1.32714,-0.88017c4.02567,-0.57233 8.03557,-0.30451 12.07781,-0.57591l1.42686,-0.00307c0.34212,-0.06682 0.66604,-0.00212 0.91649,0.08751c0.25205,0.07388 0.54771,0.20953 0.78364,0.45866c4.2437,2.9972 9.90482,4.49295 14.66902,6.47458l0.10531,0.04512c1.05606,-0.35671 1.84099,0.60264 1.84099,0.60264c1.31275,1.61283 2.28048,3.2279 3.27398,5.04887l0.31003,0.61756c0,0 0.78262,1.56525 -0.78262,2.34788z"/><g><path d="M278.0869,71.78601c1.64464,0.59805 1.04659,2.24269 1.04659,2.24269l-0.50165,1.3415c-0.14562,0.62934 -0.29124,1.25867 -0.43685,1.88801c-1.12598,3.62489 -1.55055,7.51508 -2.21695,11.2429c-0.40993,2.29312 -0.6196,4.81368 -2.20541,6.71166c-3.33505,3.99156 -10.42026,3.15367 -13.63749,-0.54736c-1.78643,-2.05506 -2.20162,-4.82347 -2.51522,-7.39697c0,0 -0.20448,-1.73802 1.53354,-1.94249c1.73802,-0.20447 1.94248,1.53354 1.94248,1.53354c0.2118,1.87923 0.41903,4.00031 1.70127,5.53361c1.73116,2.07011 6.40266,2.90579 8.28828,0.57704c1.11136,-1.37253 1.16016,-3.4758 1.44889,-5.09453c0.68257,-3.82682 1.14357,-7.79817 2.28064,-11.52616c0.13549,-0.58876 0.27096,-1.17753 0.40645,-1.76628l0.62274,-1.75059c0,0 0.59805,-1.64464 2.24269,-1.04659z"/><path d="M274.38914,71.92391c-0.06079,-0.02618 -0.09489,-0.04455 -0.09489,-0.04455c-4.77331,-2.57902 -10.34916,-5.29229 -9.33072,-11.94073c0.49411,-3.22559 4.29559,-6.57655 7.81653,-5.48213c1.59527,0.49586 2.24637,1.36955 2.67917,2.44688c1.31297,-0.52893 3.37126,-0.48628 4.18653,0.05794c0.47127,0.31459 0.88639,1.16193 1.08813,1.97077c0.23011,-0.24748 0.47664,-0.45429 0.68697,-0.56275c1.01058,-0.52113 2.22975,-1.35101 3.28356,-0.92401c1.1608,0.47035 1.69746,1.92658 2.10962,3.1093c0.13637,0.39133 -1.02275,0.85657 -0.65862,1.05443c0.48571,0.26393 1.09002,-0.85761 1.55909,-0.56513c2.96532,1.849 2.30632,6.0983 0.27487,8.17921c-2.56355,2.62597 -8.49662,4.88174 -12.01581,4.68738zM276.91005,70.29195c0.09576,0.04345 0.18186,0.09437 0.25925,0.15083c2.50225,-0.15045 4.91179,-1.91513 7.10103,-3.04896c0.63004,-0.32631 1.73827,-0.71609 1.95277,-1.58232c0.70232,-2.83622 -1.27091,-0.40311 -2.45369,-1.64176c-0.5536,-0.57975 -0.80418,-1.59425 -0.65479,-2.45378c-0.23791,0.3494 -0.49878,0.68205 -0.86588,0.86291c-1.1854,0.58398 -2.58501,1.61628 -3.8057,1.11019c-1.21671,-0.50444 -0.13871,-2.73559 -0.81345,-3.86677c-0.22083,-0.37021 -0.6488,0.48262 -1.00163,0.81091l-0.85511,1.34374c-0.30782,0.50111 -0.86099,0.83532 -1.49222,0.83532c-0.9665,0 -1.75,-0.7835 -1.75,-1.75c0,-0.05167 0.00224,-0.10282 0.00662,-0.15335l0.11897,-1.54662c-0.84846,-2.49776 -3.91397,-1.19486 -4.23789,1.137c-0.68063,4.89976 4.18039,6.49757 7.53526,8.29844c0,0 0.96114,0.51754 0.95645,1.49423z"/></g><g><path d="M192.17337,63.4681c0.1749,-2.2463 1.56783,-6.74737 4.80908,-6.40105c0.85315,0.09116 2.12748,1.0725 2.69535,1.95661c0.36345,-0.41356 0.82788,-0.75089 1.31731,-0.9866c0.99703,-0.48016 2.15669,-1.23575 3.20265,-0.87439c0.83372,0.28804 1.7129,1.57919 1.83521,2.57094c0.54757,-0.39218 1.18767,-0.6658 1.76061,-1.02548c0.96627,-0.33943 1.94487,-1.39097 2.8988,-1.01828c1.16572,0.45544 1.79178,1.84877 2.22869,3.02155c0.22107,0.5934 -0.61728,1.2554 -0.41214,1.85449c0.1434,0.41879 0.92687,0.18738 1.22375,0.51573c1.1226,1.24158 2.27919,3.75673 1.43676,5.49297c-0.45861,0.94518 -1.58495,1.39916 -2.49122,1.93052c-2.65833,1.55863 -6.00398,1.98907 -8.74173,3.59386l-1.29685,0.72091c0,0 -0.66793,0.37107 -1.3663,0.18147l-0.39809,0.78898c-1.72683,4.13669 -2.43565,10.10308 -0.57611,14.36296c1.03224,2.36468 5.16092,5.47857 7.85917,4.06809c1.86231,-0.9735 2.27005,-4.03688 2.59321,-5.7933c0,0 0.32251,-1.72003 2.04254,-1.39752c1.72002,0.32251 1.39752,2.04253 1.39752,2.04253c-0.57108,2.99684 -1.41413,6.69503 -4.43428,8.26169c-3.69536,1.91692 -8.96155,-0.53437 -11.30852,-3.56409c-3.91115,-5.04893 -3.12273,-13.68239 -0.8402,-19.23965c-3.06463,-3.10906 -5.80345,-6.33352 -5.4352,-11.06292zM200.93988,71.76032l1.23305,-0.68458c1.80159,-1.0464 3.66061,-1.93552 5.61981,-2.66117c0.68032,-0.25198 3.71681,-0.68861 4.22972,-1.37184c0.80308,-1.06974 -2.16282,-1.75304 -2.68039,-2.9865c-0.24366,-0.58071 -0.04867,-1.62647 0.1299,-2.27112c-1.21355,0.77189 -4.04905,2.85504 -5.59573,2.06334c-0.8411,-0.43053 -0.83579,-1.6614 -1.01426,-2.64171c-0.30843,0.31978 -0.81632,0.62374 -1.1327,0.84396c-0.90485,0.62983 -1.74708,1.89928 -2.83271,1.70728c-1.26272,-0.22332 -0.93836,-2.74514 -2.13799,-3.19811c-0.83077,-0.31369 -1.15388,4.40401 -1.10445,4.7726c0.38641,2.88132 2.68117,5.02023 4.67422,6.9777c0.00011,0.00004 0.00021,0.00008 0.00032,0.00012c0.27051,-0.36069 0.61121,-0.54997 0.61121,-0.54997z"/><path d="M198.37513,69.1174c-0.04149,-0.03916 -0.08291,-0.08119 -0.12419,-0.12623c-1.18252,-1.29002 0.1075,-2.47253 0.1075,-2.47253c0.87546,-0.66304 1.52829,-1.97445 2.62639,-1.98911c3.76923,-0.05034 4.85715,3.1542 2.39037,5.68265c-0.66794,0.68464 -1.90026,0.22021 -2.85039,0.33033h-0.42165c0,0 -1.52608,0 -1.72803,-1.4251z"/></g><g><path d="M236.39863,72.07096c-1.73241,-0.24748 -1.48493,-1.9799 -1.48493,-1.9799l0.13084,-0.90227c0.0937,-0.98385 0.1874,-1.9677 0.2811,-2.95155c0,0 0.16591,-1.74211 1.90803,-1.5762c1.74212,0.16591 1.5762,1.90803 1.5762,1.90803c-0.0937,0.98385 -0.1874,1.9677 -0.2811,2.95155l-0.15026,1.06542c0,0 -0.24749,1.73241 -1.9799,1.48492z"/><g><path d="M259.74214,40.64773c-1.73649,0.21706 -1.95355,-1.51942 -1.95355,-1.51942l-0.1518,-1.41094c-0.54906,-1.83564 -0.60666,-2.24908 -1.38893,-3.99331c-0.31002,-0.69125 -0.42604,-2.24843 -1.13114,-1.97131c-1.38622,0.54483 -2.01351,2.20481 -3.14086,3.17822c-1.28815,1.11225 -2.6992,2.07703 -3.99472,3.18007c-0.14586,0.16719 -0.3444,0.32326 -0.61111,0.45662c-0.43705,0.21852 -0.81307,0.254 -1.12809,0.19161c-0.31518,-0.06153 -0.64978,-0.23675 -0.97154,-0.60448c-0.20085,-0.22954 -0.32668,-0.45408 -0.39755,-0.66839l-0.06278,-0.12555c-0.24684,-0.49746 -0.60211,-0.95527 -0.75791,-1.48602c-0.55994,1.61402 -1.7777,3.11805 -4.16226,2.78995c-3.50654,-0.48248 -0.85814,-3.14669 -1.60753,-4.49953c-0.109,-0.19678 -0.10947,0.47774 -0.29286,0.60803c-0.67756,0.48139 -1.38513,1.02394 -2.20405,1.16597c-1.13386,0.19666 -2.41595,0.3246 -3.44738,-0.18577c-0.13954,-0.06905 -0.21304,-0.18547 -0.24971,-0.32926c-0.36059,1.12915 -1.05034,2.13969 -1.4661,3.25313c0,0 -0.61446,1.63858 -2.25304,1.02411c-0.80994,-0.30373 -1.0694,-0.85767 -1.12469,-1.34026c-1.87795,-1.50646 -3.45487,-3.11186 -5.19501,-4.7583c-0.30834,-0.29174 -0.6554,-0.54934 -0.99498,-0.81296c-0.02158,0.44232 -0.07713,0.7889 -0.07713,0.819c0.00066,2.71742 0.23325,5.33512 0.61869,8.02414c0,0 0.24748,1.73241 -1.48493,1.9799c-1.73241,0.24748 -1.97989,-1.48492 -1.97989,-1.48492c-0.46288,-3.25063 -1.32565,-7.41627 -0.65207,-10.71934c0.26886,-1.31843 0.058,-3.18496 1.23086,-3.84445c1.03297,-0.58083 2.30108,0.67286 3.31315,1.28938c2.32474,1.41615 4.28502,3.93276 6.37718,5.87943c0.85307,-1.9372 2.08084,-3.92861 3.89924,-4.1415c0.93001,-0.10889 1.06479,1.58288 1.81337,2.14538c0.84114,0.63206 4.0464,-2.58453 5.50874,-1.80526c0.99118,0.5282 1.49618,1.69614 1.86551,2.81148c0.78077,-1.17028 2.27528,-2.15201 3.18151,-2.08459c0.97468,0.07251 1.82695,1.32938 2.46189,2.51182c1.53832,-1.39171 3.10821,-2.82549 4.69474,-4.02304c0.98925,-0.74671 1.96202,-1.83585 3.20011,-1.8934c3.84154,-0.17855 5.17687,5.84226 5.96366,8.45771l0.27239,1.98255c0,0 0.21706,1.73649 -1.51943,1.95354zM232.06527,34.24744c-0.00742,-0.05801 -0.01857,-0.11373 -0.03475,-0.16626c-0.04601,-0.14943 -0.01213,-0.03831 0.03475,0.16626z"/><path d="M260.79764,37.58543c1.75,0 1.75,1.75 1.75,1.75v0.84837c0,4.66083 0.72937,10.0313 -0.71853,14.52833c-1.27373,3.95609 -5.11688,7.29129 -8.75228,9.10428c-3.17783,1.5848 -6.93253,1.64553 -10.2675,2.6576c-7.10731,1.7437 -19.71276,0.19885 -24.20455,-6.466c-1.90171,-2.82172 -1.97679,-5.9884 -1.97572,-9.21956c0.00118,-3.5545 -0.15015,-6.58362 2.11804,-9.41051c0,0 1.13888,-1.3287 2.46758,-0.18981c1.3287,1.13889 0.18982,2.46758 0.18982,2.46758c-1.72373,1.79615 -1.27627,4.7026 -1.27544,7.13274c0.00089,2.57884 -0.07957,5.04146 1.41777,7.32368c1.23065,1.87574 3.06776,2.57532 5.08122,3.33882c4.81744,1.82676 10.20174,2.93988 15.25374,1.6482c3.10685,-0.92237 6.72698,-0.95678 9.66923,-2.43264c8.6421,-4.33496 7.49663,-12.20669 7.49663,-20.48271v-0.84837c0,0 0,-1.75 1.75,-1.75z"/><path d="M259.73214,36.36745l1.44179,0.52794c2.45012,0.79248 3.43428,0.53552 4.62232,3.08365c1.47552,3.16472 -0.33834,8.40981 -3.84762,9.42855c-0.31645,0.09186 -3.7997,-0.14681 -4.93544,-1.14383c-0.52605,0.65276 -1.33318,1.06394 -1.97299,1.61892c-1.0332,0.07401 -2.0912,0.45888 -3.0996,0.22202c-1.19164,-0.2799 -1.95871,-2.36304 -3.11125,-1.95072c-1.39574,0.49932 -2.27346,2.64134 -3.73762,2.40973c-1.10437,-0.17469 -1.77331,-1.41363 -2.41096,-2.33207c-0.33052,-0.47607 -0.42012,-1.08516 -0.49012,-1.66918c-0.95237,2.15077 -3.69395,3.69337 -6.09184,2.97017c-1.01575,-0.30635 -0.56723,-3.3248 -1.49486,-2.80992c-1.97307,1.09514 -2.39767,3.57278 -5.505,2.40282c-0.65268,-0.24574 -0.1263,-1.45061 -0.51926,-2.02678c-0.17457,-0.25596 0.00498,0.72293 -0.25311,0.89433c-0.99759,0.66253 -2.08724,1.44296 -3.28474,1.45526c-1.32842,0.01364 -2.98638,-0.28757 -3.73776,-1.38316c-0.0231,-0.03368 -0.04129,-0.06721 -0.05494,-0.10059c-1.67345,0.4488 -3.20639,0.69689 -5.12331,0.65214c-0.88001,-0.02054 -1.91537,0.37032 -2.63739,-0.13321c-1.14669,-0.79968 -2.71219,-2.03767 -2.44245,-3.4094c0.21224,-1.07936 5.49635,-2.84625 6.78007,-3.54306c0,0 1.54082,-0.82967 2.3705,0.71115c0.78018,1.44889 -0.53573,2.26896 -0.69553,2.36166c0.68575,-0.05707 1.3516,-0.146 1.95346,-0.32357l1.68349,-0.90649c0.25367,-0.14311 0.54662,-0.22477 0.85863,-0.22477c0.9665,0 1.75,0.7835 1.75,1.75c0,0.24247 -0.04931,0.47341 -0.13844,0.68336c0.91383,-0.91319 2.41279,-2.25837 4.20606,-1.75868c0.75852,0.21136 0.43303,1.5458 0.88625,2.18972c0.12028,0.17089 0.08131,-0.452 0.25045,-0.57473c1.1393,-0.82667 2.18893,-2.14923 3.59499,-2.21552c1.24435,-0.05866 2.34303,1.01101 3.2216,1.89416c0.31322,0.31485 -0.32343,1.01576 -0.0119,1.33228c0.5843,0.59365 1.09036,-1.2694 1.72899,-1.80418c0.93505,-0.78298 1.70455,-2.18381 2.92404,-2.19916c1.165,-0.01466 2.04035,1.22175 2.77322,2.12748c0.44889,0.55477 0.48493,1.34969 0.60897,2.05246c0.02929,0.16598 -0.25011,0.6227 -0.16216,0.47892c1.48508,-2.4278 2.58024,-2.8551 5.4013,-1.67875c0.89691,0.374 1.67126,1.3039 2.6406,1.23539c0.91386,-0.91911 1.1332,-2.8424 2.4127,-3.04927c1.18403,-0.19143 3.43615,2.79096 5.01495,2.39996c1.50981,-0.37391 1.90604,-3.45563 1.49327,-4.62644c-0.36922,-1.0473 -1.48318,-0.90236 -2.40517,-1.13285z"/></g></g><path d="M275.18948,66.95413c-0.51913,-0.11267 -1.34172,-0.47991 -1.3583,-1.67583c-0.02425,-1.74983 1.72557,-1.77408 1.72557,-1.77408l1.25148,0.05266c0.88139,0.33278 2.22643,0.15389 2.64415,0.99834c0.13873,0.28046 0.22025,0.57462 0.26267,0.87814l0.17327,-0.03567l0.3621,1.75865c0.18944,0.85416 -0.28634,1.73396 -1.13277,2.0292c-0.56225,0.19612 -1.15688,0.08853 -1.60499,-0.2364l-1.67104,-1.18024c0,0 -0.43053,-0.30408 -0.65215,-0.81475z"/><path d="M243.58931,56.19535c0.75,0 0.75,0.75 0.75,0.75l-0.00308,0.35536c-0.27796,2.97125 -1.36206,3.9832 -4.23954,4.20295c-1.18617,-0.01 -2.11371,-0.11934 -2.99889,-1.00601c-0.22751,-0.22789 -0.50601,-0.81648 -0.67454,-1.26417c-0.30927,0.76019 -2.25963,1.49815 -2.6017,1.54804c-3.19351,0.46576 -7.13193,-1.55423 -4.70881,-4.92408c0,0 0.44113,-0.60656 1.04768,-0.16542c0.60655,0.44113 0.16542,1.04769 0.16542,1.04769c-1.61843,2.19508 1.4715,2.72107 3.34011,2.54991c1.07905,-0.09884 1.7009,-1.95795 2.47673,-2.00719c1.60884,-0.10212 1.75642,2.74724 3.89644,2.72235c2.14541,-0.16631 2.60182,-0.54695 2.80326,-2.83985l-0.00308,-0.21956c0,0 0,-0.75 0.75,-0.75z"/><path d="M230.04717,51.73994c0.2704,0.26886 0.18741,0.68382 0.18741,0.68382l-0.38529,1.136c-0.79323,0.65384 -3.00297,1.71616 -3.32483,-0.35213c-0.16691,-1.07256 1.75251,-1.86997 2.44873,-2.18865c0,0 0.68278,-0.31036 0.99313,0.37242c0.05883,0.12942 0.08197,0.24546 0.08085,0.34854z"/><path d="M245.98842,51.96111c0.08981,0.00416 0.14978,0.01915 0.14978,0.01915l0.7296,0.38345c1.75718,2.95513 -2.1001,3.0557 -2.23642,0.05669c0,0 0,-0.75 0.75,-0.75c0.31837,0 0.50159,0.13515 0.60704,0.29071z"/><path d="M229.41019,55.34337c-0.53033,0.53033 -1.06066,0 -1.06066,0l-0.15979,-0.18504c-1.06831,-0.74321 -2.66926,-0.41137 -3.91883,-0.1823c0,0 -0.7379,0.13416 -0.87206,-0.60374c-0.13416,-0.7379 0.60374,-0.87206 0.60374,-0.87206c1.72687,-0.31164 3.46463,-0.52457 4.99247,0.39261l0.41513,0.38988c0,0 0.53033,0.53033 0,1.06066z"/><path d="M249.51849,55.81517c-0.58565,0.46852 -1.05418,-0.11713 -1.05418,-0.11713l-0.20008,-0.26729c-0.843,-0.77464 -1.33763,-0.87342 -2.38526,-0.43912c0,0 -0.69635,0.27855 -0.9749,-0.41781c-0.27855,-0.69636 0.41781,-0.9749 0.41781,-0.9749c1.59751,-0.62174 2.64136,-0.41486 3.93889,0.71072l0.37484,0.45137c0,0 0.46852,0.58565 -0.11713,1.05417z"/></g><path d="M226.31656,136.33203c-1.75,0 -1.75,-1.75 -1.75,-1.75l0.00445,-0.00839c-0.08871,-1.24197 -0.17743,-2.48395 -0.26614,-3.72592c0,0 -0.12468,-1.74555 1.62087,-1.87024c1.74555,-0.12468 1.87024,1.62087 1.87024,1.62087c0.08871,1.24197 0.17743,2.48395 0.26614,3.72592l0.00445,0.25775c0,0 0,1.75 -1.75,1.75z"/><path d="M257.08067,137.47741c-1.69775,0.42443 -2.12219,-1.27331 -2.12219,-1.27331l-0.16496,-0.69061c-0.52202,-3.41111 -0.41956,-6.80389 -0.41956,-10.24626c0,0 0,-1.75 1.75,-1.75c1.75,0 1.75,1.75 1.75,1.75c0,3.26014 -0.12079,6.48483 0.37886,9.71406l0.10116,0.37393c0,0 0.42444,1.69776 -1.27331,2.12219z"/><path d="M246.29808,133.56911c0.2322,0.13126 1.45594,0.9072 0.74562,2.32783c-0.78262,1.56525 -2.34787,0.78262 -2.34787,0.78262l-0.78428,-0.52763c-0.92971,-1.04939 -1.57305,-2.06368 -2.15663,-3.18044c-0.49037,0.54481 -0.95299,1.11512 -1.38154,1.70837l-0.42814,0.77042c0,0 -0.86824,1.51943 -2.38767,0.65118c-1.51943,-0.86824 -0.65118,-2.38767 -0.65118,-2.38767l0.63641,-1.09254c0.7782,-1.06385 1.64354,-2.06808 2.57309,-3.00258c0,0 0.42432,-0.42432 1.02449,-0.52754c0.14057,-0.13128 0.31906,-0.25234 0.54415,-0.35623c1.58893,-0.73335 2.32228,0.85558 2.32228,0.85558c0.70957,1.53787 1.22172,2.73884 2.29128,3.97862z"/></g></g></g></svg>