<svg version="1.1" xmlns="http://www.w3.org/2000/svg" xmlns:xlink="http://www.w3.org/1999/xlink" width="196.72405" height="185.06038" viewBox="0,0,196.72405,185.06038"><g transform="translate(-156.48212,-85.83692)"><g fill="#633b29" stroke="#4f2f20" stroke-miterlimit="10"><path d="M214.07802,106.57835l18.6201,-18.6201l70.09923,70.09923l-18.6201,18.6201z" stroke-width="3"/><path d="M193.11648,171.22562v-26.33281h69.44699v26.33281z" stroke-width="4"/><path d="M158.48213,203.01038v-26.3328h69.44698v26.3328z" stroke-width="4"/><path d="M170.16967,234.65714v-26.3328h71.42621v26.3328z" stroke-width="4"/><path d="M212.04385,265.82138l-7.42702,-25.26372l44.82267,-14.02189l7.42702,25.26372z" stroke-width="4"/><path d="M214.07802,201.51719c0,-28.37965 25.59591,-51.38591 57.17005,-51.38591c31.57414,0 79.95811,23.00626 79.95811,51.38591c0,28.37965 -48.38396,51.38591 -79.95811,51.38591c-31.57414,0 -57.17005,-23.00626 -57.17005,-51.38591z" stroke-width="4"/><path d="M196.30718,165.82598l12.48287,-23.18609l61.14821,32.92081l-12.48287,23.18609z" stroke-width="3"/><path d="M158.51156,201.85291l6.30858,-25.56595l67.4246,16.6375l-6.30858,25.56596z" stroke-width="3"/><path d="M169.65647,236.03628l6.34491,-25.55697l69.3218,17.21022l-6.34492,25.55696z" stroke-width="3"/><path d="M212.35984,269.24521l-2.82155,-26.1812l71.35662,-7.69013l2.82155,26.1812z" stroke-width="3"/></g></g></svg>