<svg version="1.1" xmlns="http://www.w3.org/2000/svg" xmlns:xlink="http://www.w3.org/1999/xlink" width="116.64762" height="43.03436" viewBox="0,0,116.64762,43.03436"><g transform="translate(-290.16903,-237.17566)"><g stroke="none" stroke-miterlimit="10"><path d="M296.37958,237.34275c10.74494,3.05979 38.88236,11.65772 54.16967,13.56389c14.56575,1.8162 40.94105,0.37066 52.05292,0.00714c3.18849,-0.10431 4.66061,3.38781 4.09636,7.91307c-0.76194,6.11068 -1.73971,13.95241 -2.12693,17.05784c-0.32047,2.5701 -2.39038,5.08416 -5.21539,4.11135c-10.41282,-3.58572 -36.36673,-12.18106 -50.95905,-14.00057c-15.5852,-1.94331 -43.78022,0.00314 -54.72962,0.88701c-2.83883,0.22915 -3.88002,-2.56221 -3.37646,-6.60074c0.90108,-7.22659 1.82439,-16.8022 2.19275,-19.75637c0.18975,-1.52184 0.95922,-4.01885 3.89576,-3.18262z" fill="#8a6952" stroke-width="0"/><path d="M398.40037,252.96701c1.04553,-0.84469 2.73947,-2.0054 4.2018,-2.05324c3.18849,-0.10431 4.66061,3.38781 4.09636,7.91307c-0.76194,6.11068 -1.73971,13.95241 -2.12693,17.05784c-0.32047,2.5701 -2.39038,5.08416 -5.21539,4.11135c-1.29643,-0.44643 -2.46664,-2.11378 -3.23572,-3.47097c-0.58485,-1.03208 -0.83649,-2.83148 -0.67825,-4.31118c0.50793,-4.74985 1.4799,-14.00307 1.69927,-16.0546c0.07524,-0.7036 0.65363,-2.70331 1.25886,-3.19227z" fill="#b7a496" stroke-width="0"/><path d="M296.37958,237.34275c1.97286,0.56181 -0.0869,8.78923 -0.61817,14.57588c-0.53127,5.78664 -0.02083,14.79651 -2.09388,14.96385c-2.83883,0.22915 -3.88002,-2.56221 -3.37646,-6.60074c0.90108,-7.22659 1.82439,-16.8022 2.19275,-19.75637c0.18975,-1.52184 0.95922,-4.01885 3.89576,-3.18262z" fill="#b7a496" stroke-width="0"/><path d="M351.04802,267.84688c-1.59069,0.31864 -1.90933,-1.27206 -1.90933,-1.27206l-0.10722,-0.56378c-1.42101,-4.95949 -0.76807,-9.38804 -0.13868,-14.43567c0,0 0.20073,-1.60983 1.81055,-1.4091c1.60982,0.20073 1.4091,1.81055 1.4091,1.81055c-0.57314,4.59661 -1.27414,8.62578 0.0365,13.13493l0.17113,0.82579c0,0 0.31864,1.5907 -1.27205,1.90934z" fill="#cfa685" stroke-width="0.5"/><path d="M346.83543,267.35591c-1.4508,0.72595 -2.17675,-0.72485 -2.17675,-0.72485l-0.51376,-1.19922c-0.79596,-5.24493 0.54223,-10.25676 1.18372,-15.43076c0,0 0.20074,-1.60983 1.81056,-1.4091c1.60982,0.20073 1.40909,1.81055 1.40909,1.81055c-0.60545,4.82984 -1.98022,9.63592 -1.19731,14.53082l0.2093,0.2458c0,0 0.72595,1.4508 -0.72485,2.17676z" fill="#cfa685" stroke-width="0.5"/><path d="M347.16338,258.87913c-0.03243,-0.02362 -0.06528,-0.05037 -0.09851,-0.08047c-0.8502,-0.76999 -0.25268,-2.18944 -0.25268,-2.18944c1.04949,-2.4887 2.21423,-4.97542 3.58082,-7.10262c5.58095,-8.68723 10.15832,4.39864 3.32229,9.36526c-0.20669,0.15017 -0.41108,0.27302 -0.61385,0.37281c1.06215,2.24947 1.79106,5.57811 1.44092,7.44894c-0.74982,4.00632 -3.77567,5.47618 -5.45984,2.47553c-1.36308,-2.42859 -2.07633,-6.97364 -1.91915,-10.29001zM352.45818,267.19439c1.63028,-2.70683 -0.76483,-5.67064 -2.71373,-7.69501c-0.01907,-0.00235 -0.03813,-0.00469 -0.05723,-0.00703l-0.18449,-0.023l-0.11225,0.38881l-0.11513,-0.06288c0.24736,3.00457 1.5085,10.17908 3.18284,7.39911zM355.05069,250.05496c-1.31715,-2.78813 -4.18254,2.80695 -5.68415,6.1277l0.72211,0.09005c1.73981,0.22151 7.06593,-1.76426 4.96203,-6.21775z" fill="#f4c49c" stroke-width="0.5"/></g></g></svg>