<svg version="1.1" xmlns="http://www.w3.org/2000/svg" xmlns:xlink="http://www.w3.org/1999/xlink" width="258.18182" height="135" viewBox="0,0,258.18182,135"><g transform="translate(-110.90909,-11.33658)"><g stroke="none" stroke-miterlimit="10"><g stroke-width="0"><path d="M110.90909,146.33658v-135h258.18182v135z" fill="#000000"/><path d="M131.77227,135.42749v-113.18182h216.45547v113.18182z" fill="#fffcf7"/></g><path d="M150.99606,56.25709c-0.27608,-2.48471 2.20863,-2.76078 2.20863,-2.76078l3.02715,-0.3325c3.44994,0.00084 8.591,-0.41311 11.42174,2.22531c1.22048,1.13757 1.61524,2.91986 2.42286,4.37979c-0.30265,1.59186 -0.21429,3.3112 -0.90797,4.77558c-3.28728,6.93952 -12.99401,4.57823 -17.77438,1.18177c-8.41834,-5.98126 -12.40363,-21.23011 -2.53718,-27.85909c3.11998,-2.09622 6.49829,-2.90733 10.06575,-3.88126c0,0 2.41191,-0.6578 3.0697,1.75411c0.65779,2.41191 -1.75412,3.0697 -1.75412,3.0697c-3.50321,0.95441 -7.45298,1.6874 -10.08159,4.44657c-4.94575,5.19139 -0.85844,14.80313 4.12664,18.38922c3.36375,2.41976 9.63449,4.2234 10.85297,-1.10544c-1.69703,-3.01448 -5.57189,-2.38478 -8.62793,-2.38391l-2.7515,0.30957c0,0 -2.48471,0.27608 -2.76079,-2.20863z" fill="#1c4096" stroke-width="0.5"/><path d="M177.87952,67.47002c-2.5,0 -2.5,-2.5 -2.5,-2.5v-0.64208c0.0323,-1.19284 -0.25265,-2.43759 0.09688,-3.57853c0.77441,-2.52787 2.7296,-4.12958 4.48779,-5.8941c2.6153,-2.62472 5.06452,-5.24119 7.76468,-7.76271c1.18789,-1.1093 2.90247,-3.00895 4.36959,-4.27711c-0.81645,-0.22051 -1.61465,-0.56952 -2.42299,-0.81459c-3.33691,-1.0117 -6.52514,-2.36128 -9.78443,-3.58331c0,0 -2.34083,-0.8778 -1.46302,-3.21863c0.87781,-2.34083 3.21863,-1.46301 3.21863,-1.46301c4.2408,1.59056 8.4754,2.96795 12.76984,4.38285c1.44809,0.47711 3.71199,0.18192 4.28732,1.59387c1.52535,3.74347 -3.46222,7.0229 -5.29452,8.76761c-3.40212,3.23951 -6.58095,6.5945 -9.90956,9.91056c-2.21992,2.21156 -3.25851,2.79615 -3.1202,5.9371v0.64208c0,0 0,2.5 -2.5,2.5z" fill="#1c4096" stroke-width="0.5"/><path d="M211.51848,60.14566c0.48244,1.48736 1.53246,2.84991 3.36441,4.01625c2.64516,1.68408 6.67361,3.12683 9.86829,2.56534c0.63747,-0.11204 2.69913,-2.05203 1.59227,-2.74711c-1.10369,-0.69308 -2.44398,-0.9061 -3.66596,-1.35914c-3.13608,-1.51358 -4.93713,-1.58616 -8.4262,-1.90299l-1.05781,0.01026c0,0 -0.94674,0 -1.675,-0.58261zM211.32071,56.49022c0.74054,-0.76196 1.87278,-0.76196 1.87278,-0.76196l1.51048,0.01027c3.95645,0.36007 6.42876,0.66593 10.06368,2.3403c1.81775,0.91483 4.10634,1.21906 5.45325,2.7445c3.51596,3.98198 -0.15282,9.50477 -4.18638,10.73641c-1.13609,0.34691 -5.98141,-0.06369 -6.97618,-0.29986c-4.01044,-0.95212 -9.77113,-3.62094 -11.6084,-7.69348c-4.52567,-10.03171 4.35656,-25.51192 15.06453,-27.08099c0,0 2.4807,-0.31009 2.79078,2.17061c0.31008,2.48069 -2.17061,2.79078 -2.17061,2.79078c-5.5697,0.50914 -8.08625,5.97129 -10.25308,10.47409c-0.74331,1.54465 -1.31672,3.08546 -1.56087,4.56934z" fill="#1c4096" stroke-width="0.5"/><path d="M240.2657,65.36484c-2,-1.5 -0.5,-3.5 -0.5,-3.5l0.88298,-1.17089c1.70625,-2.54133 4.2267,-4.58803 5.68828,-7.23762c2.00157,-3.6285 3.54167,-7.17588 6.50241,-10.15831c1.09868,-1.10672 2.14516,-2.26948 3.31082,-3.30541c0.41635,-0.37001 0.83482,-0.74542 1.2699,-1.09748c-0.3829,-0.00901 -0.75103,-0.02082 -1.05243,-0.00215c-5.07677,0.31462 -9.78085,1.60561 -14.923,1.61001c0,0 -2.5,0 -2.5,-2.5c0,-2.5 2.5,-2.5 2.5,-2.5c5.8175,0.00538 12.00207,-2.68467 17.79524,-1.60135c1.67412,0.31306 4.05362,0.02064 4.88149,1.50903c2.24284,4.03229 -2.74897,6.58903 -4.63658,8.30757c-4.16283,3.78997 -6.08314,7.45655 -8.80686,12.21917c-1.60385,2.80445 -4.08447,4.83121 -5.86902,7.53004l-1.04323,1.39739c0,0 -1.5,2 -3.5,0.5z" fill="#1c4096" stroke-width="0.5"/><path d="M279.36815,63.89693c1.99361,1.28528 4.30999,2.2023 6.20909,2.87556c1.18327,0.41949 5.1261,1.49426 6.42186,0.96942c2.00777,-0.81323 4.2962,-3.86919 2.10783,-5.11407c-3.7922,-1.38471 -6.97571,-0.82528 -10.80102,0.22658l-2.4591,0.92502c0,0 -0.70042,0.26266 -1.47866,0.11748zM277.83897,62.77327c-0.0769,-0.13663 -0.14764,-0.28841 -0.2108,-0.45685c-0.87781,-2.34082 1.46301,-3.21863 1.46301,-3.21863l2.67747,-1.0012c5.4417,-1.47393 9.5666,-1.79649 14.88187,0.22658c1.10242,1.05902 2.72941,1.7618 3.30725,3.17705c1.69754,4.1576 -2.94159,9.563 -6.33601,10.97104c-1.17676,0.48813 -5.04351,0.01505 -6.3746,-0.2224c-6.19293,-1.10475 -14.34177,-4.80704 -16.6715,-11.1896c-1.60406,-4.39451 -0.53253,-9.94159 0.92588,-14.22754c1.65703,-4.86965 5.19584,-8.26235 9.2616,-11.18412c0,0 2.03433,-1.4531 3.48743,0.58124c1.4531,2.03433 -0.58124,3.48743 -0.58124,3.48743c-4.72625,3.35216 -7.18695,6.82052 -8.308,12.56272c-0.4889,2.50424 -1.02589,4.47705 -0.12462,6.97067c0.49664,1.37409 1.4353,2.53664 2.60225,3.5236z" fill="#1c4096" stroke-width="0.5"/><path d="M313.55333,65.76059c-0.79057,-2.37171 1.58114,-3.16228 1.58114,-3.16228l-0.01409,0.28291c5.15395,-5.14674 9.26129,-11.42291 13.13876,-17.54713c1.22683,-1.9377 3.45886,-4.83469 3.96069,-7.12096c0.07589,-0.34576 -0.47006,0.64302 -0.82292,0.67124c-1.23286,0.09859 -2.4615,-0.26353 -3.69742,-0.30975c-4.03159,-0.15078 -8.13295,-0.14298 -12.14043,0.30791c0,0 -2.48471,0.27608 -2.76079,-2.20863c-0.27608,-2.48471 2.20863,-2.76079 2.20863,-2.76079c5.3328,-0.58575 11.60013,-1.05153 16.90783,-0.00185c1.47449,0.2916 3.58363,-0.00055 4.31366,1.31331c1.30321,2.34544 -0.5482,7.46417 -1.71793,9.72095c-2.22345,4.28972 -5.34369,8.1116 -8.25343,11.91318c-2.53997,3.31848 -4.61905,6.57211 -7.60109,9.55806l-1.94031,0.92498c0,0 -2.37171,0.79057 -3.16228,-1.58114z" fill="#1c4096" stroke-width="0.5"/><path d="M149.14727,108.48553c0.48244,1.48735 1.53246,2.84991 3.36441,4.01624c2.64516,1.68408 6.67361,3.12683 9.86829,2.56534c0.63747,-0.11204 2.69913,-2.05203 1.59227,-2.74711c-1.10369,-0.69308 -2.44398,-0.90609 -3.66596,-1.35914c-3.13608,-1.51359 -4.93713,-1.58616 -8.4262,-1.903l-1.05781,0.01027c0,0 -0.94674,0 -1.675,-0.58261zM148.9495,104.83009c0.74054,-0.76196 1.87278,-0.76196 1.87278,-0.76196l1.51048,0.01027c3.95645,0.36007 6.42876,0.66593 10.06368,2.3403c1.81775,0.91483 4.10634,1.21906 5.45325,2.7445c3.51596,3.98198 -0.15282,9.50477 -4.18638,10.73641c-1.13609,0.34691 -5.98141,-0.06369 -6.97618,-0.29986c-4.01044,-0.95212 -9.77113,-3.62094 -11.6084,-7.69348c-4.52567,-10.03171 4.35656,-25.51192 15.06453,-27.08099c0,0 2.4807,-0.31009 2.79078,2.1706c0.31008,2.4807 -2.17061,2.79079 -2.17061,2.79079c-5.5697,0.50914 -8.08625,5.97129 -10.25308,10.47409c-0.74331,1.54465 -1.31672,3.08545 -1.56087,4.56933z" fill="#1c4096" stroke-width="0.5"/><path d="M175.9727,118.916c-0.79057,-2.37171 1.58114,-3.16227 1.58114,-3.16227l-0.01409,0.2829c5.15395,-5.14674 9.26128,-11.42291 13.13876,-17.54713c1.22683,-1.9377 3.45886,-4.83469 3.96069,-7.12096c0.07589,-0.34575 -0.47006,0.64302 -0.82292,0.67124c-1.23285,0.09859 -2.4615,-0.26353 -3.69743,-0.30975c-4.03159,-0.15078 -8.13295,-0.14298 -12.14043,0.30791c0,0 -2.48471,0.27608 -2.76078,-2.20863c-0.27608,-2.48471 2.20863,-2.76079 2.20863,-2.76079c5.3328,-0.58575 11.60013,-1.05153 16.90783,-0.00185c1.47449,0.29161 3.58363,-0.00054 4.31365,1.31331c1.30321,2.34544 -0.54819,7.46417 -1.71793,9.72095c-2.22346,4.28972 -5.34368,8.1116 -8.25343,11.91319c-2.53997,3.31848 -4.61904,6.57211 -7.60109,9.55806l-1.9403,0.92498c0,0 -2.37171,0.79057 -3.16228,-1.58114z" fill="#1c4096" stroke-width="0.5"/><path d="M242.55159,117.09404c-2.5,0 -2.5,-2.5 -2.5,-2.5v-0.64208c0.0323,-1.19285 -0.25265,-2.43759 0.09688,-3.57853c0.77441,-2.52787 2.7296,-4.12958 4.48779,-5.8941c2.6153,-2.62473 5.06452,-5.24119 7.76468,-7.76272c1.18789,-1.1093 2.90247,-3.00894 4.36959,-4.2771c-0.81645,-0.22051 -1.61465,-0.56952 -2.42298,-0.81459c-3.33691,-1.0117 -6.52515,-2.36128 -9.78443,-3.58331c0,0 -2.34083,-0.8778 -1.46302,-3.21863c0.87781,-2.34083 3.21863,-1.46302 3.21863,-1.46302c4.24081,1.59056 8.47541,2.96795 12.76983,4.38286c1.4481,0.47711 3.71199,0.18192 4.28732,1.59387c1.52535,3.74346 -3.46222,7.0229 -5.29452,8.76761c-3.40212,3.23951 -6.58095,6.59449 -9.90956,9.91056c-2.21992,2.21156 -3.25851,2.79615 -3.1202,5.9371v0.64208c0,0 0,2.5 -2.5,2.5z" fill="#1c4096" stroke-width="0.5"/><path d="M213.36727,104.918c-0.27608,-2.48471 2.20863,-2.76078 2.20863,-2.76078l3.02715,-0.3325c3.44994,0.00083 8.591,-0.41311 11.42174,2.22531c1.22048,1.13756 1.61524,2.91986 2.42286,4.37979c-0.30265,1.59187 -0.21429,3.3112 -0.90797,4.77559c-3.28728,6.93952 -12.99401,4.57823 -17.77438,1.18177c-8.41834,-5.98126 -12.40363,-21.23011 -2.53718,-27.85909c3.11998,-2.09622 6.49829,-2.90733 10.06575,-3.88126c0,0 2.41191,-0.6578 3.0697,1.75411c0.65779,2.41191 -1.75412,3.06971 -1.75412,3.06971c-3.50321,0.95441 -7.45298,1.6874 -10.08159,4.44657c-4.94575,5.19139 -0.85844,14.80312 4.12664,18.38922c3.36375,2.41977 9.63449,4.22341 10.85297,-1.10544c-1.69703,-3.01448 -5.57189,-2.38478 -8.62793,-2.38391l-2.7515,0.30957c0,0 -2.48471,0.27608 -2.76079,-2.20863z" fill="#1c4096" stroke-width="0.5"/><path d="M308.67975,116.15656c-2,-1.5 -0.5,-3.5 -0.5,-3.5l0.88298,-1.17089c1.70626,-2.54133 4.22671,-4.58803 5.68828,-7.23762c2.00157,-3.6285 3.54166,-7.17589 6.50241,-10.15831c1.09868,-1.10672 2.14516,-2.26948 3.31083,-3.30541c0.41635,-0.37001 0.83482,-0.74542 1.2699,-1.09748c-0.3829,-0.00901 -0.75104,-0.02083 -1.05243,-0.00214c-5.07677,0.31462 -9.78085,1.60561 -14.923,1.61001c0,0 -2.5,0 -2.5,-2.5c0,-2.5 2.5,-2.5 2.5,-2.5c5.8175,0.00538 12.00207,-2.68466 17.79524,-1.60136c1.67412,0.31306 4.05362,0.02065 4.88149,1.50904c2.24284,4.03229 -2.74896,6.58904 -4.63658,8.30758c-4.16283,3.78996 -6.08315,7.45655 -8.80686,12.21916c-1.60385,2.80445 -4.08447,4.83122 -5.86901,7.53004l-1.04323,1.39739c0,0 -1.5,2 -3.5,0.5z" fill="#1c4096" stroke-width="0.5"/><path d="M278.50748,112.34305c1.2384,0.32027 2.59395,0.21277 4.0298,0.2086c3.716,-0.01081 7.1982,-0.21222 10.84573,-0.62688c-1.21512,-0.00383 -3.0396,-0.4105 -3.74135,-0.48847c-3.68971,-0.40996 -7.56223,-0.87618 -11.04212,0.49856l-0.07315,0.39005c0,0 -0.00644,0.00644 -0.01892,0.01814zM275.05416,108.73691l1.78977,-1.48369c4.90657,-1.76989 10.94412,-1.54821 16.07215,-0.44353c1.33422,0.28742 2.93809,0.17259 3.94591,1.09295c1.26169,1.1522 1.51917,3.06102 2.27876,4.59153c-1.05745,1.25663 -1.83778,2.81268 -3.17235,3.76988c-1.28119,0.91892 -5.88413,1.21214 -7.21815,1.28504c-5.35786,0.2928 -12.53673,1.14082 -16.44404,-3.42253c-2.67253,-3.12126 -2.18231,-4.06374 -2.22105,-7.74287c-0.10386,-9.86122 5.0354,-20.33906 15.05614,-22.97167c0,0 2.42536,-0.60634 3.0317,1.81902c0.60634,2.42536 -1.81902,3.0317 -1.81902,3.0317c-6.9552,1.61724 -10.59753,9.09334 -11.27892,15.77718c-0.14827,1.45438 -0.35521,3.17974 -0.0209,4.69701z" fill="#1c4096" stroke-width="0.5"/></g></g></svg>