<svg version="1.1" xmlns="http://www.w3.org/2000/svg" xmlns:xlink="http://www.w3.org/1999/xlink" width="697.17087" height="391.61028" viewBox="0,0,697.17087,391.61028"><defs><radialGradient cx="237.8506" cy="228.54647" r="60.13592" gradientUnits="userSpaceOnUse" id="color-1"><stop offset="0" stop-color="#e30000" stop-opacity="0.44706"/><stop offset="1" stop-color="#e30000" stop-opacity="0"/></radialGradient><radialGradient cx="307.68942" cy="228.54647" r="60.13594" gradientUnits="userSpaceOnUse" id="color-2"><stop offset="0" stop-color="#e30000" stop-opacity="0.44706"/><stop offset="1" stop-color="#e30000" stop-opacity="0"/></radialGradient><radialGradient cx="367.82535" cy="228.54647" r="60.13592" gradientUnits="userSpaceOnUse" id="color-3"><stop offset="0" stop-color="#e30000" stop-opacity="0.44706"/><stop offset="1" stop-color="#e30000" stop-opacity="0"/></radialGradient><radialGradient cx="167.8495" cy="231.37249" r="60.13594" gradientUnits="userSpaceOnUse" id="color-4"><stop offset="0" stop-color="#e30000" stop-opacity="0.44706"/><stop offset="1" stop-color="#e30000" stop-opacity="0"/></radialGradient><radialGradient cx="107.71356" cy="231.37249" r="60.13592" gradientUnits="userSpaceOnUse" id="color-5"><stop offset="0" stop-color="#e30000" stop-opacity="0.44706"/><stop offset="1" stop-color="#e30000" stop-opacity="0"/></radialGradient><radialGradient cx="237.85451" cy="228.54942" r="161.65582" gradientTransform="translate(-29.04453,-99.11792) scale(0.38118,0.38118)" gradientUnits="userSpaceOnUse" id="color-6"><stop offset="0" stop-color="#840000"/><stop offset="1" stop-color="#840000" stop-opacity="0"/></radialGradient><linearGradient x1="149.6936" y1="305.89822" x2="149.6936" y2="358.42975" gradientUnits="userSpaceOnUse" id="color-7"><stop offset="0" stop-color="#7a0000" stop-opacity="0.45882"/><stop offset="1" stop-color="#7a0000" stop-opacity="0"/></linearGradient></defs><g transform="translate(112.52279,12)"><g stroke-miterlimit="10"><path d="M-13.5,372v-384h507v384z" fill="#1c4096" stroke="none" stroke-width="0"/><path d="M-33.78816,379.61026v-130.21148h547.57632v130.2115z" fill="#4a2105" stroke="none" stroke-width="0"/><text transform="translate(162.46889,140.00642) scale(0.5,0.5)" font-size="40" xml:space="preserve" fill="#ffffff" stroke="none" stroke-width="1" font-family="&quot;Comic Sans MS&quot;, Sans Serif" font-weight="normal" text-anchor="start"><tspan x="0" dy="0">Until midnight...</tspan></text><g><path d="M67.09963,301.92827c34.67599,-10.58848 128.00242,-39.08617 146.74627,-44.80971c6.41278,-1.95818 17.0435,-3.75185 23.27488,-3.75185c30.8574,0 277.50778,0 341.43087,0c9.60667,0 6.88561,2.50413 -1.41045,5.03737c-19.29323,5.8913 -103.39388,31.57185 -140.73207,42.97325c-11.96077,3.65227 -21.13299,4.52088 -28.57853,4.52088c-34.17525,0 -287.99174,0 -343.1818,0c-6.77506,0 -5.6503,-1.49623 2.45081,-3.96995z" fill-opacity="0.52941" fill="#000000" stroke="none" stroke-width="0"/><path d="M54.09852,294.39022c0,-30.69365 0,-113.30202 0,-129.89326c0,-5.6763 4.75663,-10.87578 10.98802,-10.87578c30.8574,0 277.50777,0 341.43087,0c9.60667,0 15.08636,7.25894 15.08636,14.60223c0,17.07752 0,91.51966 0,124.56977c0,10.58713 -6.32763,13.10504 -13.77316,13.10504c-34.17525,0 -287.99174,0 -343.1818,0c-6.77506,0 -10.55028,-4.33726 -10.55028,-11.508z" fill="#1e1e1e" stroke="none" stroke-width="0"/><path d="M68.37948,281.14552c0,-24.40362 0,-90.08312 0,-103.27433c0,-4.51306 4.38694,-8.64702 10.13405,-8.64702c28.45922,0 255.94035,0 314.89545,0c8.86006,0 13.91387,5.77136 13.91387,11.60981c0,13.57784 0,72.76459 0,99.04177c0,8.41751 -5.83585,10.41943 -12.70273,10.41943c-31.5192,0 -265.60951,0 -316.51028,0c-6.24851,0 -9.73033,-3.44841 -9.73033,-9.14965z" fill="#000000" stroke="none" stroke-width="0"/><g stroke="#840000" stroke-width="0"><path d="M177.71466,228.54647c0,-33.21216 26.92378,-60.13593 60.13594,-60.13593c33.21217,0 60.13592,26.92378 60.13592,60.13594c0,33.21217 -26.92376,60.13595 -60.13592,60.13595c-33.21216,0 -60.13594,-26.92378 -60.13594,-60.13593z" fill="url(#color-1)"/><path d="M247.55348,228.54647c0,-33.21216 26.92376,-60.13593 60.13592,-60.13593c33.21217,0 60.13595,26.92378 60.13595,60.13594c0,33.21217 -26.92378,60.13595 -60.13595,60.13595c-33.21217,0 -60.13592,-26.92378 -60.13592,-60.13593z" fill="url(#color-2)"/><path d="M307.68942,228.54647c0,-33.21216 26.92378,-60.13593 60.13594,-60.13593c33.21216,0 60.13592,26.92378 60.13592,60.13594c0,33.21217 -26.92376,60.13595 -60.13592,60.13595c-33.21216,0 -60.13594,-26.92378 -60.13594,-60.13593z" fill="url(#color-3)"/><path d="M107.71356,231.37249c0,-33.21216 26.92376,-60.13592 60.13592,-60.13592c33.21217,0 60.13594,26.92378 60.13594,60.13594c0,33.21217 -26.92378,60.13593 -60.13594,60.13593c-33.21216,0 -60.13592,-26.92376 -60.13592,-60.13593z" fill="url(#color-4)"/><path d="M47.57764,231.37249c0,-33.21216 26.92378,-60.13592 60.13594,-60.13592c33.21217,0 60.13593,26.92378 60.13593,60.13594c0,33.21217 -26.92376,60.13593 -60.13592,60.13593c-33.21216,0 -60.13594,-26.92376 -60.13594,-60.13593z" fill="url(#color-5)"/></g><text transform="translate(76.19585,260.02744) scale(2.62342,2.62342)" font-size="40" xml:space="preserve" fill="#ff3030" stroke="url(#color-6)" stroke-width="2" font-family="Sans Serif" font-weight="normal" text-anchor="start"><tspan x="0" dy="0">12 : 00</tspan></text><path d="M-105.63845,354.4598c34.67599,-10.58848 128.0024,-39.08617 146.74627,-44.80971c6.41278,-1.95817 17.0435,-3.75185 23.27488,-3.75185c30.8574,0 277.50778,0 341.43087,0c9.60667,0 6.88561,2.50412 -1.41045,5.03737c-19.29323,5.8913 -103.39388,31.57185 -140.73207,42.97325c-11.96077,3.65227 -21.13299,4.52089 -28.57852,4.52089c-34.17524,0 -287.99174,0 -343.18179,0c-6.77505,0 -5.65029,-1.49623 2.45082,-3.96995z" fill="url(#color-7)" stroke="none" stroke-width="0"/></g></g></g></svg>