<svg version="1.1" xmlns="http://www.w3.org/2000/svg" xmlns:xlink="http://www.w3.org/1999/xlink" width="549.34144" height="391.61028" viewBox="0,0,549.34144,391.61028"><defs><radialGradient cx="327.59972" cy="245.95584" r="32.59182" gradientUnits="userSpaceOnUse" id="color-1"><stop offset="0" stop-color="#e30000" stop-opacity="0.44706"/><stop offset="1" stop-color="#e30000" stop-opacity="0"/></radialGradient><radialGradient cx="365.45021" cy="245.95584" r="32.59183" gradientUnits="userSpaceOnUse" id="color-2"><stop offset="0" stop-color="#e30000" stop-opacity="0.44706"/><stop offset="1" stop-color="#e30000" stop-opacity="0"/></radialGradient><radialGradient cx="398.04203" cy="245.95584" r="32.59182" gradientUnits="userSpaceOnUse" id="color-3"><stop offset="0" stop-color="#e30000" stop-opacity="0.44706"/><stop offset="1" stop-color="#e30000" stop-opacity="0"/></radialGradient><radialGradient cx="289.66128" cy="247.48746" r="32.59183" gradientUnits="userSpaceOnUse" id="color-4"><stop offset="0" stop-color="#e30000" stop-opacity="0.44706"/><stop offset="1" stop-color="#e30000" stop-opacity="0"/></radialGradient><radialGradient cx="257.06945" cy="247.48746" r="32.59182" gradientUnits="userSpaceOnUse" id="color-5"><stop offset="0" stop-color="#e30000" stop-opacity="0.44706"/><stop offset="1" stop-color="#e30000" stop-opacity="0"/></radialGradient><radialGradient cx="327.60131" cy="245.95704" r="87.61233" gradientTransform="translate(-168.79036,-184.98784) scale(0.70333,0.70333)" gradientUnits="userSpaceOnUse" id="color-6"><stop offset="0" stop-color="#840000"/><stop offset="1" stop-color="#840000" stop-opacity="0"/></radialGradient><linearGradient x1="279.82134" y1="287.87811" x2="279.82134" y2="316.34858" gradientUnits="userSpaceOnUse" id="color-7"><stop offset="0" stop-color="#7a0000" stop-opacity="0.45882"/><stop offset="1" stop-color="#7a0000" stop-opacity="0"/></linearGradient></defs><g transform="translate(33.78816,12)"><g stroke-miterlimit="10"><path d="M-13.5,372v-384h507v384z" fill="#1c4096" stroke="none" stroke-width="0"/><path d="M-33.78816,379.61026v-130.21148h547.57632v130.2115z" fill="#4a2105" stroke="none" stroke-width="0"/><text transform="translate(193.10825,67.37348) scale(0.5,0.5)" font-size="40" xml:space="preserve" fill="#ffffff" stroke="none" stroke-width="1" font-family="&quot;Comic Sans MS&quot;, Sans Serif" font-weight="normal" text-anchor="start"><tspan x="0" dy="0">GOON RIGHT NOW BE FOR </tspan><tspan x="0" dy="46.15px">ITS TO LATE PLEASE!!!</tspan></text><g fill-opacity="0.52941" fill="#000000" stroke="none" stroke-width="0"><path d="M201.23352,260.57565h-17.9801l14.09991,-6.30542h17.9801z"/><path d="M46.83796,295.89475c10.84098,-4.84805 72.74917,-32.53311 72.74917,-32.53311h132.85288c0,0 -59.83915,26.75981 -71.54338,31.99389c-3.83472,1.71487 -7.3334,3.23534 -22.31047,3.23534c-31.33008,0 -92.35901,0 -105.38328,0c-6.03661,0 -9.48579,-1.30048 -6.36491,-2.69612z"/><path d="M154.47146,263.39604l6.30684,-2.8204h62.9303l-6.30685,2.8204z"/><path d="M260.77053,254.49091c-9.41196,1.06167 -26.9351,0.63763 -49.41653,0.21219c-22.48142,-0.42544 -23.63225,-0.3548 -14.22029,-1.41647c9.41196,-1.06167 9.15946,-0.97402 31.64088,-0.54858c22.48143,0.42544 41.40789,0.69119 31.99596,1.75286z"/></g><g stroke="none"><path d="M116.22548,96.31487h-17.9801v-44.03186h17.9801z" fill="#cecbc0" stroke-width="0"/><path d="M40.80902,283.60746c0,-26.94254 0,-180.79978 0,-180.79978h132.85289c0,0 0,148.71517 0,177.80309c0,9.53024 -0.09868,17.9801 -15.07575,17.9801c-31.33008,0 -92.35901,0 -105.38328,0c-6.03661,0 -12.39385,-7.22727 -12.39385,-14.98341z" fill="#e5e3db" stroke-width="0"/><path d="M75.77027,105.30488v-17.98009h62.9303v17.98009z" fill="#cecbc0" stroke-width="0"/><path d="M162.15606,53.50941c-7.03789,5.90014 -25.50925,3.54357 -48.94203,1.17921c-23.43278,-2.36436 -24.42563,-1.97175 -17.38774,-7.87189c7.03789,-5.90014 6.9814,-5.41304 30.41418,-3.04868c23.43279,2.36436 42.95349,3.84121 35.91562,9.74135z" fill="#e5e3db" stroke-width="0"/><text transform="translate(51.02955,161.5996) scale(0.67249,0.67249)" font-size="40" xml:space="preserve" fill="#fffdf5" stroke-width="1" font-family="&quot;Comic Sans MS&quot;, Sans Serif" font-weight="normal" text-anchor="start"><tspan x="0" dy="0">67 lotion</tspan></text></g><path d="M235.05795,285.72652c18.79332,-5.73863 69.37337,-21.1835 79.53196,-24.28548c3.47553,-1.06127 9.23705,-2.03339 12.61427,-2.03339c16.72376,0 150.40067,0 185.04502,0c5.20652,0 3.73179,1.35716 -0.76442,2.7301c-10.45634,3.1929 -56.0363,17.11097 -76.27245,23.29018c-6.48237,1.97942 -11.45343,2.45018 -15.48868,2.45018c-18.52193,0 -156.08266,0 -185.99397,0c-3.67187,0 -3.06229,-0.81091 1.32826,-2.15159z" fill-opacity="0.52941" fill="#000000" stroke="none" stroke-width="0"/><path d="M228.01175,281.64113c0,-16.63501 0,-61.40621 0,-70.39815c0,-3.07638 2.57795,-5.89434 5.95517,-5.89434c16.72376,0 150.40067,0 185.04502,0c5.20652,0 8.17634,3.93412 8.17634,7.91396c0,9.25549 0,49.60084 0,67.51298c0,5.7379 -3.42938,7.10253 -7.46463,7.10253c-18.52193,0 -156.08266,0 -185.99397,0c-3.67187,0 -5.71793,-2.35066 -5.71793,-6.23698z" fill="#1e1e1e" stroke="none" stroke-width="0"/><path d="M235.75159,274.46291c0,-13.22601 0,-48.82228 0,-55.97151c0,-2.44594 2.37759,-4.68642 5.49234,-4.68642c15.42402,0 138.71179,0 170.66364,0c4.80188,0 7.54089,3.1279 7.54089,6.29216c0,7.35877 0,39.43617 0,53.67759c0,4.56203 -3.16285,5.64701 -6.88449,5.64701c-17.08244,0 -143.95218,0 -171.53883,0c-3.3865,0 -5.27354,-1.86893 -5.27354,-4.95883z" fill="#000000" stroke="none" stroke-width="0"/><g stroke="#840000" stroke-width="0"><path d="M295.00789,245.95584c0,-17.99997 14.59186,-32.59182 32.59183,-32.59182c17.99997,0 32.59182,14.59186 32.59182,32.59183c0,17.99997 -14.59185,32.59183 -32.59182,32.59183c-17.99997,0 -32.59183,-14.59186 -32.59183,-32.59182z" fill="url(#color-1)"/><path d="M332.85838,245.95584c0,-17.99997 14.59185,-32.59182 32.59182,-32.59182c17.99997,0 32.59183,14.59186 32.59183,32.59183c0,17.99997 -14.59186,32.59183 -32.59183,32.59183c-17.99997,0 -32.59182,-14.59186 -32.59182,-32.59182z" fill="url(#color-2)"/><path d="M365.45021,245.95584c0,-17.99997 14.59186,-32.59182 32.59183,-32.59182c17.99997,0 32.59182,14.59186 32.59182,32.59183c0,17.99997 -14.59185,32.59183 -32.59182,32.59183c-17.99997,0 -32.59183,-14.59186 -32.59183,-32.59182z" fill="url(#color-3)"/><path d="M257.06945,247.48746c0,-17.99997 14.59185,-32.59182 32.59182,-32.59182c17.99997,0 32.59183,14.59186 32.59183,32.59183c0,17.99997 -14.59186,32.59182 -32.59183,32.59182c-17.99997,0 -32.59182,-14.59185 -32.59182,-32.59182z" fill="url(#color-4)"/><path d="M224.47763,247.48746c0,-17.99997 14.59186,-32.59182 32.59183,-32.59182c17.99997,0 32.59182,14.59186 32.59182,32.59183c0,17.99997 -14.59185,32.59182 -32.59182,32.59182c-17.99997,0 -32.59183,-14.59185 -32.59183,-32.59182z" fill="url(#color-5)"/></g><text transform="translate(239.98782,263.01756) scale(1.42181,1.42181)" font-size="40" xml:space="preserve" fill="#ff3030" stroke="url(#color-6)" stroke-width="2" font-family="Sans Serif" font-weight="normal" text-anchor="start"><tspan x="0" dy="0">11 : 58</tspan></text><path d="M141.43923,314.19699c18.79332,-5.73863 69.37336,-21.1835 79.53196,-24.28548c3.47553,-1.06127 9.23705,-2.03339 12.61427,-2.03339c16.72376,0 150.40067,0 185.04502,0c5.20652,0 3.73179,1.35716 -0.76442,2.7301c-10.45634,3.1929 -56.0363,17.11097 -76.27245,23.29018c-6.48237,1.97942 -11.45343,2.45018 -15.48868,2.45018c-18.52193,0 -156.08266,0 -185.99397,0c-3.67187,0 -3.06228,-0.81091 1.32827,-2.15159z" fill="url(#color-7)" stroke="none" stroke-width="0"/></g></g></svg>