<svg version="1.1" xmlns="http://www.w3.org/2000/svg" xmlns:xlink="http://www.w3.org/1999/xlink" width="224.91234" height="187.40311" viewBox="0,0,224.91234,187.40311"><g transform="translate(-127.54383,-86.19046)"><g fill="#633b29" stroke="#4f2f20" stroke-width="2.5" stroke-miterlimit="10"><path d="M158.90426,171.2256v-26.33281h99.13528v26.33281z"/><path d="M128.79384,203.01036v-26.3328h99.13528v26.3328z"/><path d="M142.4606,234.65712v-26.3328h99.13528v26.3328z"/><path d="M214.07802,106.57833l18.6201,-18.6201l70.09923,70.09923l-18.6201,18.6201z"/><path d="M188.01047,272.04177l-7.42702,-25.26372l68.85605,-20.24229l7.42702,25.26372z"/><path d="M214.07802,201.51717c0,-28.37965 25.59591,-51.38591 57.17005,-51.38591c31.57414,0 79.95811,23.00626 79.95811,51.38591c0,28.37965 -48.38396,51.38591 -79.95811,51.38591c-31.57414,0 -57.17005,-23.00626 -57.17005,-51.38591z"/></g></g></svg>