<svg version="1.1" xmlns="http://www.w3.org/2000/svg" xmlns:xlink="http://www.w3.org/1999/xlink" width="258.18182" height="135" viewBox="0,0,258.18182,135"><g transform="translate(-110.90909,-11.33658)"><g stroke="none" stroke-miterlimit="10"><g stroke-width="0"><path d="M110.90909,146.33658v-135h258.18182v135z" fill="#000000"/><path d="M131.77227,135.42749v-113.18182h216.45547v113.18182z" fill="#fffcf7"/></g><g fill="#1c4096" stroke-width="0.5"><path d="M304.2404,128.34624c-0.72618,1.45237 -2.17855,0.72618 -2.17855,0.72618l-1.54194,-0.78499c-0.88091,-0.58805 -1.75232,-1.19238 -2.6058,-1.82054c-0.44673,0.88469 -1.20033,1.69578 -2.33749,2.38255c-1.87959,1.13514 -2.68601,0.94647 -4.99434,1.2459c-4.13932,-0.00063 -8.1741,-0.84261 -12.31021,-1.02408c-2.49963,-0.10967 -4.18381,0.46486 -6.04458,-1.32986c-0.98237,1.55282 -2.06145,2.95033 -3.18021,4.44237l-0.63166,0.952c0,0 -0.90072,1.35108 -2.2518,0.45036c-1.35108,-0.90072 -0.45036,-2.2518 -0.45036,-2.2518l0.73575,-1.09911c0.8986,-1.19784 1.77582,-2.32496 2.58723,-3.5369c-1.45484,0.57733 -2.92307,1.05553 -4.46817,1.39686c-0.39041,0.26938 -1.23043,0.65848 -2.07045,-0.18155c-1.14819,-1.1482 0,-2.2964 0,-2.2964l1.00067,-0.61499c0.75775,-0.14957 1.49216,-0.33925 2.21322,-0.56189c-1.87412,0.21484 -3.75493,0.35793 -5.65514,0.35943h-1.02556c0,0 -1.62379,0 -1.62379,-1.6238c0,-1.6238 1.62379,-1.6238 1.62379,-1.6238h1.02556c3.20223,0.00274 6.35038,-0.43354 9.50447,-0.91564c-0.12071,-0.70585 -0.22493,-1.3627 -0.32592,-1.91583c-0.00588,-0.03223 0.22761,-1.82 -0.57347,-1.84828c-1.81433,-0.06405 -3.64882,0.39822 -5.50331,0.22912c-1.96154,-0.17887 -4.00287,-0.75625 -5.93202,-1.1372c-5.21125,-3.46765 -8.52496,-12.24831 -6.58204,-18.39935c0.87585,-2.77282 2.88527,-5.29148 4.78014,-7.43094l0.23636,-0.24033c0,0 0.44132,-0.44132 1.05036,-0.50315c-1.32462,-0.68458 -0.70229,-2.08481 -0.70229,-2.08481c2.05789,-4.61405 5.2916,-8.60632 8.89489,-12.12448c0.47785,-0.46655 3.9872,-4.10932 5.23956,-3.67354c1.21774,0.42373 1.81948,1.92372 2.27038,3.13166c0.29906,0.80117 -0.06442,1.71004 -0.14532,2.56137c-0.25702,2.7047 -0.50369,5.30397 -0.50335,8.02966c0.0001,0.79766 0.06342,1.59784 0,2.39296c-0.03508,0.43976 -0.44458,0.87587 -0.2938,1.29047c0.08718,0.23972 0.51056,0.02053 0.76522,0.00577c1.00234,-0.05808 2.01534,-0.34154 2.89859,-0.81896c0.92741,-0.50129 1.82344,-1.05858 2.73516,-1.58787c1.1212,0.7297 1.84371,1.72577 3.17949,1.55049c0.93251,-0.12237 1.95076,-1.00839 2.76859,-0.54395c1.21815,0.69178 1.88049,3.63447 1.84315,5.28168c0.30593,-0.31402 0.63338,-0.53365 1.00319,-0.41172c0.73896,0.24364 1.22354,0.95665 1.57893,1.71545c0.81613,-1.24665 2.15911,-2.42512 2.87595,-3.69195c0.74708,-1.32029 1.04734,-2.85838 1.76559,-4.19457c0.56106,-1.04376 0.81815,-2.84365 1.99925,-2.93954c1.26666,-0.10283 2.03895,1.55788 2.83697,2.54691c1.42356,1.76432 1.5724,5.12864 2.20662,7.25166c0.62806,4.0392 1.60209,7.97701 0.09465,11.89994l-0.19854,0.49635c0.23951,3.10585 -0.33335,5.0812 -3.16044,6.9291c-0.77344,0.50556 -2.4746,1.41166 -3.49894,1.64448c0.19621,0.13738 0.3906,0.31692 0.58161,0.52633c1.88905,-0.82627 3.81856,-1.50717 5.79202,-2.16746l0.13063,-0.08331c0,0 1.45236,-0.72619 2.17855,0.72619c0.72618,1.45237 -0.72618,2.17855 -0.72618,2.17855l-0.55308,0.25853c-1.38502,0.46287 -2.74768,0.93316 -4.08828,1.46394c2.7342,1.0445 5.5024,1.77678 8.31306,2.61966l0.55967,0.18577c0,0 1.54047,0.51349 1.02698,2.05396c-0.51349,1.54047 -2.05396,1.02698 -2.05396,1.02698l-0.46588,-0.15608c-2.11851,-0.63581 -4.21241,-1.21478 -6.28739,-1.90068c0.28828,0.60795 0.51624,1.22602 0.66546,1.84203c1.30874,1.05627 2.6836,2.03177 4.0835,2.96373l1.19287,0.58241c0,0 1.45237,0.72618 0.72618,2.17855zM291.25104,117.57791c-0.16003,-0.32006 -0.21427,-0.60487 -0.20155,-0.8544c-0.20896,-0.27663 -0.40742,-0.55946 -0.56288,-0.86812c-0.49662,-0.986 -1.49451,-2.01522 -1.21171,-3.08239c0.32531,-1.2276 3.25856,-1.89635 4.29298,-2.3555c2.56588,-1.13891 3.23601,-2.18806 3.01571,-4.7529c-0.05319,-0.24281 -0.04189,-0.47762 -0.01339,-0.6624c0.02414,-0.1878 0.07944,-0.42003 0.20101,-0.6411l0.23602,-0.59004c1.31926,-3.1238 0.24571,-6.73716 -0.24719,-9.97858c-0.48913,-1.62329 -0.75094,-3.29117 -1.29763,-4.89507c-0.13684,0.30203 -0.2831,0.601 -0.41087,0.90163c-0.9481,2.23081 -2.8593,6.06244 -5.02401,7.40827c-1.06637,0.66298 -2.25988,1.79541 -3.47096,1.46376c-0.93059,-0.25484 -0.80561,-1.76488 -1.04336,-2.69998c-0.04293,-0.16888 0.40808,-0.50581 0.23865,-0.4651c-0.90615,0.21777 -1.79753,1.50888 -2.59834,1.03218c-0.67394,-0.40117 -0.95069,-4.45984 -0.92717,-5.3324c0.00696,-0.25823 0.47548,-0.77009 0.21852,-0.74352c-0.42741,0.04418 -0.56716,0.75765 -0.99178,0.82346c-2.43124,0.3768 -2.38728,-0.12792 -3.65753,-1.52618c-1.83769,2.05589 -6.77127,4.05571 -8.98437,1.01746c-0.6216,-0.85336 -0.23795,-2.09933 -0.2938,-3.1536c-0.14219,-2.68435 -0.06341,-5.51423 0.1781,-8.18597c0.0783,-0.86614 0.23116,-1.72391 0.34411,-2.58621c0.04919,-0.37548 0.07942,-0.75393 0.13024,-1.1291c-1.24237,1.41057 -2.82432,2.50903 -4.07301,3.91855c-2.44511,2.76005 -4.62368,5.60351 -6.12032,8.98407c0,0 -0.42464,0.95546 -1.35912,0.99223c0.11251,0.07198 0.22614,0.16312 0.33977,0.27675c1.14819,1.1482 0,2.2964 0,2.2964l-0.10548,0.10152c-1.59217,1.78399 -3.36253,3.92385 -4.108,6.24313c-1.37366,4.27368 0.97133,11.92355 4.69906,14.41841c2.27499,0.3643 4.43084,0.91101 6.74159,0.90735c1.46219,-0.00232 2.99437,-0.55711 4.38529,-0.10617c4.55599,1.47705 2.49735,8.29603 4.7561,11.49761c0.81918,1.16111 2.94224,0.52542 4.09348,0.57504c4.01479,0.17302 7.95092,1.02775 11.96125,1.02703c0.80019,-0.0952 1.61469,-0.10744 2.40058,-0.2856c4.70808,-1.0673 1.42548,-5.52491 -0.45954,-8.10935c-0.38045,-0.07194 -0.78255,-0.30531 -1.07047,-0.88116z"/><path d="M259.26798,101.58728c1.41946,-0.78858 2.20804,0.63087 2.20804,0.63087l0.73153,1.34907c0.28779,0.33866 0.45922,0.83115 0.86338,1.01599c0.33189,0.15179 0.72319,-0.1091 1.08786,-0.12361c1.00429,-0.03996 4.36668,0.41035 5.20788,-0.3915c0.237,-0.22591 -0.10274,-0.64682 -0.16292,-0.96866c-0.20369,-1.0893 -0.39469,-2.86442 -1.83841,-3.09781c-0.64652,-0.10452 -2.56356,1.56126 -2.59333,1.58351c0,0 -1.31322,0.95506 -2.26829,-0.35816c-0.95507,-1.31322 0.35815,-2.26829 0.35815,-2.26829c1.36732,-0.97333 2.97803,-2.52428 4.9274,-2.17687c2.83893,0.50595 4.69693,3.40431 4.65678,6.13219c-0.01557,1.05787 0.17466,2.32258 -0.50477,3.13357c-1.60335,1.91382 -5.56643,1.72048 -7.78248,1.65961c-0.77769,-0.02136 -1.62949,0.21345 -2.33066,-0.12361c-0.90851,-0.43672 -1.47553,-1.37378 -2.21329,-2.06068l-0.97773,-1.7276c0,0 -0.78859,-1.41945 0.63087,-2.20803z"/><path d="M283.62094,106.82103l-1.72324,0.34458c-0.21656,0.03938 -0.43312,0.07877 -0.64968,0.11815c0.42014,0.6108 0.7217,0.96192 1.45603,1.90494l0.58727,0.41264c0,0 1.26797,1.01438 0.25359,2.28235c-1.01438,1.26797 -2.28234,0.2536 -2.28234,0.2536l-1.122,-0.95477c-1.64785,-2.12103 -5.12945,-5.84188 -2.13855,-8.57866c0.70925,-0.64899 1.87747,-0.43861 2.83393,-0.53556c3.6498,-0.36992 5.83666,0.47038 8.92528,2.27064c0,0 1.40261,0.81818 0.58442,2.22078c-0.81819,1.4026 -2.22078,0.58442 -2.22078,0.58442c-1.05282,-0.61466 -2.11193,-1.16791 -3.20991,-1.56191c-0.17166,1.01431 -1.294,1.23879 -1.294,1.23879z"/><path d="M269.90358,105.5936c-1.56132,0.44609 -2.00741,-1.11523 -2.00741,-1.11523l-0.37279,-1.32412c-0.11124,-0.77429 -0.51054,-1.55526 -1.09427,-2.076c0,0 -1.14819,-1.1482 0,-2.29639c1.14819,-1.1482 2.2964,0 2.2964,0c0.96415,1.02835 1.6626,2.3626 1.98239,3.73548l0.31091,1.06884c0,0 0.44609,1.56132 -1.11523,2.00741z"/><path d="M278.00164,123.00577c-0.09515,-0.28545 -0.11977,-0.53565 -0.09673,-0.75385c-0.15539,-0.01784 -0.32327,-0.0598 -0.50419,-0.13217c-1.50765,-0.60306 -0.9046,-2.11072 -0.9046,-2.11072c1.3019,-3.03308 4.42172,-5.42402 8.01704,-4.00951c3.74604,1.4738 4.16582,5.53441 0.45029,7.47428c-0.08902,0.04648 -4.13486,0.40767 -4.76155,0.46467l-0.1463,0.09427c0,0 -1.54047,0.51349 -2.05396,-1.02698zM279.64956,120.77696l0.25832,-0.07273c0.63194,-0.05742 1.26235,-0.13562 1.89584,-0.17227c0.62878,-0.03639 1.27108,0.07564 1.8889,-0.04676c1.30034,-0.25763 0.55724,-1.21985 -0.23341,-1.41385c-0.85509,-0.20981 -1.80095,-0.12956 -2.63735,0.14547c-0.80985,0.26631 -0.97467,0.88541 -1.1723,1.56016z"/><path d="M224.09876,104.47016c-0.26695,-1.6017 1.33475,-1.86866 1.33475,-1.86866l1.02555,-0.17092c2.83008,-0.46441 5.45037,-0.19208 8.30047,-0.19302c5.24173,-0.00173 10.48345,0 15.72517,0c0,0 1.6238,0 1.6238,1.6238c0,1.6238 -1.6238,1.6238 -1.6238,1.6238c-5.24173,0 -10.48345,0.00168 -15.72517,0c-2.66544,-0.00086 -5.13093,-0.29815 -7.76657,0.14883l-1.02555,0.17092c0,0 -1.6017,0.26695 -1.86865,-1.33475z"/><path d="M240.00696,121.91113c-1.29904,0.97428 -2.27331,-0.32476 -2.27331,-0.32476l-0.51278,-0.68371c-1.80416,-2.40785 -3.90387,-4.47859 -5.79026,-6.80936c-1.87017,-2.31073 -3.27175,-4.9465 -4.81542,-7.48156c-4.0044,6.54108 -8.04065,13.05299 -12.00167,19.62462l-0.41338,0.48078c0,0 -1.1482,1.1482 -2.29639,0c-1.14819,-1.1482 0,-2.29639 0,-2.29639l-0.07152,0.13893c4.17693,-6.92755 8.43793,-13.78972 12.65361,-20.69041c0,0 0.71218,-1.16539 1.89903,-0.70543c1.35209,-0.84667 2.21983,0.50315 2.21983,0.50315c1.7974,2.79774 3.28376,5.83168 5.38154,8.42243c1.90047,2.34707 4.01221,4.43959 5.8327,6.8647l0.51278,0.68371c0,0 0.97428,1.29904 -0.32476,2.27331z"/><path d="M259.58627,121.03891c-1.45236,0.72619 -2.17855,-0.72619 -2.17855,-0.72619l-0.28188,-0.57445c-2.30397,-3.85258 -4.106,-7.98597 -6.22428,-11.96215c-0.95583,2.98292 -2.30453,5.89845 -2.55997,9.05051c-0.28956,3.57296 0.18199,6.82291 -0.53775,10.42817l0.03153,0.0234c0,0 0,1.6238 -1.6238,1.6238c-1.6238,0 -1.62379,-1.6238 -1.62379,-1.6238l0.03153,-0.6603c0.70075,-3.49707 0.21214,-6.59925 0.48781,-10.08293c0.31053,-3.92427 2.19313,-7.43628 3.11858,-11.18725c0,0 0.18725,-0.749 0.81999,-1.08496c-0.09014,-0.47807 -0.02604,-1.14252 0.77453,-1.62286c1.3924,-0.83544 2.22782,0.55696 2.22782,0.55696c2.89378,4.82507 4.97868,10.08142 7.86259,14.87055l0.40183,0.79295c0,0 0.72618,1.45237 -0.72618,2.17855z"/></g><g fill="#1c4096" stroke-width="0.5"><path d="M202.71684,128.71068c-1.73241,-0.24749 -1.48493,-1.9799 -1.48493,-1.9799l0.27394,-1.90841c1.89101,-8.52773 7.10025,-16.77744 12.44553,-23.65534c0,0 0.82134,-1.05602 1.95108,-0.60328c0.27373,-0.07233 0.48292,-0.07232 0.48292,-0.07232h0.21363c0.08124,1.23487 0.19931,2.49631 0.32798,3.5h-0.54161c0,0 -0.0702,0 -0.18248,-0.01406c-4.81927,6.28283 -9.54183,13.78652 -11.25377,21.47258l-0.25239,1.77581c0,0 -0.24749,1.73241 -1.9799,1.48492z"/><path d="M246.802,51.43628c-0.24749,1.73241 -1.97989,1.48493 -1.97989,1.48493l-1.71867,-0.24997c-0.4156,0.00049 -0.82963,0.00981 -1.24267,0.02472c0.08725,0.51498 0.07582,1.07092 0.18935,1.57748c0.82778,3.69358 1.21125,6.95493 -2.34888,9.43935c-1.97887,1.38095 -4.43022,1.11314 -6.65011,1.55909c-3.56285,0.71574 -7.94895,2.07246 -11.64531,1.59737c-1.7426,-0.22397 -3.56402,-0.80399 -5.34157,-1.2458c0.0247,0.46668 0.06182,0.93042 0.10814,1.39202c3.45875,1.54395 6.65097,3.21901 9.98612,4.99882c1.09251,0.58302 3.32729,1.50176 4.17039,2.49004c4.49561,5.26975 -2.70293,14.2185 -6.45276,17.71822c-0.98075,0.91533 -2.15012,1.62022 -3.09543,2.57211l-1.31579,1.31579c0,0 -1.23744,1.23744 -2.47487,0c-0.26042,-0.26042 -0.41124,-0.52084 -0.48703,-0.76973c-0.12562,1.94878 -0.21127,3.89776 -0.20974,5.84809c0,0 0,0.26858 -0.10522,0.59531c1.01624,-0.15338 1.65341,0.80239 1.65341,0.80239c1.6558,2.54773 1.63943,5.01189 2.5743,7.79109c1.13394,3.37099 2.51705,6.58041 4.1138,9.76543l0.4241,2.07388c0,0 0.2877,1.72619 -1.43849,2.01389c-1.72619,0.2877 -2.01389,-1.43849 -2.01389,-1.43849l-0.10222,-1.08402c-1.66362,-3.33545 -3.13823,-6.69804 -4.30724,-10.23456c-0.80606,-2.43851 -0.67933,-4.79651 -2.16254,-6.94576c0,0 -0.52681,-0.79023 -0.2221,-1.59449c-0.05285,0.00352 -0.10747,0.00535 -0.16392,0.00535c-1.75,0 -1.75,-1.75 -1.75,-1.75c0.00113,-1.53547 0.0558,-3.06999 0.14099,-4.60416c-0.48069,0.30153 -1.02256,0.30152 -1.02256,0.30152l-1.23388,-0.29391c-3.78728,-2.52795 -8.05168,-4.20319 -11.97666,-6.50098c-2.18053,-1.27654 -5.06349,-2.42334 -4.54916,-5.8667c0.10785,-0.72204 3.45108,-3.36778 4.20224,-4.05663c4.39171,-4.02742 9.01548,-7.27461 13.86969,-10.67596c0,0 0.298,-0.2086 0.71738,-0.29973c-0.17276,-1.19979 -0.31758,-2.4062 -0.37927,-3.63187c-5.53144,-0.08298 -9.9669,-0.74668 -14.6018,-4.29245c-1.8537,-1.4181 -3.75863,-2.6419 -4.7542,-4.89749c-2.11771,-4.79792 -2.37724,-11.29209 -3.01867,-16.46192c-0.75337,-3.37692 -4.05306,-12.47459 0.49335,-14.79527c1.00113,-0.51102 2.28395,0.13717 3.32509,0.56078c2.92745,1.19111 5.11124,4.69891 8.23403,5.63791c1.25331,0.37686 3.59843,-2.32357 4.67186,-2.39946c0.63815,-0.04512 0.9664,1.09611 1.60467,1.05282c0.71201,-0.04829 1.02043,-1.12545 1.71756,-1.27813c2.91371,-0.63817 3.89034,1.98727 6.55707,0.41377c1.21223,-1.7773 1.78055,-3.07091 2.65939,-5.00829c0.46677,-1.02897 0.52401,-2.70608 1.62094,-2.97697c2.68911,-0.66409 5.09778,3.43152 6.24382,5.15503c4.69108,7.05488 0.78883,13.4513 0.73042,20.94365c-0.00391,0.50079 0.99731,0.13972 1.4977,0.11919c0.65483,-0.02687 1.31078,0.00294 1.96616,0.0044c0.2558,0.03864 0.53545,0.08667 0.83367,0.14403c2.34853,-1.01792 4.67191,-2.09019 7.00233,-3.14947l0.98731,-0.15686c0,0 1.75,0 1.75,1.75c0,0.62389 -0.22242,1.02536 -0.50868,1.2837c0.51053,-0.12503 1.02257,-0.24589 1.53695,-0.36045l1.40517,-0.47818c0,0 1.66019,-0.5534 2.21359,1.10679c0.43453,1.30357 -0.49569,1.92478 -0.91537,2.13151c0.49072,0.21596 1.14631,0.71625 0.98759,1.82727zM236.38538,52.9388c0,0 -0.79126,-0.00001 -1.30966,-0.53206c-0.49226,0.00594 -1.31765,-0.1416 -1.6483,-1.12651c-0.28219,-0.07283 -0.55435,-0.13844 -0.80981,-0.19608c-0.32225,0.04203 -0.74898,0.0257 -1.13324,-0.22265c-0.08023,-0.01267 -0.15478,-0.02348 -0.22304,-0.03236c-0.6737,0.00173 -3.90268,0.0418 -4.22985,-0.12881c-0.97936,-0.51069 -1.87755,-1.36128 -2.30629,-2.37918c-0.17194,-0.40821 0.35223,-3.77233 0.4541,-4.4851c0.54101,-3.78547 1.27675,-7.36136 1.03945,-11.20741c-0.14153,-2.29374 -1.48838,-4.12434 -2.81453,-5.91914c-0.1784,-0.24145 -0.47066,-0.54832 -0.74227,-0.86132c-0.17262,0.65524 -0.46968,1.28568 -0.75714,1.89896c-0.35939,0.76675 -2.37982,3.42528 -2.76714,3.95057c-2.47735,1.39554 -2.5356,1.97749 -5.52276,1.45743c-0.93744,-0.1632 -1.75286,-1.34023 -2.657,-1.04366c-0.89846,0.2947 -1.55002,1.2833 -2.49298,1.35345c-0.62367,0.04639 -0.93351,-0.96822 -1.55322,-1.05244c-0.32119,-0.04364 -0.35332,0.55849 -0.60822,0.75872c-1.3992,1.09912 -2.79198,1.92363 -4.71992,1.57866c-2.25297,-0.40312 -5.57637,-3.15481 -7.33632,-4.55684c-0.59161,-0.4713 -1.22733,-0.88784 -1.79807,-1.3842c-0.15318,-0.13321 -0.21565,-0.63545 -0.35913,-0.49184c-0.55258,0.5531 -0.01648,1.56372 -0.00729,2.34551c0.03454,2.93613 0.9186,5.78215 1.55327,8.64869c0.62453,4.96159 0.86424,10.99549 2.77081,15.64334c1.37255,3.34601 6.96623,6.27167 10.31674,6.88569c1.93441,0.35451 3.96112,0.2845 5.94156,0.2461c0.16142,-0.4355 0.5158,-0.93834 1.29386,-1.04713c-0.30038,-0.10386 -0.60449,-0.3208 -0.8718,-0.72177c-0.97072,-1.45609 0.48537,-2.42681 0.48537,-2.42681l1.14574,-0.7088c0.71066,-0.266 1.40362,-0.50892 2.08924,-0.72619c-0.30021,-0.03511 -0.60092,-0.07163 -0.90237,-0.10927l-0.0461,0.01351c0,0 -1.75,0 -1.75,-1.75c0,-1.75 1.75,-1.75 1.75,-1.75l0.48022,0.01351c2.30568,0.28849 4.56308,0.51487 6.8882,0.5128c0,0 1.75,0 1.75,1.75c0,0.07997 -0.00365,0.15628 -0.01063,0.2291c0.49024,0.18325 1.06325,0.61162 1.06325,1.61301c0,1.75 -1.75,1.75 -1.75,1.75c-0.57704,-0.00247 -1.13296,0.01995 -1.67432,0.06515c-0.89806,1.19166 -1.81587,2.36919 -2.77076,3.5157l-0.80432,0.4839c0.96105,0.25027 1.9193,0.47849 2.86056,0.61006c3.2506,0.45438 7.33759,-0.9387 10.45996,-1.56052c1.71702,-0.34194 3.88714,-0.11532 5.45515,-1.07249c1.88802,-1.1525 1.77453,-5.37106 0.7827,-7.06928c-0.15929,-0.27273 -0.46501,-0.5379 -0.86665,-0.78998c-0.44429,0.01687 -0.88972,0.02754 -1.33705,0.02799zM217.14626,60.06847c0.01676,-0.02011 0.03351,-0.04021 0.05025,-0.06033c-0.09485,0.0326 -0.18997,0.06571 -0.28542,0.09933zM215.94722,60.45895l-0.43321,0.34382c0,0 -0.29093,0.19396 -0.6994,0.27843c0.39317,0.10157 0.65916,0.31389 0.83912,0.55468c0.00789,-0.71152 0.52114,-1.16754 0.80976,-1.36803c-0.17083,0.06221 -0.34284,0.12594 -0.51627,0.1911zM216.99005,93.63557l1.31579,-1.31579c3.2061,-3.18708 6.30219,-5.92086 8.67121,-9.90409c0.72695,-1.22227 2.0216,-4.32116 0.72797,-5.59505c-0.4108,-0.40453 -3.11891,-1.67832 -3.19803,-1.72049c-2.6125,-1.39248 -5.12413,-2.71843 -7.7568,-3.96609c0.24504,1.54375 0.48409,3.08951 0.59132,4.66753c0.42013,6.18326 -0.32918,12.32985 -0.7663,18.47627c0.16284,-0.39028 0.41484,-0.64229 0.41484,-0.64229zM212.22446,93.42041c0.24714,0.04559 0.5981,0.15184 0.89133,0.39955c0.43742,-5.91175 1.12213,-11.82369 0.73452,-17.77027c-0.06977,-1.07038 -0.19876,-2.12734 -0.34972,-3.17942c-4.4655,3.12577 -8.71146,6.14845 -12.76828,9.86569c-0.95591,0.87589 -2.66076,1.06521 -3.16618,2.25915c-0.45129,1.06606 1.79767,1.48354 2.81926,2.02804c3.94246,2.10133 8.08996,3.96149 11.83907,6.39726z"/><path d="M227.1453,57.14407c-0.68936,-1.60851 0.91914,-2.29786 0.91914,-2.29786c0.36114,-0.15461 4.01483,-1.72901 4.11042,-1.72044c2.24498,0.20131 4.6797,2.33671 3.74781,4.98534c-1.03088,2.92998 -3.48006,2.09123 -5.42857,1.89723l-0.10405,-0.06992l-0.01174,0.04107l-1.8049,-0.51569c-0.75171,-0.19637 -1.30643,-0.88005 -1.30643,-1.69329c0,-0.11254 0.01062,-0.2226 0.03092,-0.32923c-0.05458,-0.08906 -0.10571,-0.18782 -0.15258,-0.2972z"/><path d="M208.50435,45.14577c0.11634,-0.23268 0.23268,-0.46535 0.34902,-0.69803c-1.95332,-0.18054 -3.89382,-0.40157 -5.81962,-0.72272c-0.09167,1.13759 -0.14266,2.64672 0.37804,2.85458c0.96842,0.38658 3.5948,0.18877 4.39813,0.23375c0.18391,0.01029 0.35805,0.02151 0.52327,0.03269zM225.22541,39.15774c0.98221,1.84738 2.62841,4.24406 1.33283,6.3749c-1.83997,3.02618 -7.64252,1.96961 -11.02544,0.74874c-0.82609,1.62468 -1.24355,2.85469 -3.10163,3.84384c-2.07456,1.10439 -9.13361,0.54293 -10.96692,-0.6375c-2.31731,-1.49208 -1.90894,-4.1545 -1.83788,-6.45141c-0.54011,-0.13044 -1.07895,-0.27173 -1.61648,-0.42524c0,0 -1.68267,-0.48077 -1.20191,-2.16343c0.48076,-1.68266 2.16343,-1.2019 2.16343,-1.2019c4.41968,1.26338 8.94613,1.63659 13.52588,1.99723l1.30217,0.20603c2.59057,-2.05569 5.05211,-4.25772 7.79224,-6.08447l1.18783,-1.19987c0,0 1.23744,-1.23743 2.47487,0c1.23744,1.23743 0,2.47487 0,2.47487l-1.07872,1.06972c0.80643,0.2904 1.0022,1.08152 1.04973,1.4485zM223.58095,43.69258c0.07907,-0.14981 -0.29563,-0.90259 -0.70873,-1.6519c0,0.63967 0,1.27935 0,1.91902c0.31105,0.03793 0.57218,-0.00845 0.70873,-0.26713zM217.20015,43.20096c0.72825,0.23452 1.40589,0.34367 2.17207,0.3967c0,-0.72903 0,-1.5058 0,-2.17815c-0.72519,0.59096 -1.44624,1.18868 -2.17207,1.78146z"/></g></g></g></svg>