<svg version="1.1" xmlns="http://www.w3.org/2000/svg" xmlns:xlink="http://www.w3.org/1999/xlink" width="33.8383" height="33.19817" viewBox="0,0,33.8383,33.19817"><g transform="translate(-116.20054,-87.1332)"><g stroke-miterlimit="10"><path d="M141.57568,119.49882c-2.43215,1.46884 -9.57795,-6.1234 -9.57795,-6.1234c0,0 -8.32663,6.28174 -10.47653,4.42178c-2.15176,-1.85988 2.86333,-11.00488 2.86333,-11.00488c0,0 -8.54599,-5.97839 -7.44153,-8.59747c1.10446,-2.62108 11.35015,-0.67721 11.35015,-0.67721c0,0 3.04263,-9.97477 5.87537,-9.7363c2.83659,0.24033 4.15472,10.5871 4.15472,10.5871c0,0 10.42691,-0.18885 11.07168,2.58094c0.65047,2.76794 -8.78254,7.22024 -8.78254,7.22024c0,0 3.40123,9.86035 0.96331,11.32919z" fill="#ffff00" stroke="#000000" stroke-width="1.28786"/><path d="M136.83913,112.26332c-1.22467,0.73824 -4.81668,-3.07885 -4.81668,-3.07885c0,0 -4.18331,3.15705 -5.26304,2.22233c-1.07965,-0.93472 1.43833,-5.52818 1.43833,-5.52818c0,0 -4.29203,-3.00641 -3.73887,-4.32069c0.55516,-1.31628 5.70177,-0.33957 5.70177,-0.33957c0,0 1.52994,-5.01316 2.95487,-4.89103c1.42307,0.12013 2.0831,5.31836 2.0831,5.31836c0,0 5.24208,-0.09354 5.56632,1.2971c0.32816,1.39256 -4.41031,3.62823 -4.41031,3.62823c0,0 1.70539,4.95406 0.4845,5.69229z" fill="#ffffff" stroke="none" stroke-width="2.57572"/></g></g></svg>