<svg version="1.1" xmlns="http://www.w3.org/2000/svg" xmlns:xlink="http://www.w3.org/1999/xlink" width="507" height="384" viewBox="0,0,507,384"><g transform="translate(14.25,15)"><g stroke-miterlimit="10"><path d="M-14.25,369v-384h507v384z" fill="#1c4096" stroke="none" stroke-width="0"/><text transform="translate(9.72866,99.56752) scale(0.5,0.5)" font-size="40" xml:space="preserve" fill="#ffffff" stroke="none" stroke-width="1" font-family="&quot;Comic Sans MS&quot;, Sans Serif" font-weight="normal" text-anchor="start"><tspan x="0" dy="0">Now that </tspan><tspan x="0" dy="48px">its november...</tspan></text><path d="M198.34594,352.80966v-276.96897h254.25677v276.96897z" fill-opacity="0.45098" fill="#000000" stroke="none" stroke-width="0"/><g><path d="M189.6703,343.69593v-277.50285h254.74687v277.50285z" fill="#f1f1f1" stroke="#9c9c9c" stroke-width="4"/><path d="M195.69737,136.04448v-8.28642h243.4221v8.28642z" fill="#9c9c9c" stroke="none" stroke-width="0"/><path d="M386.87261,343.38902v-215.63095h8.24398v215.63095z" fill="#9c9c9c" stroke="#000000" stroke-width="0"/><path d="M436.1732,343.38902v-215.63095h8.24397v215.63095z" fill="#9c9c9c" stroke="#000000" stroke-width="0"/><path d="M436.1732,343.38902v-215.63095h8.24397v215.63095z" fill="#9c9c9c" stroke="#000000" stroke-width="0"/><path d="M337.57203,343.38902v-215.63095h8.24398v215.63095z" fill="#9c9c9c" stroke="#000000" stroke-width="0"/><path d="M288.27146,343.38902v-215.63095h8.24397v215.63095z" fill="#9c9c9c" stroke="#000000" stroke-width="0"/><path d="M238.97088,343.38902v-215.63095h8.24397v215.63095z" fill="#9c9c9c" stroke="#000000" stroke-width="0"/><path d="M189.6703,343.38902v-215.63095h8.24397v215.63095z" fill="#9c9c9c" stroke="#000000" stroke-width="0"/><path d="M194.6107,186.37679v-8.28641h244.5978v8.28641z" fill="#9c9c9c" stroke="none" stroke-width="0"/><path d="M196.80582,235.88045v-8.28642h240.47582v8.28642z" fill="#9c9c9c" stroke="none" stroke-width="0"/><path d="M196.80582,286.21275v-8.28642h240.47582v8.28642z" fill="#9c9c9c" stroke="none" stroke-width="0"/><path d="M195.69737,343.38902v-8.28642h244.5978v8.28642z" fill="#9c9c9c" stroke="none" stroke-width="0"/><text transform="translate(219.69118,109.46877) scale(0.87845,0.87845)" font-size="40" xml:space="preserve" fill="#9c9c9c" stroke="none" stroke-width="1" font-family="&quot;Comic Sans MS&quot;, Sans Serif" font-weight="normal" text-anchor="start"><tspan x="0" dy="0">NOVEMBER</tspan></text><path d="M197.57442,154.03163c-0.0904,0 -0.17629,-0.00571 -0.25785,-0.01658c-2.1007,6.71103 1.63039,14.67668 7.01545,17.63064c4.08923,2.24313 8.89329,2.07325 13.23817,2.28171c6.63356,-0.77876 12.32755,-1.44506 18.23199,-5.63354c0.86667,-0.6148 1.98158,-0.82507 2.63074,-1.77404c2.15662,-3.15266 1.46089,-11.18584 0.32549,-14.58927c-4.02767,-12.07318 -15.47073,-17.60181 -25.21078,-15.54418c-4.09685,1.42121 -7.93382,2.60091 -11.58769,5.43225c-0.55831,0.43263 -1.78075,1.23305 -2.15282,2.18766c5.74647,-4.21866 13.71012,-3.85268 19.9635,-4.2105c0,0 1.7975,-0.10285 1.87921,2.15998c0.08171,2.26283 -1.71581,2.36569 -1.71581,2.36569c-6.36996,0.3645 -15.56958,-0.48031 -20.5072,5.71902c-0.01778,0.02232 -0.03545,0.04466 -0.05303,0.06705v1.65896c0,0 0,2.26516 -1.79937,2.26516zM195.77309,148.42337c-0.01461,-2.22789 -0.06909,-3.95237 0.74975,-6.26466c2.38119,-6.72404 11.3545,-8.5069 16.2511,-10.19674c13.19927,-2.75272 31.54199,7.72677 30.33559,27.40374c-0.19681,3.21012 -0.15528,7.32706 -1.90782,10.04809c-0.88518,1.37434 -2.3803,1.8828 -3.58562,2.79286c-6.29523,4.75314 -12.81008,5.43036 -19.94711,6.24938c-4.9162,-0.22297 -10.23991,-0.13764 -14.85637,-2.7036c-8.32077,-4.62492 -12.82827,-17.94476 -7.03951,-27.32905z" fill="#ff0000" stroke="none" stroke-width="0.5"/><text transform="translate(209.0485,165.33339) scale(0.73657,0.73657)" font-size="40" xml:space="preserve" fill="#000000" stroke="none" stroke-width="1" font-family="Sans Serif" font-weight="normal" text-anchor="start"><tspan x="0" dy="0">1</tspan></text></g></g></g></svg>