<svg version="1.1" xmlns="http://www.w3.org/2000/svg" xmlns:xlink="http://www.w3.org/1999/xlink" width="181.22774" height="360.6359" viewBox="0,0,181.22774,360.6359"><g transform="translate(-149.38615,-19.93634)"><g fill="#633b29" stroke="none" stroke-width="NaN" stroke-miterlimit="10"><path d="M149.38615,380.57225v-60.61631c1.78032,-1.46206 3.21245,-3.81428 3.21245,-7.59861c0,-3.78434 -1.43213,-6.13656 -3.21245,-7.59862v-19.23136c2.57552,-0.14423 5.16842,-0.1979 7.71062,-0.6307c2.35127,-0.4003 4.48897,-1.75501 6.85606,-2.04762c6.05771,-0.74883 12.40014,0.27448 18.39385,-0.55009l1.45565,1.16452c1.72096,1.4011 3.91696,2.24107 6.30915,2.24107c5.52284,0 10,-4.47715 10,-10v-2.71502c0,-8.09677 0.84394,-16.70711 -0.04866,-24.74182c-0.37482,-3.3739 -1.79838,-6.63672 -2.02167,-10.02076c-0.13625,-2.06477 0.29128,-4.17418 -0.09505,-6.20706c-0.54459,-2.86557 -1.65366,-5.59913 -2.66834,-8.33381c-0.17011,-0.45846 -0.76727,-0.70634 -0.86382,-1.18571c-0.44993,-2.23395 0.41425,-4.56251 0.21884,-6.83292c-0.38564,-4.48057 -0.63008,-8.70562 -0.63008,-13.26849c0,-4.49236 -0.33134,-8.78003 -0.72743,-13.20298c-0.16824,-1.87866 0.17448,-3.79584 -0.13177,-5.65698c-0.19782,-1.20224 -1.13375,-2.1961 -1.35751,-3.39378c-0.77033,-4.12309 -0.11521,-8.70595 -0.57324,-12.90587c-0.61866,-5.67291 -2.81189,-11.30746 -3.39378,-16.96889c-0.48341,-4.70323 -0.4718,-9.40779 -1.57746,-14.08504c-0.74955,-3.17078 -1.76298,-6.23427 -2.46881,-9.43494c-0.07295,-1.79489 0.14725,-3.62601 -0.21884,-5.38469c-0.48869,-2.34767 -2.3036,-4.55844 -2.52244,-7.06937c-0.23573,-2.70477 0.25436,-5.44199 0,-8.14507c-0.34739,-3.69173 -1.78683,-8.90604 -0.78427,-12.49846c0.32752,-1.17356 1.15991,-2.19151 1.35751,-3.39378c0.32254,-1.96245 0.1421,-3.9752 0.18044,-5.96361c0.14075,-7.29913 -1.08845,-15.34103 0.48456,-22.47403c0.42719,-2.71704 1.5635,-4.11091 2.71037,-6.68842c1.53411,-3.44779 2.61302,-6.96794 3.78632,-10.52245c1.38166,-4.18576 3.56351,-7.93443 4.42847,-12.33496c0.232,-1.18032 -0.15769,-2.4208 0.03247,-3.60859c0.19613,-1.22514 0.91895,-2.32632 1.11384,-3.55166c0.03002,-0.18873 -0.73408,0.18751 -0.5647,0.09901c0.52462,-0.27413 1.1782,-0.30274 1.64677,-0.66441c1.44063,-1.11194 2.45776,-2.75956 4.01814,-3.69606c0.59795,-0.35887 1.25656,-0.62035 1.89115,-0.91756c3.10125,1.58629 8.80376,4.00221 10.14444,6.10883c1.57484,2.47455 2.20397,5.61966 4.28723,7.6845c1.36229,1.35025 3.72016,1.04501 5.41884,1.93578c0.89863,0.47124 1.38679,1.50681 2.22803,2.07419c4.4066,2.97205 9.78696,4.27694 14.49251,6.62971c3.28577,1.64288 8.70342,5.34762 13.10741,4.83969c-0.26905,0.22442 1.23409,0.75643 3.97757,3.46844c2.70415,2.67313 4.44678,6.16917 6.65532,9.26439c0.71143,0.99705 1.91637,1.57583 2.61359,2.58286c3.29477,4.75873 5.35517,9.86401 9.35602,14.22237c0.89742,0.97762 1.72438,2.08795 2.71736,2.9654c-0.65434,3.02651 -0.50216,5.36408 -0.51479,8.69178c-0.04555,11.99097 0,23.98297 0,35.97404c0.13707,6.35588 -2.62999,11.609 -3.33407,17.91399c-0.24016,2.15057 0.28472,4.34201 0.03695,6.49171c-0.16971,1.4725 -1.02681,2.79855 -1.27612,4.25968c-0.46038,2.69819 -0.66995,5.4364 -0.84438,8.16803c-0.1205,1.88704 0.87651,3.88106 0.25509,5.66692c-1.13143,3.25157 -1.93009,6.38952 -2.22885,9.89952c-0.0849,0.9974 0.39262,2.01602 0.19259,2.99684c-0.2022,0.99142 -1.16547,1.72158 -1.35751,2.71502c-1.96656,10.1731 1.13904,20.99419 -0.8976,31.17739c-0.01979,2.05712 0.55464,4.1693 0.08046,6.17111c-0.32983,1.39241 -1.0847,2.66783 -1.35751,4.07253c-0.30994,1.59586 0.10747,3.31453 -0.39332,4.86115c-0.47584,1.46958 -1.32561,2.83056 -1.59164,4.35217c-0.27276,1.56009 0.24885,3.1872 0,4.75129c-0.14882,0.93539 -0.9214,1.67582 -1.16807,2.59029c-0.70058,2.59722 -0.42264,5.42272 -1.30499,7.96394c-1.39988,4.03174 -3.38218,7.98313 -3.7821,12.23221c-0.46947,4.98801 -0.6623,10.98672 -0.25858,16.38079c-0.52227,1.50177 -0.90035,3.12012 -1.11368,4.86406c-0.24435,1.99743 0.56909,3.98421 0.85362,5.97632c0,0 0.88603,4.43013 4.4447,6.73942c1.59241,2.40382 4.5093,4.74685 9.72012,3.87838c9.86394,-1.64399 8.21994,-11.50793 8.21994,-11.50793c-0.29848,-1.68361 -0.30519,-3.41249 -0.46022,-5.1164c1.24325,-0.65689 2.35237,-1.55964 3.60541,-2.20096c1.0649,-0.54503 2.40337,0.07671 3.58762,-0.09247c2.28413,-0.3263 4.49067,-1.1383 6.78756,-1.35751c5.91888,-0.5649 11.91677,-0.46351 17.77659,-1.47091c2.34285,-0.40278 4.65369,-1.22373 7.03074,-1.19545c1.27346,0.01515 3.57976,0.98482 3.81127,-0.26751c0.0038,-0.02056 2.58823,2.95284 2.88896,3.62911c0.71067,1.59814 1.03838,3.3404 1.55757,5.0106c0.68309,1.70285 1.21243,3.54519 2.37238,4.96675l-0.26751,0.41749c0,0 0,4.69055 3.21245,7.64676v81.60958z" stroke-width="NaN"/></g></g></svg>