<svg version="1.1" xmlns="http://www.w3.org/2000/svg" xmlns:xlink="http://www.w3.org/1999/xlink" width="258.18182" height="135" viewBox="0,0,258.18182,135"><g transform="translate(-110.90909,-11.33658)"><g stroke="none" stroke-miterlimit="10"><g stroke-width="0"><path d="M110.90909,146.33658v-135h258.18182v135z" fill="#000000"/><path d="M131.77227,135.42749v-113.18182h216.45547v113.18182z" fill="#fffcf7"/></g><g fill="#1c4096" stroke-width="0.5"><path d="M295.88271,119.3091c0.9822,-0.24555 1.22775,0.73665 1.22775,0.73665l0.10339,0.49524c0.64723,-0.26149 2.017,-0.32986 2.54814,-0.23142c1.02536,0.19004 4.83782,1.38732 4.86053,2.87585c0.00988,0.64763 -1.67875,2.2812 -2.49454,2.203c0.06851,0.12651 0.13044,0.24535 0.17191,0.32511c0.41542,0.79893 1.22085,1.65044 0.89031,2.69871c-0.42367,1.34363 -1.9065,1.81968 -3.09993,1.50777c0.53548,1.2103 0.60215,2.47514 -1.14473,3.25337c-1.0524,0.46884 -2.57385,-0.15447 -3.3516,-1.10387c-0.63,1.13311 -2.15354,1.88012 -3.36072,1.27653c-0.55264,-0.27632 -0.95374,-0.87172 -1.15462,-1.52919c-0.00932,0.0092 -0.01864,0.01838 -0.02798,0.02756c-1.3252,0.64942 -3.66832,1.73574 -4.56908,-0.44479c-0.14177,-0.34319 -0.04714,-1.03942 0.12877,-1.5475c-0.43757,0.06279 -0.99146,0.01479 -1.26163,-0.15084c-1.2978,-0.79564 -1.40418,-1.88561 -0.87646,-3.14117c0.645,-1.53456 2.13894,-1.74675 3.57654,-2c0.53154,-0.09364 1.32344,0.09467 1.573,-0.38389c0.61112,-1.1719 0.41637,-2.97582 0.90929,-4.26092c0,0 0.37601,-0.94002 1.31603,-0.56401c0.94002,0.37601 0.56401,1.31603 0.56401,1.31603c-0.56205,1.32632 -0.25599,3.4722 -1.11558,4.64849c-1.03583,1.41745 -4.87878,0.66375 -5.11417,2.44603c-0.02762,0.20915 0.42332,-0.00559 0.63254,0.02147c0.69452,0.08983 1.62366,-0.1082 2.05328,0.44483c0.95904,1.23453 -1.87552,3.46377 0.9995,1.97362c0.46107,-0.47267 0.89644,-0.97086 1.314,-1.48242l0.35407,-0.88517c0.14357,-0.38451 0.5142,-0.65832 0.94878,-0.65832c0.55915,0 1.01243,0.45328 1.01243,1.01243c0,0.06328 -0.0058,0.1252 -0.01691,0.18526l-0.19935,1.1961c0.06208,0.65384 -0.72836,1.67158 -0.14091,1.96531c0.9476,0.4738 0.64687,-2.47792 1.68368,-2.69577c0.15962,-0.03354 5.28211,4.29699 3.02751,1.09596l-0.69983,-0.52487c-0.25126,-0.18423 -0.4144,-0.48157 -0.4144,-0.81702c0,-0.55915 0.45328,-1.01243 1.01243,-1.01243h1.41741v0.09999c0.58916,-0.05111 1.16769,0.04678 2.0685,0.37166c0.16984,0.06125 -0.09222,-0.35268 -0.17801,-0.51154c-0.17246,-0.31935 -0.41222,-0.60083 -0.57013,-0.92762c-0.4024,-0.8328 -1.01745,-2.3031 -0.21389,-3.19065c0.20465,-0.22604 0.63137,-0.28035 1.06578,-0.25759c-0.76233,-0.33361 -1.63096,-0.79423 -1.95874,-0.86716c-0.01962,-0.00436 -1.19332,0.00872 -1.29361,0.06485c-0.45605,0.25522 -0.73817,1.11377 -1.23818,0.96176c-0.72424,-0.22017 -0.94806,-1.18032 -1.42208,-1.77049l-0.27914,-1.01717c0,0 -0.24555,-0.9822 0.73665,-1.22775z"/><g><path d="M264.90978,66.87144c0.78623,1.17935 -0.39312,1.96558 -0.39312,1.96558l-0.48629,0.3145c-4.16251,3.46876 -9.09281,5.99417 -12.35728,10.45641c-0.14303,0.34575 -0.40364,0.54325 -0.6547,0.65607c-0.23876,0.13932 -0.55262,0.23683 -0.91912,0.15032c-4.66064,0 -10.40782,0 -15.06696,0c-0.37472,0.08709 -0.69091,-0.01453 -0.93044,-0.15991c-0.25409,-0.11879 -0.51432,-0.32581 -0.64959,-0.68662l-0.23578,-0.35449c-1.36393,-1.92711 -1.83135,-3.98179 -2.92772,-6.02084c-1.08707,-2.02177 -2.79806,-3.89197 -4.28458,-5.62479c0,0 -0.92244,-1.07618 0.15374,-1.99861c1.07618,-0.92244 1.99861,0.15374 1.99861,0.15374c1.61817,1.88937 3.43796,3.91779 4.62483,6.11942c1.04191,1.93275 1.44048,3.92113 2.7419,5.72337l0.00929,0.01391c4.53961,0 9.07922,0 13.61883,0h0.50422c3.43881,-4.44365 8.30634,-7.06107 12.55995,-10.60575l0.72862,-0.49544c0,0 1.17935,-0.78623 1.96559,0.39312z"/><path d="M263.12296,68.26513c-1.41741,0 -1.41741,-1.41741 -1.41741,-1.41741l0.11461,-0.65658c-1.41457,-3.45064 -0.11654,-6.44582 0.74217,-9.82909c0.78009,-3.07347 0.48633,-6.70124 -0.18619,-9.74964c-1.36237,-3.39973 -4.29964,-8.31827 -8.02064,-9.60883c-1.29299,-0.44845 -3.40673,-0.37902 -4.76283,-0.53861c-5.54979,-0.65312 -11.46389,-0.98276 -16.49035,1.81536c-1.20266,0.86144 -2.83504,1.66816 -3.6035,2.99281c-3.84592,6.62952 -3.03766,16.85096 -1.24587,24.01588c0,0 0.34377,1.37509 -1.03131,1.71886c-1.37509,0.34377 -1.71886,-1.03131 -1.71886,-1.03131c-1.94478,-7.78153 -2.7913,-19.07868 1.58894,-26.20077c1.06213,-1.72697 2.8925,-2.74925 4.49596,-3.89173c5.66257,-3.14056 12.06753,-2.97176 18.33732,-2.23437c1.55268,0.18261 3.90415,0.15577 5.36149,0.6763c4.64306,1.6584 8.08311,7.15568 9.79817,11.44977c0.80236,3.58946 1.11304,7.68322 0.21879,11.30895c-0.64159,2.60131 -2.07979,5.35418 -0.87772,7.98972l0.1146,1.77326c0,0 0,1.41741 -1.41741,1.41741z"/><path d="M237.20076,73.10515c-0.99277,0.19855 -1.19133,-0.79422 -1.19133,-0.79422l-0.18325,-0.93306c-0.96731,-2.56409 -1.88822,-3.73766 -3.79209,-5.63662c0,0 -0.7159,-0.71589 0,-1.43179c0.7159,-0.7159 1.43179,0 1.43179,0c2.12763,2.13369 3.23611,3.6404 4.30737,6.51256l0.22172,1.09181c0,0 0.19855,0.99277 -0.79422,1.19133z"/><path d="M237.57962,67.08825c-0.35914,0.02795 -0.74732,0.00727 -1.18094,-0.05769c0,0 -0.99277,-0.19855 -0.79422,-1.19133c0.19855,-0.99277 1.19133,-0.79422 1.19133,-0.79422c1.86241,0.57428 1.98143,-1.90456 3.31137,-2.49608c0.62379,-0.27744 1.3964,-0.47899 2.03446,-0.23617c0.78263,0.29783 1.01113,1.62725 1.84489,1.70508c1.61107,0.1504 2.24737,-1.76494 3.40181,-1.81713c1.40338,-0.06345 2.75268,1.9546 2.7967,3.36626c0.42922,-0.39251 0.89493,-0.77313 1.39621,-1.14908l1.21492,-0.20249c0,0 1.01243,0 1.01243,1.01243c0,1.01243 -1.01243,1.01243 -1.01243,1.01243v-0.20249c-2.23901,1.67925 -3.6675,3.35901 -4.0599,6.21777c0,0 -0.14318,1.00226 -1.14544,0.85908c-1.00226,-0.14318 -0.85908,-1.14544 -0.85908,-1.14544c0.23752,-1.60934 0.73725,-2.93846 1.48372,-4.10607c-0.10046,0.04 -0.20322,0.08183 -0.30794,0.12711c-4.02837,1.61135 -6.14146,0.21121 -10.09143,-0.55471zM239.99651,65.88808c2.49546,0.69387 4.22981,1.39378 7.15899,0.22211c0.35427,-0.12314 0.96495,-0.12634 1.00855,-0.49885c0.05768,-0.49291 -0.51178,-1.90188 -0.48936,-1.40611c0.04027,0.89086 -0.36479,0.8483 -1.31319,1.32213c-1.64828,0.8235 -4.87976,0.90822 -5.18433,-1.43418c-0.03438,-0.26441 -0.17449,0.51148 -0.32772,0.72968c-0.22139,0.31525 -0.42811,0.64701 -0.70151,0.91838c-0.05083,0.05045 -0.10128,0.09939 -0.15143,0.14684z"/><path d="M237.84239,52.42812l0.17226,-0.56439c0,-0.40497 0,-0.80995 0,-1.21492c0,0 0,-1.01243 1.01243,-1.01243c1.01243,0 1.01243,1.01243 1.01243,1.01243c0,0.40497 0,0.80995 0,1.21492l-0.17857,0.80995h0.58451c0.12185,-0.15124 0.24739,-0.23494 0.24739,-0.23494l0.5616,-0.37252c1.5249,-0.99641 0.55416,-1.73426 -0.6634,-2.33835c-1.45821,-0.72349 -6.69124,-2.20242 -6.22607,1.22616c0.10659,0.78562 0.17881,0.88189 0.44531,1.51877c1.01172,0.01196 2.00672,0.08726 3.00706,0.14217c0.00651,-0.11267 0.02506,-0.18683 0.02506,-0.18683zM233.02489,53.45465c-0.33982,-0.85847 -0.61284,-1.35628 -0.67494,-2.30111c-0.58398,-8.88489 16.70545,-2.77728 10.1194,2.53256l-0.65332,0.43742c0,0 -0.1235,0.08234 -0.30746,0.13667c-0.28216,0.43834 -0.8616,0.43835 -0.8616,0.43835h-1.01243c-1.70481,0 -3.36039,-0.20528 -5.06216,-0.20249c0,0 -0.55289,0 -0.84151,-0.40858c-0.49667,-0.10958 -0.70597,-0.63282 -0.70597,-0.63282z"/><path d="M249.96134,51.66124c0,0 0,-1.01243 1.01243,-1.01243c1.01243,0 1.01243,1.01243 1.01243,1.01243c0,0.47247 0,0.94494 0,1.41741v0.34477c0.53801,0.02455 1.07694,0.04522 1.61758,0.05468c0.09695,-0.46503 0.56197,-0.69754 0.56197,-0.69754l1.1805,-0.58942c2.06302,-1.1847 0.22565,-1.68723 -1.19906,-2.46869c-1.51859,-0.83295 -2.98107,-1.24181 -4.80434,-0.91429c-0.18795,0.03376 -1.81611,0.55502 -1.83643,0.84969c-0.07601,1.10223 0.9091,2.38512 1.02642,3.62654c0.47662,0.00663 0.95259,0.02257 1.42849,0.0427c0,-0.57412 0,-1.32757 0,-1.66584zM248.54394,53.48362c0,0 0,1.01243 -1.01243,1.01243c-1.01243,0 -1.01243,-1.01243 -1.01243,-1.01243c0.03156,-1.41843 -1.35495,-2.86322 -0.98735,-4.27369c0.35054,-1.345 1.17349,-1.49889 2.23123,-1.93098c2.87506,-1.17447 5.80178,-0.38479 8.36402,1.06985c2.8142,1.59768 2.88101,3.95771 0.19366,5.61735l-0.51503,0.25786c0.0179,0.0814 0.02783,0.17176 0.02783,0.27204c0,1.01243 -1.01243,1.01243 -1.01243,1.01243h-0.60746c-2.03555,0 -4.05511,-0.20795 -6.07459,-0.20249c0,0 -1.01243,0 -1.01243,-1.01243c0,-1.01243 1.01243,-1.01243 1.01243,-1.01243c0.13135,0.00031 0.26264,0.00143 0.39388,0.00325c0.00629,0.06654 0.01008,0.13296 0.01109,0.19923z"/><path d="M225.56892,97.90935c0.7159,0.7159 0,1.4318 0,1.4318l-0.25272,0.20997c-1.04159,1.72661 -2.3458,2.58521 -3.71845,3.94519c-2.0689,1.01808 -6.46585,1.78922 -8.73006,0.26175c-0.04471,0.28463 -0.12393,0.56677 -0.20992,0.83869c-0.50124,1.58517 -1.54049,2.77624 -3.08607,3.39571c-3.21311,1.28781 -6.91742,0.67787 -10.26808,0.55399c-1.08989,-0.04029 -2.56259,0.25564 -3.42367,-0.37186c-0.10737,2.82337 -0.947,5.14664 -4.26605,5.22633c-2.03927,-0.05409 -4.04691,-0.3222 -6.08213,-0.39987c-1.02399,-0.03908 -3.43142,0.14776 -4.35517,-0.36209c-1.2709,-0.70145 -0.81707,-1.80137 -1.36061,-2.80856c-1.08653,-2.01337 -2.23601,-3.31187 -1.2776,-5.8641c1.33461,-3.55401 4.32443,-2.13876 6.59198,-4.07601c0.51171,-0.43717 -0.25596,-1.34715 -0.15743,-2.01293c0.22559,-1.52436 1.01643,-2.79435 1.7913,-4.08231c1.31413,-1.6444 2.90023,-3.26985 4.93613,-4.01686c4.25228,-1.56023 8.96402,0.0772 13.27882,-0.84521c1.886,-0.40319 2.46792,-4.00068 4.42541,-4.97646c2.0316,-1.01272 4.84845,-0.50134 7.00918,-0.45222c2.04897,0.15937 3.97367,0.38327 5.98842,0.76081c0.46557,0.08724 0.95178,0.06901 1.4068,0.20061c0.15199,0.04396 0.23852,0.4124 0.35927,0.31017c0.15728,-0.13316 -0.07795,-0.42941 0.0046,-0.61824c0.57128,-1.30674 2.00622,-3.22736 3.28979,-3.86394c1.35655,-0.67278 2.97613,-0.22996 4.37464,-0.08981c2.3597,0.23646 4.72231,0.21539 7.00973,0.75109c0.0644,-0.96668 0.26978,-1.77267 0.65741,-2.75192c0,0 0.37601,-0.94002 1.31603,-0.56401c0.94002,0.37601 0.56401,1.31603 0.56401,1.31603c-0.39264,0.96962 -0.54068,1.61767 -0.53505,2.66129l-0.21391,0.77984c-0.01012,0.04748 -0.02352,0.09672 -0.04053,0.14777c-0.11119,0.33357 -0.29961,0.51268 -0.49821,0.60438c-0.19252,0.10386 -0.44886,0.14713 -0.78243,0.03594c-0.00621,-0.00207 -0.01236,-0.00417 -0.01846,-0.00629c-2.43807,-0.82768 -5.09543,-0.70337 -7.65811,-0.95912c-1.01317,-0.10111 -2.33582,-0.58939 -3.31985,-0.08981c-1.6333,0.8292 -1.76721,3.67442 -3.18519,4.42723c-0.24857,0.13197 -2.75552,-0.23573 -3.0936,-0.29916c-1.93017,-0.36212 -3.7635,-0.57711 -5.72691,-0.73054c-1.72586,-0.03861 -4.34027,-0.59408 -5.97883,0.22919c-2.37179,1.19168 -2.14401,4.30984 -4.88897,5.14787c-4.12662,1.25984 -8.89691,-0.71508 -13.04443,0.77468c-1.6331,0.5866 -2.92133,1.95941 -3.97327,3.27266c-0.5954,0.99557 -1.28764,2.02619 -1.44848,3.2072c-0.06976,0.5122 0.15819,2.44962 -0.15743,2.84675c-1.33795,1.6835 -4.3719,1.17625 -5.79895,2.5884c-1.85229,1.83295 -0.26066,3.71838 0.58403,5.2903c0.34018,0.63305 -0.00533,1.79009 0.66426,2.05112c1.03717,0.40434 2.22695,-0.00011 3.33932,0.04288c2.02026,0.07807 4.01187,0.34599 6.03572,0.39862c2.19626,0.115 2.22697,-1.92283 2.23223,-3.71711l-0.18358,-0.91791c-0.01556,-0.07054 -0.02376,-0.14384 -0.02376,-0.21905c0,-0.55915 0.45328,-1.01243 1.01243,-1.01243c0.17004,0 0.3303,0.04192 0.47099,0.11599l0.96916,0.48458c2.98818,0.50415 5.963,0.71059 9.05794,0.61483c1.51877,-0.04699 3.37462,-0.15911 4.62599,-1.1646c1.21447,-0.97584 0.60673,-4.10118 1.92842,-4.64131c1.2017,-0.4911 1.78539,1.17293 2.67959,1.39417c1.77171,0.43834 4.39948,0.35993 5.99918,-0.4598c1.17774,-1.18947 2.27388,-1.84805 3.16609,-3.34432l0.55723,-0.59998c0,0 0.71589,-0.7159 1.43179,0z"/><path d="M227.93338,135.24507c-0.98221,0.24555 -1.22775,-0.73665 -1.22775,-0.73665l-0.21306,-0.85694c-0.68041,-3.40205 -1.6634,-6.73963 -2.23324,-10.15643c-1.33792,-8.15946 -0.62124,-16.44174 -0.62124,-24.66731c0,0 0,-1.01243 1.01243,-1.01243c1.01243,0 1.01243,1.01243 1.01243,1.01243c0,8.09881 -0.76906,16.30675 0.59369,24.33442c0.56538,3.39456 1.54542,6.71197 2.22147,10.09221l0.19192,0.76295c0,0 0.24555,0.98221 -0.73665,1.22776z"/><path d="M249.96134,79.99649c0,-1.01243 1.01243,-1.01243 1.01243,-1.01243l0.02897,0.07241c3.84615,-1.53846 7.58095,-3.22206 11.79876,-2.90377c2.21389,0.16707 4.28111,1.28476 6.46638,1.65389c2.57597,1.01614 4.05532,2.37057 6.1391,3.9657c0.48297,0.36972 1.21187,-0.10612 1.81827,-0.15336c1.49295,-0.1163 3.70453,-0.33322 5.13501,0.01813c4.10643,1.00861 7.88211,4.6461 7.89589,8.88873c0,0.5926 -0.27871,1.20744 -0.10688,1.77458c0.11092,0.3661 0.73929,0.20006 1.11538,0.26995c1.2324,0.229 2.51196,0.3582 3.66677,0.88291c1.73362,0.7877 3.87396,2.46674 5.03214,3.9415c1.35491,1.72526 0.941,4.6848 0.81993,6.76057c-0.05002,0.85762 -0.00289,1.73339 -0.20053,2.56942c-0.03216,0.13604 -0.43632,0.29579 -0.29653,0.29653c1.44086,0.0077 2.24368,-0.11724 3.73457,0.51025c2.84665,3.46345 2.32744,8.81847 -2.26301,10.66683c-1.33277,0.53665 -2.92672,0.5311 -4.28872,1.02575c-2.32992,0.84617 -4.29471,2.11156 -6.9079,1.87225c-1.49557,-0.13696 -2.79024,-0.91826 -4.09915,-1.5776c-1.59687,-1.32828 -3.43863,-2.73054 -3.49558,-4.89704c-0.01986,-0.75548 -0.02169,-2.12411 0.13185,-2.97716c-0.28867,0.1324 -0.62881,0.23654 -0.85579,0.30287c-1.19168,0.34823 -1.59548,0.24315 -2.92081,0.24446c-2.56742,0.00254 -5.2265,-0.4118 -6.8726,-2.61672c-0.60941,-0.81629 -1.14362,-2.36 -0.88435,-3.42514c-2.30463,0.41663 -4.59353,-0.02194 -6.89773,-0.67914c-1.01825,-0.29043 -2.31258,-0.49489 -3.25936,-1.12422c0.03492,2.48039 -0.02872,4.96068 -0.51716,7.33753c0.01908,7.89075 -2.6525,16.30489 -7.72173,22.41692c0,0 -0.64815,0.77777 -1.42592,0.12963c-0.77777,-0.64814 -0.12963,-1.42591 -0.12963,-1.42591c4.86402,-5.80591 7.24513,-13.82772 7.26227,-21.32016c0.8034,-4.10993 0.40004,-8.47248 0.40004,-12.65689l0.22792,-0.63192c0.04425,-0.23433 0.1696,-0.52165 0.5035,-0.67783c0.16652,-0.10099 0.38233,-0.16319 0.64741,-0.10532c0.26978,0.02893 0.45484,0.15618 0.58089,0.30464c0.22413,0.21271 0.2801,0.46649 0.27342,0.68221c0.13951,1.119 0.15927,3.16869 0.7978,4.06458c0.46846,0.65729 2.27196,0.8752 2.91682,1.05978c2.16305,0.61914 4.57809,1.20183 6.76385,0.46777l0.92728,-0.55637c0.15526,-0.09687 0.33867,-0.15284 0.53516,-0.15284c0.55915,0 1.01243,0.45328 1.01243,1.01243c0,0.17004 -0.04192,0.3303 -0.11599,0.47099l-0.59835,1.1967l-0.06228,-0.03114c-0.10517,0.68447 -0.16201,1.34354 -0.07005,1.73796c0.63685,2.73172 5.21265,2.64044 7.22649,2.50253c1.02008,-0.06986 3.04132,-1.4545 3.93153,-0.82626c1.61641,1.14076 -0.61383,4.55076 0.1409,5.90102c0.47988,0.85853 1.90547,1.95039 2.65609,2.57743c3.7672,1.86688 5.54527,0.83034 9.2416,-0.5153c1.33712,-0.48678 2.91281,-0.4831 4.21571,-0.99912c2.959,-1.17194 3.57838,-4.79249 1.78672,-7.15198c-0.89979,-0.32198 -3.41376,-0.23627 -3.95992,-0.70467c-0.29543,-0.25337 -0.33544,-2.26493 -0.29458,-2.80367c0.13313,-1.75504 1.05049,-5.58003 -0.1925,-7.00851c-1.27059,-1.46019 -3.38214,-3.22028 -5.31815,-3.69021c-1.4919,-0.36214 -3.82857,-0.15111 -4.71122,-1.74472c-0.13635,-0.24617 -0.10689,-2.31764 -0.10689,-2.68012c0.01228,-3.28418 -3.12179,-6.09641 -6.27816,-6.90522c-2.28676,-0.58598 -5.52627,1.05979 -7.62575,-0.13523c-0.67665,-0.38515 -1.01667,-1.20381 -1.65807,-1.64518c-1.26954,-0.87362 -2.51828,-1.50218 -3.94704,-2.08361c-2.05042,-0.3369 -4.01806,-1.44798 -6.08778,-1.58589c-3.88563,-0.25892 -7.32063,1.34221 -10.87973,2.76585l-0.78098,0.07241c0,0 -1.01243,0 -1.01243,-1.01243z"/><path d="M245.43423,103.51389c0.37601,0.94002 -0.56401,1.31603 -0.56401,1.31603l-0.8787,0.3397c-1.87458,1.51379 -3.39462,3.86091 -3.14699,6.31501c0.02417,0.23958 0.22576,2.16561 0.4577,2.23151c0.61482,0.1747 1.32161,-0.33458 1.915,-0.0971c0.04385,0.01755 0.08728,0.0359 0.13033,0.055l0.00738,-0.02583l1.39589,0.39883c0.43489,0.11361 0.75581,0.50914 0.75581,0.97963c0,0.49766 -0.35907,0.91146 -0.83227,0.99645l-0.86689,0.17338c-0.68675,0.38568 -2.91011,0.88863 -3.318,1.65894c1.08326,0.13203 0.84479,1.0225 0.88327,1.75032c0.65959,0.38993 1.48337,0.64936 1.86818,1.06315c0.01811,0.01948 0.03595,0.03915 0.05354,0.05902l0.00981,-0.01226l1.00513,0.8041c0.23582,0.18536 0.38727,0.4732 0.38727,0.79642c0,0.55915 -0.45328,1.01243 -1.01243,1.01243c-0.14104,0 -0.27533,-0.02884 -0.39732,-0.08094l-0.99111,-0.39645c-0.89732,-0.36815 -1.5573,-0.53805 -2.1938,-1.23132c-0.20015,0.39614 -0.35361,0.63019 -0.50265,0.75685c-0.1256,0.20089 -0.25116,0.38495 -0.36981,0.54688l-0.60039,0.80052c-0.18423,0.25126 -0.48157,0.4144 -0.81702,0.4144c-0.55915,0 -1.01243,-0.45328 -1.01243,-1.01243c0,-0.17004 0.04192,-0.3303 0.116,-0.47099l0.59835,-1.1967l0.20639,0.10319c0.02565,-0.03492 0.05215,-0.07158 0.07927,-0.10975c0.19097,-0.74043 0.4297,-1.51934 0.70898,-2.16132c-0.11909,-0.06824 -0.31009,-0.08084 -0.59382,-0.0166c-0.83782,-0.1654 -2.79122,-0.42224 -3.09857,-1.32822c-0.14081,-0.41507 1.4925,-2.80232 1.58336,-3.62629c0.20255,-1.83665 -2.14078,-1.79688 -1.79708,-3.79055c0.16756,-0.97194 1.49202,-0.89789 1.91195,-1.64958c0.54545,-0.97638 -0.38307,-2.80089 -0.60202,-3.69423c-0.08205,-0.33477 -0.46366,0.51421 -0.73269,0.72968c0,0 -0.80995,0.60746 -1.41741,-0.20249c-0.60746,-0.80995 0.20249,-1.41741 0.20249,-1.41741c2.72987,-1.96217 4.12164,0.10793 4.63892,2.84584c0.38842,2.05585 -0.47385,3.06543 -2.03683,3.87928c-0.42945,0.22362 0.96333,0.3603 1.23879,0.75849c0.29496,0.42637 0.4831,0.93071 0.59555,1.43682c0.10331,0.46497 -0.10566,3.13004 -0.83424,3.98661c0.2134,0.01009 0.41724,0.03055 0.5473,0.05702c0.14357,0.01443 0.29451,0.01016 0.44717,0.00156c0.35909,-0.93676 1.14171,-1.45793 2.0248,-1.86367c-0.96314,-0.84222 -1.63757,-2.51065 -1.75687,-3.71268c-0.32874,-3.31241 1.62852,-6.26535 4.14252,-8.26402l1.14617,-0.47025c0,0 0.94002,-0.37601 1.31603,0.56401z"/><path d="M183.65422,111.47594c0.7159,0.7159 0,1.4318 0,1.4318l-0.33059,0.09012c-0.41987,2.04315 0.2089,3.81154 0.95968,5.70252c0.482,1.21401 1.16107,2.89267 0.32148,4.15559c-0.60409,0.90868 -2.45356,1.19134 -3.42036,0.8529c-0.23659,0.71483 -0.53662,1.29494 -1.4381,1.7402c-1.23451,0.60974 -4.77547,0.52696 -5.80452,-0.5739c-0.37297,-0.399 -0.5802,-0.81323 -0.65445,-1.22017c-1.94015,0.40149 -4.03231,0.27683 -4.69269,-1.48782c-0.0229,-0.06119 -0.04278,-0.12111 -0.05975,-0.17979c-0.87749,-0.00173 -1.67301,-0.26937 -2.10652,-1.06762c-0.20204,-0.37203 -0.08034,-0.96079 0.20481,-1.56272c-0.20322,-0.0816 -0.40067,-0.19699 -0.58958,-0.35512c-1.29492,-1.08394 -0.26396,-3.40253 0.58732,-4.28619c2.36361,-2.45353 5.29881,-1.84459 8.17777,-2.4968c1.83278,-0.4152 4.19691,-3.28015 5.67474,-4.46242c0,0 0.79058,-0.63246 1.42304,0.15812c0.63246,0.79058 -0.15812,1.42304 -0.15812,1.42304c-1.8282,1.46256 -4.19589,4.24982 -6.47445,4.85196c-1.95197,0.51584 -3.6969,0.05379 -5.68167,0.94689c-1.15917,0.5216 -3.1131,2.3592 -1.39295,2.26864c0.16692,-0.11386 0.32778,-0.19215 0.47388,-0.22381c0.04416,-0.00957 0.08843,-0.018 0.13281,-0.0254l-0.01281,-0.03202l0.99111,-0.39645c0.12199,-0.0521 0.25629,-0.08094 0.39733,-0.08094c0.55915,0 1.01243,0.45328 1.01243,1.01243c0,0.37525 -0.20415,0.70282 -0.50745,0.8777l-0.99652,0.59791l-0.04214,-0.07023l-0.11368,0.14639c-0.12314,0.02466 -0.24901,0.05221 -0.37692,0.08049c-0.02524,0.03434 -0.05265,0.06651 -0.08221,0.09606c-0.09641,0.09641 -0.25885,0.26899 -0.4143,0.42547c0.5122,-0.15976 1.38827,-0.21076 1.93156,-0.31981l-0.05361,-0.10722l1.1967,-0.59835c0.14069,-0.07407 0.30095,-0.11599 0.47099,-0.11599c0.55915,0 1.01243,0.45328 1.01243,1.01243c0,0.33544 -0.16314,0.63279 -0.4144,0.81702l-0.80052,0.60039l-0.039,-0.052l-0.07244,0.12466c-0.35523,0.14195 -0.82701,0.32164 -1.34862,0.47601c0.00309,0.00174 0.00634,0.00351 0.00976,0.00529c0.85437,0.44548 2.63179,0.10751 3.80825,-0.32701c0.18925,-0.14462 0.39644,-0.27276 0.6164,-0.38087l0.76446,-0.76446c0.18321,-0.18321 0.43632,-0.29653 0.7159,-0.29653c0.55915,0 1.01243,0.45328 1.01243,1.01243c0,0.23161 -0.07777,0.44505 -0.20862,0.61564l-0.60132,0.80176l-0.07984,-0.05988l-0.05204,0.20425c-0.08748,0.0524 -0.18421,0.10653 -0.28916,0.16166c-0.28838,0.36971 -1.28544,0.64828 -0.90927,0.77974c1.63052,0.56979 3.56088,0.81572 4.16512,-1.00507v-0.89063v0c0,-0.55915 0.45328,-1.01243 1.01243,-1.01243c0.33544,0 0.63279,0.16314 0.81702,0.4144l0.60039,0.80052l-0.15755,0.11816c0.27072,0.15175 0.55144,0.22259 0.84982,0.13628c0.87999,-0.25456 -0.04266,-2.08371 -0.21489,-2.51076c-0.91583,-2.27091 -1.54436,-4.40032 -1.06518,-6.85164l0.88433,-1.1248c0,0 0.7159,-0.7159 1.4318,0z"/></g></g></g></g></svg>