<svg version="1.1" xmlns="http://www.w3.org/2000/svg" xmlns:xlink="http://www.w3.org/1999/xlink" width="557.9809" height="421.27014" viewBox="0,0,557.9809,421.27014"><defs><radialGradient cx="239.46409" cy="179.71156" r="210.63507" gradientUnits="userSpaceOnUse" id="color-1"><stop offset="0" stop-color="#ffffff"/><stop offset="1" stop-color="#ffffff" stop-opacity="0"/></radialGradient></defs><g transform="translate(30.46385,30.92352)"><g stroke="none" stroke-miterlimit="10"><path d="M-19.53591,370.21156v-381h518v381z" fill="#1c4096" stroke-width="0"/><path d="M-30.46385,388.4428v-91.40518h557.9809v91.40518z" fill="#710900" stroke-width="0"/><g><path d="M166.42737,297.03756v-245.56617h157.57162v245.56617z" fill="#ffffff" stroke-width="0"/><g fill="none" stroke-width="1" font-family="sans-serif" font-weight="normal" font-size="12" text-anchor="start"/></g><g stroke-width="0"><path d="M74.80285,325.48196v-245.56617l91.62452,-28.44438v245.56617z" fill="#4c1d00"/><g fill="#ffcb30"><path d="M86.77368,222.32771c-2.8723,0.89169 -5.20076,-2.38983 -5.20076,-7.32948c0,-4.93965 2.32846,-9.66689 5.20076,-10.55858c2.8723,-0.89169 5.20076,2.38983 5.20076,7.32948c0,4.93965 -2.32846,9.66689 -5.20076,10.55858z"/><path d="M85.59932,211.72863v-6.92441l17.78324,-5.52072v6.92441z"/></g></g><text transform="translate(224.01319,31.35886) scale(0.5,0.5)" font-size="40" xml:space="preserve" fill="#ffffff" stroke-width="1" font-family="Sans Serif" font-weight="normal" text-anchor="start"><tspan x="0" dy="0">Out-</tspan></text><g fill="url(#color-1)" stroke-width="0"><path d="M28.82902,179.71156c0,-116.33054 94.30453,-210.63507 210.63507,-210.63507c116.33054,0 210.63507,94.30453 210.63507,210.63507c0,116.33054 -94.30453,210.63507 -210.63507,210.63507c-116.33054,0 -210.63507,-94.30453 -210.63507,-210.63507z"/><path d="M28.82902,179.71156c0,-116.33054 94.30453,-210.63507 210.63507,-210.63507c116.33054,0 210.63507,94.30453 210.63507,210.63507c0,116.33054 -94.30453,210.63507 -210.63507,210.63507c-116.33054,0 -210.63507,-94.30453 -210.63507,-210.63507z"/></g></g></g></svg>