<svg version="1.1" xmlns="http://www.w3.org/2000/svg" xmlns:xlink="http://www.w3.org/1999/xlink" width="557.9809" height="426.66136" viewBox="0,0,557.9809,426.66136"><defs><radialGradient cx="237.60099" cy="179.71156" r="221.14558" gradientUnits="userSpaceOnUse" id="color-1"><stop offset="0" stop-color="#ffffff"/><stop offset="1" stop-color="#ffffff" stop-opacity="0"/></radialGradient></defs><g transform="translate(30.46385,38.21858)"><g stroke="none" stroke-miterlimit="10"><path d="M-19.53591,370.21154v-381h518v381z" fill="#1c4096" stroke-width="0"/><path d="M-30.46385,388.44278v-91.40518h557.9809v91.40518z" fill="#710900" stroke-width="0"/><path d="M184.87799,185.07061c0,0 5.53471,-85.51958 -13.84727,-133.00913c-19.86326,-48.66875 -50.45114,-68.08171 -50.45114,-68.08171c0,0 94.1062,-22.19835 128.81135,-22.19835c122.13534,0 209.35566,95.79481 209.35566,217.93015c0,75.0856 3.64974,149.83732 -39.67092,166.55926c-17.93675,6.92365 -41.5229,14.60972 -125.53651,-21.6828c-14.64573,-40.52293 -78.81213,-23.21958 -78.81213,-23.21958z" fill="url(#color-1)" stroke-width="0"/><g><path d="M171.48358,297.03756v-245.56617h152.51541v245.56617z" fill="#ffffff" stroke-width="0"/><g fill="none" stroke-width="1" font-family="sans-serif" font-weight="normal" font-size="12" text-anchor="start"/></g><g stroke-width="0"><path d="M171.07967,297.03756v-245.56617l123.27366,28.44438v245.56617z" fill="#4c1d00"/><g fill="#ffcb30"><path d="M271.2503,211.76911c0,-4.93965 3.13276,-8.22117 6.99722,-7.32948c3.86446,0.89169 6.99722,5.61893 6.99722,10.55858c0,4.93965 -3.13276,8.22117 -6.99722,7.32948c-3.86446,-0.89169 -6.99722,-5.61893 -6.99722,-10.55858z"/><path d="M255.90156,206.2079v-6.92441l23.92597,5.52072v6.92441z"/></g></g><text transform="translate(231.85318,31.35885) scale(0.5,0.5)" font-size="40" xml:space="preserve" fill="#ffffff" stroke-width="1" font-family="Sans Serif" font-weight="normal" text-anchor="start"><tspan x="0" dy="0">Go</tspan></text></g></g></svg>