<svg version="1.1" xmlns="http://www.w3.org/2000/svg" xmlns:xlink="http://www.w3.org/1999/xlink" width="485.42606" height="263.24278" viewBox="0,0,485.42606,263.24278"><g transform="translate(2.71303,24.0612)"><g stroke-miterlimit="10"><g stroke="none" stroke-width="0"><path d="M-2.71302,234.36379v-106.54563h162.87231v106.54563z" fill="#664329"/><path d="M147.05659,234.36379v-106.54563h13.1027v106.54563z" fill="#925f3a"/><path d="M10.14412,136.38958l-12.85715,-8.57142h162.87231l-12.85714,8.57142z" fill="#503420"/><path d="M147.30216,225.79236l12.85714,8.57142h-162.87231l12.85715,-8.57142z" fill="#503420"/></g><g><g stroke="#000000"><path d="M403.28179,122.5638c3.4046,1.52908 21.94222,9.85473 29.33865,13.17663c1.88733,0.84764 1.26198,1.36949 -0.80293,1.36949c-7.03656,0 -47.11898,0 -60.51097,0c-2.73478,0 -3.24793,-0.49789 -1.43711,-1.31117c7.33746,-3.29542 26.20476,-11.76913 29.56785,-13.27957c1.00669,-0.45212 2.79007,-0.42895 3.84451,0.04462z" fill="none" stroke-width="2"/><path d="M398.5882,123.5071c0,-1.48492 1.20376,-2.68868 2.68868,-2.68868c1.48492,0 2.68868,1.20376 2.68868,2.68868c0,1.48492 -1.20376,2.68868 -2.68868,2.68868c-1.48492,0 -2.68868,-1.20377 -2.68868,-2.68868z" fill="#ffde00" stroke-width="1"/></g><g stroke="none" stroke-width="0"><path d="M319.84071,239.18158v-106.54563h162.87231v106.54563z" fill="#664329"/><path d="M469.61032,239.18158v-106.54563h13.10269v106.54563z" fill="#925f3a"/><path d="M332.69784,141.20737l-12.85715,-8.57142h162.87231l-12.85714,8.57142z" fill="#503420"/><path d="M469.8559,230.61015l12.85714,8.57143h-162.87231l12.85715,-8.57143z" fill="#503420"/></g></g><g><g stroke="none" stroke-width="0"><path d="M111.48226,110.9388v-135h258.18182v135z" fill="#000000"/><path d="M132.34544,100.02971v-113.18182h216.45547v113.18182z" fill="#fffcf7"/></g><g stroke="none" stroke-width="0.5"><path d="M132.69775,32.95645c-0.30157,1.06267 -0.15141,3.79197 0.02828,4.88029c0.14346,0.86893 1.07568,1.71757 0.74649,2.53441c-1.10796,2.7492 -5.97792,2.46586 -8.04752,3.79046c-1.00207,0.64135 -1.29301,1.74465 -1.78428,2.75456c-1.82928,3.61017 -3.15035,9.88574 -1.52038,13.82807c1.01458,2.45391 4.71835,5.49501 4.03575,8.38264c-0.65832,2.78493 -3.56439,3.22825 -5.62329,4.33907c-3.93869,2.12501 -6.71778,3.33163 -6.71778,8.26611c0.72125,3.17545 1.4968,6.99857 3.58718,9.6403c7.46033,9.42809 20.26244,8.30559 30.78408,9.61988c6.59035,1.68135 13.53028,-0.50017 20.11781,-0.81706c11.56897,-0.55652 24.23122,-0.70029 35.54129,1.85039c10.46883,-0.04482 20.36592,-2.96616 30.7745,-3.42933c7.17162,-0.31913 14.32605,1.05049 21.49974,1.05313c5.93984,0.65998 11.93761,-0.06634 17.89474,0.26316c10.90265,0.60305 21.58475,1.83943 32.5348,1.83943c4.58607,0.00611 8.74583,-1.35263 13.2301,-1.83165c8.37005,-0.8941 16.69451,-0.44419 25.09418,-0.79725c1.55372,-0.0653 2.85977,-0.50486 4.25649,-0.79593c0.05692,-0.22668 0.13052,-0.37388 0.13052,-0.37388l0.47953,-0.92884c3.52864,-4.93391 -0.98181,-10.71789 -4.82232,-13.77386c0,0 -1.15317,-0.92253 -0.49339,-2.132c-0.04827,-1.21324 1.21839,-1.63546 1.21839,-1.63546l0.27096,-0.06131c4.32563,-2.24577 5.72661,-7.88826 5.57059,-12.47537c-0.03781,-1.11144 0.05091,-2.53236 -0.63801,-3.54347c-1.50639,-2.2109 -6.92505,-4.60806 -5.52619,-8.11453c0.43852,-1.09922 3.58013,-2.12273 4.65548,-2.71175c3.29628,-1.80553 4.14457,-3.71148 5.03925,-7.20275c-0.01886,-2.62195 0.43498,-5.68382 -0.14498,-8.24636c-0.56553,-2.49885 -3.07943,-4.61489 -3.38225,-7.15651c-0.08475,-0.71132 0.47165,-1.362 0.57375,-2.07104c0.63869,-4.43574 -0.22044,-12.49585 -4.80195,-14.82411c-1.50419,-0.76441 -3.47412,-0.35886 -5.07616,-0.29487c-1.79822,1.50333 -4.66627,5.56618 -6.94209,5.84603c-4.02173,0.49455 -2.85552,-4.50885 -6.74397,-3.38498c-2.24892,0.65 -5.45197,4.45641 -7.67139,4.31788c-5.01781,-0.31318 -2.8068,-6.56902 -6.35626,-7.70441c-2.19472,-0.70204 -4.3392,2.03238 -6.55803,-0.22583c-0.76847,-0.78211 -0.44831,-2.14663 -0.67246,-3.21993c-0.60313,-3.38902 -2.92751,-6.10751 -6.69645,-5.88903c-1.3587,0.07876 -2.61996,1.04328 -3.97606,0.92809c-1.17167,-0.09951 -2.37622,-0.53139 -3.29107,-1.27013c-0.58171,-0.46972 -0.50224,-1.41406 -0.85163,-2.07509c-0.67197,-1.27132 -3.26058,-3.43646 -4.86501,-2.69494c-2.65676,1.22788 -4.41535,4.64022 -6.07086,7.55503l0.40712,0.16285l-0.7256,1.814c-0.24816,0.66463 -0.8888,1.13791 -1.63998,1.13791c-0.78722,0 -1.45304,-0.51978 -1.67296,-1.23488l-0.17852,-0.53556c-4.04459,2.33749 -4.87911,6.00366 -7.19247,9.9763c0,0 -0.36783,0.63057 -1.03562,0.8396c-0.06146,0.0312 -0.12686,0.06081 -0.19643,0.08864c-1.62483,0.64993 -2.27477,-0.9749 -2.27477,-0.9749l-0.27531,-0.72599c-0.86843,-1.5716 -1.40387,-3.49308 -3.45887,-2.60307c-0.97943,0.62803 -2.51123,1.4882 -3.2487,2.44303c-1.03737,1.34311 -0.88837,3.63037 -2.96322,4.26779c-5.90274,1.81338 -3.56539,-5.613 -6.39793,-7.86976c-0.25051,-0.19959 -3.14051,-1.81328 -3.35912,-1.86616c-1.40965,-0.34098 -4.16272,0.8304 -5.28537,-0.28615c-1.25119,-1.24439 0.03499,-3.88816 0.04855,-5.30592c0.03168,-3.31005 -2.59738,-6.4652 -5.73621,-7.01233c-5.04122,-1.67073 -9.47245,-2.79464 -14.3491,0.33871c-2.15828,1.38674 -5.78987,6.8323 -8.77185,6.09269c-1.12168,-0.2782 -2.32802,-4.63039 -3.11914,-5.67625c-1.80335,-2.38401 -7.17244,0.17258 -8.80859,1.62512c-1.01443,1.66833 -2.2278,4.86223 -5.35378,3.56826c-1.04536,-0.43272 -0.71112,-2.1482 -1.05053,-3.22747c-0.48387,-1.53857 -0.98391,-3.446 -2.76184,-4.06117c-2.73779,-0.94729 -5.90096,0.22705 -8.36393,1.26298c-4.97046,2.0906 -8.9317,6.03594 -12.20612,10.26403c-0.12602,0.26782 -0.34956,0.52771 -0.72446,0.73926c-0.26947,0.17525 -0.63578,0.32498 -1.06483,0.27396c-0.4309,-0.03181 -0.76189,-0.2487 -0.99296,-0.47216c-0.32864,-0.2801 -0.4985,-0.57885 -0.57071,-0.86663l-0.35017,-0.70284c-0.98956,-2.10006 -3.03254,-2.1677 -5.24278,-2.06464c-5.51245,0.25704 -7.94696,3.01638 -9.65489,8.0688c-0.08952,0.53881 -0.37229,0.86686 -0.68342,1.06658c-0.2881,0.23221 -0.68915,0.39681 -1.22929,0.31086h-1.28947c-4.52725,-0.00348 -10.8362,0.99603 -12.1953,6.28332c-0.65201,2.5365 -0.06753,5.37056 0.65918,7.85914l0.38385,0.27712c0,0 0,0.28601 -0.11562,0.62678c0.07817,0.35247 0.26045,1.65512 -1.18042,2.09846c-0.91911,0.2828 -1.48856,-0.09485 -1.8151,-0.4925c-1.22244,0.55702 -2.41184,1.28124 -2.75342,2.4849zM353.036,99.81775c0,1.75 -1.75,1.75 -1.75,1.75c-2.21796,-0.04071 -3.93926,0.9304 -6.21902,1.04995c-8.33112,0.43688 -16.59588,-0.07842 -24.90582,0.7817c-4.60712,0.47686 -8.897,1.84682 -13.61201,1.85255c-11.01523,0 -21.76206,-1.23267 -32.72835,-1.84478c-5.95753,-0.33254 -11.95297,0.39703 -17.89474,-0.26316c-7.04735,0.00264 -14.08997,-1.37956 -21.13184,-1.05213c-10.60117,0.49293 -20.64948,3.45232 -31.33076,3.41278c-11.2062,-2.45588 -23.54081,-2.32004 -34.98503,-1.83383c-6.90428,0.29333 -14.00878,2.46137 -20.93482,0.7619c-11.49594,-1.43822 -24.83577,-0.58705 -32.90013,-10.90644c-2.49468,-3.19227 -3.47211,-7.58062 -4.30756,-11.41233c0,-4.40484 1.17039,-7.55939 5.07171,-9.86245c1.63485,-0.9651 3.40883,-1.92629 5.14207,-2.70555c0.74882,-0.33667 2.01648,-0.33845 2.182,-1.14261c0.19277,-0.93656 -1.08444,-1.57551 -1.60351,-2.37855c-0.10084,-0.156 -2.22088,-3.88704 -2.25547,-3.97566c-1.95188,-5.00004 -0.64861,-12.07531 1.63752,-16.69824c1.34303,-2.62942 2.32896,-4.07834 5.21709,-5.08633c1.24942,-0.43606 2.4732,-0.98002 3.76975,-1.24492c0.22837,-0.04666 0.75392,0.45577 0.65506,0.24469c-0.14704,-0.31396 -0.73873,-0.2897 -0.83247,-0.62348c-1.53766,-5.47509 0.98788,-8.88384 5.06925,-11.33347c-0.63705,-2.64919 -0.97312,-5.50571 -0.2568,-8.08633c1.92907,-6.94969 9.29555,-8.89735 15.58248,-8.90185h0.23557c0.8103,-2.24909 1.78298,-4.33888 3.50781,-6.13462c4.0294,-4.19505 12.73351,-4.932 16.63394,-0.5117c5.27214,-6.26365 12.2868,-11.84075 20.82096,-11.31447c2.8693,0.17694 5.05864,1.42917 6.45969,4.07761c0.24056,0.45473 0.53012,1.1287 0.70142,1.78057c0.16151,-0.25631 0.32582,-0.51137 0.4718,-0.7746c2.96596,-2.6384 7.85927,-4.85687 11.97591,-3.30485c1.96562,0.74106 2.44146,1.93793 3.33337,3.59709c0.28082,0.5224 0.65289,1.01815 0.86653,1.56726c0.38218,-0.38341 0.87882,-0.77703 1.16297,-1.06232c1.65094,-1.65754 2.10126,-2.24184 4.18385,-3.57043c5.69118,-3.63068 11.16359,-2.77461 17.13238,-0.7724c3.80356,0.83395 6.98886,3.85565 7.9159,7.75101c0.20663,0.86826 0.41562,1.75158 0.42198,2.64407c0.00437,0.61316 -0.05031,1.23857 -0.19676,1.83679c1.61148,-0.40868 4.91588,1.36851 5.39999,1.62915c3.24975,1.74958 5.54916,4.78653 5.03575,8.64086c-0.05355,0.40206 0.22332,-0.78363 0.39639,-1.15046c0.32252,-0.68362 0.56413,-1.42699 1.03716,-2.01655c1.31939,-1.64441 2.80032,-2.38898 4.52907,-3.48289c3.51173,-1.04278 5.31972,-0.04762 6.96526,2.33508c1.702,-3.62248 3.48869,-7.93657 7.51957,-8.90533c0.94164,-0.22631 1.92523,-0.08909 2.90152,-0.01511c0.048,-0.58897 0.26394,-1.21661 0.50248,-1.68773c1.15021,-2.27165 4.15602,-6.39361 6.6858,-7.33809c3.40594,-1.27159 7.6633,1.42696 9.20906,4.3421c0.20062,0.37835 0.01172,0.90896 0.25949,1.25824c0.51531,0.72644 2.39491,-0.47683 2.43093,-0.48559c0.79309,-0.1927 3.64713,-0.355 4.42375,-0.19741c4.7183,0.95743 7.25829,4.501 8.07062,8.89637c-0.10069,0.40817 -0.40164,0.81606 -0.30209,1.22451c0.04877,0.20009 0.32185,-0.27524 0.51876,-0.33555c0.57434,-0.17592 1.1651,-0.3312 1.76488,-0.36394c2.92093,-0.15944 3.19291,-0.25577 5.19182,1.88388c0.9525,1.01957 1.6345,2.52523 2.14846,3.80677c0.2548,0.63535 0.14945,2.1208 0.79512,1.89343c2.39161,-0.84224 3.94272,-3.45764 6.77305,-4.20063c2.14472,-0.56301 3.53513,-0.77383 5.60022,0.68239c0.85057,0.59978 0.82362,3.11104 1.7299,2.5993c1.08553,-0.61296 1.55866,-1.95293 2.44202,-2.83257c1.30454,-1.29906 2.05165,-1.72401 3.57885,-2.80288c1.43312,-0.14353 3.99275,-0.50583 5.50045,-0.2789c6.70936,1.00988 8.82927,9.13692 9.08667,14.8003c0.01114,0.24498 -0.00083,4.30603 -0.0208,4.43369c-0.07067,0.45181 -0.57329,0.8064 -0.53736,1.26229c0.15607,1.98053 2.80458,4.44234 3.28441,6.5472c0.68009,2.98332 0.24314,6.48497 0.2254,9.53142c-1.32815,5.41834 -4.0322,9.847 -9.93491,10.82625c-0.14281,0.02369 0.31406,-0.01312 0.4274,0.07694c0.57869,0.45979 1.0727,1.01719 1.60065,1.53445c1.7701,1.73424 3.59182,3.10621 4.1718,5.66026c1.42341,6.26832 -0.85196,14.19572 -6.13186,17.93953c4.68948,4.42373 7.87863,10.86773 4.13556,16.95898c0.16706,0.24697 0.27886,0.57749 0.27886,1.01979z" fill-opacity="0.6" fill="#d1ff75"/><path d="M135.34035,30.46244c0.32655,0.39766 0.89598,0.77539 1.81509,0.49259c1.44087,-0.44334 1.25881,-1.74713 1.18064,-2.0996c0.11562,-0.34077 0.11569,-0.6271 0.11569,-0.6271l-0.38383,-0.27721c-0.72671,-2.48859 -1.31026,-5.32626 -0.65825,-7.86276c1.3591,-5.28729 7.66977,-6.29169 12.19702,-6.28821l1.28957,-0.00025c0.54013,0.08595 0.94135,-0.07905 1.22945,-0.31126c0.31114,-0.19973 0.5942,-0.52841 0.68371,-1.06722c1.70793,-5.05242 4.14557,-7.81768 9.65802,-8.07472c2.21024,-0.10306 4.33795,0.01767 5.32752,2.11773l0.35031,0.70262c0.07221,0.28778 0.24221,0.58629 0.57085,0.86639c0.23107,0.22346 0.47713,0.38756 0.90803,0.41937c0.42905,0.05102 0.79564,-0.09915 1.06511,-0.2744c0.3749,-0.21155 0.5988,-0.472 0.72483,-0.73982c3.27442,-4.22808 7.24239,-8.18163 12.21285,-10.27223c2.46297,-1.03593 5.62993,-2.21363 8.36772,-1.26635c1.77793,0.61517 2.34078,2.60041 2.82464,4.13898c0.33942,1.07926 -0.05865,2.71778 0.98671,3.1505c3.12598,1.29397 4.34364,-1.90319 5.35808,-3.57153c1.63615,-1.45255 7.01158,-4.01276 8.81492,-1.62875c0.79112,1.04586 1.99778,5.39789 3.11946,5.6761c2.98198,0.7396 6.62304,-4.70931 8.78132,-6.09605c4.87665,-3.13336 9.32152,-2.01084 14.36275,-0.34012c3.13883,0.54713 5.77449,3.70296 5.74282,7.01301c-0.01357,1.41777 -1.29871,4.06171 -0.04752,5.30611c1.12266,1.11655 3.88193,-0.05322 5.29158,0.28776c0.21861,0.05288 3.11298,1.66824 3.36348,1.86783c2.83255,2.25675 0.50579,9.68939 6.40853,7.87602c2.07485,-0.63741 1.86498,-2.84533 2.90234,-4.18844c0.73748,-0.95483 2.33084,-1.89379 3.31028,-2.52182c2.055,-0.89001 2.59394,1.03456 3.46237,2.60616l0.27585,0.72652c0,0 0.65162,1.6266 2.27646,0.97667c0.06957,-0.02783 0.13502,-0.05738 0.19648,-0.08858c0.66778,-0.20904 0.96146,-0.77251 0.96146,-0.77251c2.31336,-3.97263 3.14934,-7.63725 7.19393,-9.97474l0.25009,0.46572c0.21992,0.71509 0.88689,1.23611 1.67412,1.23611c0.75117,0 1.3175,-0.40636 1.56567,-1.07099l0.72605,-1.8135l-0.40691,-0.16262c1.65551,-2.91481 3.48658,-6.39604 6.14334,-7.62392c1.60443,-0.74152 4.19539,1.42623 4.86736,2.69755c0.3494,0.66103 0.27083,1.60647 0.85254,2.07619c0.91486,0.73875 2.1206,1.17219 3.29227,1.2717c1.3561,0.11518 2.61794,-0.84853 3.97664,-0.92729c3.76894,-0.21847 6.09608,2.50444 6.69922,5.89345c0.22415,1.07331 -0.09512,2.43951 0.67335,3.22162c2.21883,2.2582 4.36409,-0.47459 6.55881,0.22745c3.54946,1.1354 1.34041,7.39616 6.35822,7.70934c2.21942,0.13853 5.4222,-3.66866 7.67112,-4.31865c3.88845,-1.12387 2.72305,3.88199 6.74477,3.38744c2.27582,-0.27985 5.04856,-4.31249 6.84678,-5.81582c1.60204,-0.06399 3.66705,-0.5005 5.17125,0.26391c4.58151,2.32826 5.44221,10.39472 4.80351,14.83046c-0.1021,0.70903 -0.65837,1.36053 -0.57362,2.07185c0.30282,2.54162 2.81712,4.66078 3.38266,7.15963c0.57995,2.56254 0.12634,5.62781 0.14519,8.24976c-0.89468,3.49127 -1.74297,5.40028 -5.03925,7.2058c-1.07535,0.58902 -4.21702,1.61382 -4.65553,2.71303c-1.39886,3.50647 4.01949,5.90694 5.52589,8.11784c0.68892,1.01111 0.60001,2.43347 0.63781,3.54491c0.15602,4.58711 -1.24615,10.2352 -5.57178,12.48096l-0.27098,0.06136c0,0 -1.26689,0.42302 -1.21862,1.63626c-0.65978,1.20947 0.49315,2.13279 0.49315,2.13279c3.84051,3.05598 8.34935,8.84436 4.82071,13.77827l-0.47969,0.92923c0,0 -0.07367,0.14735 -0.13058,0.37402c-1.39672,0.29107 -2.70318,0.73154 -4.2569,0.79684c-8.39968,0.35306 -16.72673,-0.0919 -25.09678,0.80221c-4.48427,0.47902 -8.64663,1.84167 -13.2327,1.83556c-10.95006,0 -21.64186,-1.22643 -32.54451,-1.82948c-5.95713,-0.3295 -11.96592,0.40328 -17.90575,-0.2567c-7.17369,-0.00265 -14.34757,-1.36828 -21.51918,-1.04915c-10.40858,0.46317 -20.33076,3.37784 -30.79958,3.42266c-11.31007,-2.55068 -23.98686,-2.41958 -35.55584,-1.86306c-6.58753,0.31689 -13.53074,2.49363 -20.12109,0.81227c-10.52164,-1.31429 -23.32795,-0.20058 -30.78828,-9.62867c-2.09037,-2.64173 -2.86717,-6.46877 -3.58842,-9.64422c0,-4.93449 2.77845,-6.14369 6.71714,-8.2687c2.0589,-1.11083 4.9647,-1.5555 5.62302,-4.34043c0.6826,-2.88762 -3.02174,-5.93266 -4.03633,-8.38658c-1.62998,-3.94233 -0.30918,-10.22404 1.5201,-13.8342c0.49127,-1.00991 0.78225,-2.11449 1.78432,-2.75584c2.06959,-1.3246 6.93968,-1.04329 8.04764,-3.79248c0.3292,-0.81685 -0.6029,-1.66669 -0.74637,-2.53561c-0.17969,-1.08832 -0.32954,-3.81995 -0.02797,-4.88262c0.34158,-1.20367 1.53121,-1.92929 2.75366,-2.48632z" fill-opacity="0.36078" fill="#48d428"/><path d="M142.613,39.46021c0.64993,1.62484 -0.9749,2.27477 -0.9749,2.27477l-1.073,0.42173c-3.38415,1.00114 -6.09543,1.16277 -9.37516,-0.26824c0,0 -1.59314,-0.72415 -0.86898,-2.3173c0.72415,-1.59314 2.3173,-0.86899 2.3173,-0.86899c2.40632,1.15606 4.41456,0.86656 6.92113,0.10213l0.77885,-0.31901c0,0 1.62483,-0.64993 2.27477,0.9749z" fill-opacity="0.6" fill="#d1ff75"/><path d="M153.58076,22.97126c-1.75,0 -1.75,-1.75 -1.75,-1.75v-0.18519c0,-3.17894 -0.4965,-5.53507 -1.40768,-8.57122c0,0 -0.50286,-1.67619 1.17334,-2.17905c1.6762,-0.50286 2.17906,1.17334 2.17906,1.17334c0.99886,3.33082 1.55528,6.08348 1.55528,9.57693v0.18519c0,0 0,1.75 -1.75,1.75z" fill-opacity="0.6" fill="#d1ff75"/><path d="M175.60315,16.60937c0.4546,-0.15006 1.52956,-0.34548 2.13545,0.8663c0.78262,1.56525 -0.78262,2.34787 -0.78262,2.34787l-1.4962,0.33595c-6.92952,-1.42284 -10.79297,-7.03283 -7.51834,-13.79494c0,0 0.78262,-1.56525 2.34787,-0.78262c1.56525,0.78263 0.78262,2.34787 0.78262,2.34787c-2.31642,4.43831 0.2514,7.64295 4.53122,8.67956z" fill-opacity="0.6" fill="#d1ff75"/><path d="M198.05298,11.9944c-1.3287,1.13889 -2.46758,-0.18982 -2.46758,-0.18982l-1.50419,-2.12213c-0.61109,-3.42267 -0.37025,-5.82599 1.05456,-9.00017c0,0 0.72415,-1.59314 2.3173,-0.86898c1.59314,0.72416 0.86899,2.3173 0.86899,2.3173c-1.16434,2.52369 -1.30448,4.19362 -0.79729,6.92576l0.71804,0.47046c0,0 1.13888,1.3287 -0.18982,2.46758z" fill-opacity="0.6" fill="#d1ff75"/><path d="M230.34928,14.18422c0,-1.75 1.75,-1.75 1.75,-1.75h0.92593c2.47648,0.00865 6.16016,-0.13551 6.22165,-3.23895c0,0 0.17413,-1.74131 1.91545,-1.56718c1.74131,0.17413 1.56718,1.91545 1.56718,1.91545c-0.72931,5.1296 -5.02318,6.37669 -9.70428,6.39068h-0.92593c0,0 -1.75,0 -1.75,-1.75z" fill-opacity="0.6" fill="#d1ff75"/><path d="M266.12855,26.19586c-1.45609,-0.97073 -0.48537,-2.42681 -0.48537,-2.42681l0.32585,-0.4852c1.40073,-2.24829 1.42928,-3.84189 0.58116,-6.32401c0,0 -0.5534,-1.6602 1.1068,-2.2136c1.66019,-0.5534 2.21359,1.10679 2.21359,1.10679c1.14194,3.49509 0.96174,6.03937 -0.90032,9.23155l-0.4149,0.62591c0,0 -0.97072,1.45609 -2.42681,0.48536z" fill-opacity="0.6" fill="#d1ff75"/><path d="M332.56045,47.20383c1.62484,-0.64993 2.27477,0.9749 2.27477,0.9749l0.06255,0.42347c2.92834,3.3501 6.08186,6.64239 10.91627,6.07774c0,0 1.74132,-0.17413 1.91545,1.56718c0.17413,1.74132 -1.56718,1.91545 -1.56718,1.91545c-6.09467,0.53573 -10.11827,-2.93945 -13.89855,-7.2556l-0.6782,-1.42838c0,0 -0.64993,-1.62483 0.9749,-2.27477z" fill-opacity="0.6" fill="#d1ff75"/><path d="M327.38588,86.27795c-0.78262,-1.56525 0.78262,-2.34787 0.78262,-2.34787l0.10299,-0.01994c1.73551,-1.3013 3.38828,-2.70064 5.48028,-3.40281c3.56985,-1.19821 7.2797,-0.64089 10.95115,-1.01258c0,0 1.74131,-0.17413 1.91544,1.56718c0.17413,1.74132 -1.56718,1.91545 -1.56718,1.91545c-5.87664,0.58105 -9.74717,0.03238 -14.67969,3.73276l-0.63774,0.35043c0,0 -1.56525,0.78263 -2.34787,-0.78262z" fill-opacity="0.6" fill="#d1ff75"/><path d="M137.84002,83.34163c-1.75,0 -1.75,-1.75 -1.75,-1.75l0.03399,-0.21236c-1.40661,-7.1032 -6.5079,-9.23588 -13.18655,-10.28128c0,0 -1.72859,-0.27293 -1.45565,-2.00152c0.27294,-1.72858 2.00152,-1.45565 2.00152,-1.45565c8.13939,1.29552 14.33879,4.45813 16.07271,13.05205l0.03399,0.89876c0,0 0,1.75 -1.75,1.75z" fill-opacity="0.6" fill="#d1ff75"/><path d="M276.18142,46.84944c-1.7393,0.19325 -1.93256,-1.54604 -1.93256,-1.54604l-0.15107,-1.46642c-1.16942,-5.14917 -3.563,-6.85945 -8.70504,-6.42732c0,0 -1.74396,0.14533 -1.88929,-1.59862c-0.14533,-1.74395 1.59863,-1.88929 1.59863,-1.88929c1.06367,-0.08794 3.65812,-0.37384 4.70821,-0.16469c4.59488,0.91517 6.73755,5.18851 7.69786,9.29291l0.21929,1.86692c0,0 0.19326,1.73929 -1.54604,1.93255z" fill-opacity="0.6" fill="#d1ff75"/><path d="M309.97847,49.05573c-0.78262,-1.56525 0.78263,-2.34787 0.78263,-2.34787l0.51237,-0.0647c0.80701,-1.0181 2.71129,-3.3363 1.51621,-4.84503c-0.09575,-0.12087 -0.20309,-0.22558 -0.32003,-0.31685v0.02331h-1.85185c-0.9665,0 -1.75,-0.7835 -1.75,-1.75c0,-0.41062 0.14141,-0.7882 0.3782,-1.08671l1.00943,-1.29784c-0.0196,-1.18503 0.13539,-1.56648 -0.79351,-2.60227c-0.41697,-0.46495 -0.9694,-0.7893 -1.48012,-1.14876c-3.22574,-2.27039 -4.03924,2.13829 -7.51542,2.06523c-0.75631,-0.0159 -0.6439,-1.38755 -1.12646,-1.97012c-0.38238,-0.46162 -1.07448,0.55349 -1.53404,0.93834c-0.83115,0.69603 -1.51708,1.65287 -1.82418,2.69256c0,0 -0.5534,1.66019 -2.21359,1.10679c-1.6602,-0.5534 -1.1068,-2.21359 -1.1068,-2.21359c1.17238,-3.27845 4.83017,-7.55901 8.864,-5.25798c0.39472,0.22517 -0.46549,1.42546 -0.01534,1.36321c0.54305,-0.0751 0.34587,-1.09226 0.74828,-1.46457c0.56545,-0.52315 1.2948,-0.87377 2.02949,-1.10541c5.789,-1.82521 9.12012,3.5008 9.27665,8.39119c1.40694,0.03682 2.60196,2.54739 2.8549,3.9022c0.51391,2.75262 -0.81514,4.67853 -2.38308,6.72508l-1.70985,1.04641c0,0 -1.56525,0.78262 -2.34787,-0.78263z" fill-opacity="0.6" fill="#d1ff75"/><path d="M183.47891,61.03607c0,1.75 -1.75,1.75 -1.75,1.75h-1.11111c-1.84251,0 -3.68502,-0.00313 -5.52753,-0.00707c-1.85911,-0.3385 -4.42824,-0.58312 -5.7774,-2.12158c-0.47941,-0.54668 0.24378,-1.48708 0.02715,-2.18118c-0.11397,-0.36516 -0.65528,-0.40928 -0.9214,-0.68407c-1.78548,-1.84352 -2.3257,-2.32834 -2.32848,-5.0691c-0.00282,-2.78751 0.50159,-4.19171 2.78548,-5.89993c0.72666,-0.5435 1.63842,-0.81885 2.52235,-1.02402c0.29048,-0.06743 0.71939,-0.11008 1.15442,-0.11044c-0.34493,-0.64549 -0.56004,-1.37245 -0.68764,-2.08719c-0.44099,-2.47025 -0.04723,-5.19443 2.37175,-6.70095c1.61162,-1.0037 6.68046,-0.24524 8.66403,-0.38781c0,0 1.74555,-0.12468 1.87024,1.62087c0.12468,1.74555 -1.62088,1.87023 -1.62088,1.87023c-2.32004,0.16474 -3.29171,0.29641 -5.68023,0.18963c-0.53118,-0.02375 -1.09539,-0.42217 -1.58166,-0.20707c-2.95694,1.30799 2.0248,6.55834 1.58501,7.49859c-1.64151,3.50952 -6.2467,0.04792 -7.67733,3.36635c-1.48444,3.44325 1.85675,3.90619 2.84064,6.44825c0.18778,0.48517 -0.6182,1.08089 -0.34322,1.52253c0.55446,0.89047 2.07937,0.28373 3.11149,0.47102c1.73773,-0.00411 3.47547,-0.00707 5.21321,-0.00707h1.11111c0,0 1.75,0 1.75,1.75z" fill-opacity="0.6" fill="#d1ff75"/><path d="M248.32724,75.92492c-0.48499,-0.07647 -1.49649,-0.39543 -1.49649,-1.72589c0,-1.75 1.75,-1.75 1.75,-1.75l1.42037,0.35c5.49875,4.2377 3.81238,9.56135 -1.96314,12.23873c-0.38542,0.10918 -0.97114,-0.02769 -1.15625,0.32756c-0.31286,0.60043 0.2591,1.43936 -0.07212,2.02985c-1.35146,2.40932 -4.37497,2.94149 -6.84538,2.99613c-1.6994,0.03759 -3.56422,-0.65901 -4.73619,-1.89022c-0.59417,-0.6242 -0.80867,-2.27616 -1.62783,-2.0085c-0.46563,0.15214 -0.57957,0.82592 -1.00059,1.07631c-1.62799,0.96822 -4.69891,1.45815 -6.59383,1.14988c-6.36378,-1.03527 -4.31384,-7.56507 -0.31195,-9.9384c0,0 1.52978,-0.84987 2.37965,0.6799c0.84987,1.52978 -0.6799,2.37965 -0.6799,2.37965c-0.45177,0.22378 -3.31192,2.34725 -1.91553,3.268c1.01196,0.66726 4.4104,-0.02788 5.38011,-0.57505c0.8077,-0.45575 1.40582,-1.48615 2.33274,-1.51628c4.60989,-0.14982 2.60986,2.95544 5.4498,3.9887c0.80627,0.29335 4.69913,-0.21009 5.04452,-1.18759c0.27018,-0.76465 -0.17668,-1.75722 0.29825,-2.41459c0.5795,-0.80212 1.6983,-1.01619 2.54745,-1.52429c3.24776,-1.44073 4.73319,-3.56505 1.7963,-5.95391z" fill-opacity="0.6" fill="#d1ff75"/><path d="M306.87615,74.14135c-0.86825,-1.51942 0.65118,-2.38767 0.65118,-2.38767l2.16454,-0.97132c4.38862,0.07553 6.11168,1.89368 6.1759,6.26338c-0.28109,0.86224 -0.3389,1.83302 -0.84326,2.58673c-0.48099,0.71878 -1.24989,1.22058 -1.99655,1.65705c-0.24354,0.14237 -0.9887,-0.23875 -0.84631,0.00478c0.17933,0.3067 0.84157,-0.00726 1.02334,0.298c1.45062,2.43622 1.37888,3.6348 -0.34237,5.79399c-1.79897,2.2567 -6.62484,3.31357 -9.24911,2.18652c-0.08234,-0.03536 -0.13366,-0.1063 -0.16952,-0.19451c0.01043,0.05542 0.00672,0.10529 -0.01757,0.14575c-0.59859,0.99688 -1.38313,1.96364 -2.3953,2.53599c-2.35339,1.33077 -6.8238,0.47911 -8.35981,-1.71864c-1.33642,-1.91218 -0.55507,-3.23643 -0.00999,-5.02911c0,0 0.5534,-1.6602 2.21359,-1.1068c1.6602,0.5534 1.1068,2.21359 1.1068,2.21359c-0.90254,2.35095 1.16338,3.70564 3.48205,2.51152c1.004,-0.51707 1.66021,-3.32909 2.37149,-3.58476c0.92847,-0.33373 1.86403,0.65858 2.82389,0.8868c1.39471,0.33161 3.30165,0.21716 4.59093,-0.43559c3.39082,-1.71675 -0.82043,-2.35422 -0.56648,-4.61924c0.27358,-2.44007 3.20226,-2.47585 3.72129,-4.64033c0.06975,-2.16079 -0.67678,-2.30729 -2.713,-2.25514l-0.42805,0.51017c0,0 -1.51942,0.86825 -2.38767,-0.65118zM303.40646,89.26181c-0.06818,-0.26299 -0.07283,-0.59421 -0.3024,-0.65404c-0.23735,-0.06186 0.16554,0.33655 0.3024,0.65404z" fill-opacity="0.6" fill="#d1ff75"/></g><path d="M256.90059,52.3268c0,0 -1.47168,-15.01181 -7.36934,-23.18174c-2.00242,-2.77392 9.56236,-2.94071 9.56236,-2.94071c0,0 9.05636,18.20022 19.42157,21.63939c1.39472,0.46277 3.0195,1.27016 -1.42153,2.6685c-2.54288,0.80067 3.35589,6.64508 3.35589,6.64508c0,0 -2.52318,2.32006 -5.55417,1.49701c-1.58698,-0.43094 -0.1046,4.38639 -2.29426,4.46594c-1.99619,0.07252 -4.14327,-4.46516 -6.85734,-6.04714c-1.62824,-0.94907 -4.32846,0.79299 -4.89311,0.67717c-2.03425,-0.41728 -3.95006,-5.42347 -3.95006,-5.42347z" fill="#ffe7b0" stroke="none" stroke-width="0"/><path d="M169.78927,52.38607c0,0 -1.79226,-6.20824 0.73665,-8.91054c1.66776,-1.78211 8.93278,-0.46662 11.29193,-2.93807c5.88943,-6.16976 12.33721,-14.18785 12.33721,-14.18785c0,0 15.31095,-1.15826 13.70491,4.20032c-1.60604,5.35858 -17.90141,14.5915 -20.64238,17.63221c-2.31519,2.56836 -6.40955,5.66686 -9.22575,6.49967c-3.19382,0.94448 -8.20256,-2.29574 -8.20256,-2.29574z" fill="#ffe7b0" stroke="none" stroke-width="0"/><path d="M199.64705,60.8204l-13.30508,-9.08855c0,0 49.99646,-5.29385 70.04843,0.16949c7.22691,1.96904 -15.84745,7.47839 -15.84745,7.47839z" fill="#ffe7b0" stroke="none" stroke-width="0"/><path d="M214.58821,17.89107c0,0 2.74458,-4.01549 0.7631,-6.58405c-1.49693,-1.94045 -8.2425,-2.24514 -6.44586,-3.95953c3.64808,-3.48107 1.86054,-8.0499 3.25719,-13.12578c1.36462,-4.9595 8.85749,-6.5827 12.24745,-6.80486c3.32686,-0.21802 9.98204,1.05014 9.98204,1.05014c0,0 5.11359,13.66626 8.9441,15.81634c2.7726,1.55628 -6.04564,3.70934 -5.57268,5.43268c0.78175,2.84846 4.45877,7.28197 4.45877,7.28197z" fill="#ffe7b0" stroke="none" stroke-width="0"/><path d="M152.41341,87.61216c-5.58453,-2.2934 12.85715,-7.85714 12.85715,-7.85714l15.61225,3.06123l-1.42857,4.89795c0,0 -19.57861,2.96246 -27.04082,-0.10204z" fill="#000000" stroke="none" stroke-width="0"/><path d="M167.59048,79.25777l2.15686,-16.96079c0,0 13.37645,-7.12568 23.43138,-5.29412c1.3231,0.24101 14.85388,2.62479 9.28903,6.28393c-2.79311,1.8366 -17.74752,3.80953 -18.9668,5.29845c-1.87037,2.28401 -1.59673,12.53526 -1.59673,12.53526z" fill="#000000" stroke="none" stroke-width="0"/><path d="M256.51205,72.5911c0.32299,-7.72273 -20.13946,-4.46903 -15,-12.54902c2.64466,-4.1578 15.94275,-3.22638 23.52941,1.27451c7.58666,4.5009 10.19608,20.78431 10.19608,20.78431c0,0 -19.36756,5.84197 -18.72549,-9.5098z" fill="#000000" stroke="none" stroke-width="0"/><path d="M191.60141,27.73144l19.57143,-9.57143l30.28572,-2.14285c0,0 6.62659,1.29059 9.93762,3.43443c3.30802,2.14188 9.91952,9.42271 9.91952,9.42271c0,0 -11.54283,-1.83361 -12.12733,3.93713c-0.25153,2.48337 -4.19653,5.57537 -2.71282,7.53103c1.49287,1.94648 9.08133,1.58468 7.35548,3.4871c-3.91646,4.31715 4.02354,8.99686 2.91463,8.97477c-8.84215,-0.17614 -51.94264,5.48081 -68.2917,-1.88683c-2.40992,-1.08602 8.21077,-1.59928 8.47314,-4.65751c0.08859,-1.03265 -2.66445,-5.42481 -0.22749,-6.0809c11.41235,-3.07246 8.83859,-4.74983 7.3055,-5.91842c-4.60558,-3.51058 -12.40369,-6.52923 -12.40369,-6.52923z" fill="#f2ff92" stroke="none" stroke-width="0"/><path d="M191.13084,44.32275c-0.48076,1.68267 -2.16343,1.2019 -2.16343,1.2019l-1.35337,-0.41219c-2.37356,-0.26796 -4.10711,-0.6873 -6.22412,-1.70497c-0.13291,-0.05217 -0.27095,-0.12399 -0.41365,-0.21912c-0.45673,-0.30448 -0.67469,-0.65673 -0.75873,-0.99681c-0.09575,-0.33697 -0.08128,-0.75093 0.16421,-1.2419c0.10447,-0.20892 0.22287,-0.37602 0.34964,-0.50874l0.07593,-0.10124c0.79198,-1.84024 1.75644,-3.50659 2.75655,-5.24137c3.85388,-4.4962 7.47257,-9.77228 12.71722,-12.91496c5.56911,-3.33711 12.32084,-4.50652 18.52792,-6.05881c0,0 1.69775,-0.42444 2.12219,1.27331c0.42443,1.69775 -1.27331,2.12219 -1.27331,2.12219c-5.85179,1.46247 -12.32408,2.50827 -17.57147,5.66177c-4.80484,2.88755 -8.13366,7.81676 -11.66159,11.93267c-0.7142,1.26317 -1.41799,2.48173 -2.02981,3.77921c1.1238,0.4009 2.18656,0.58533 3.60553,0.74017l1.92839,0.52545c0,0 1.68266,0.48076 1.2019,2.16343z" fill="#1c4096" stroke="none" stroke-width="0.5"/><path d="M245.12902,42.20111c0,-1.75 1.75,-1.75 1.75,-1.75h1.40647c3.53762,0.00603 7.70992,-0.04151 7.60711,4.66842c-0.02035,0.93244 -0.24735,1.90418 -0.73343,2.70016c-0.0478,0.07827 -0.09813,0.15434 -0.15086,0.22835c0.86363,0.11224 1.63176,0.28803 2.08649,0.58747c5.20743,3.42913 -0.63721,8.7565 -4.07864,10.38554c-3.79128,1.79465 -8.21129,1.79775 -12.25243,2.26341c-2.83725,0.32694 -5.38189,1.1837 -8.30949,1.18179c-6.0481,0.76746 -12.15824,0.51447 -18.23117,0.23628c-7.70683,-0.35303 -14.88632,-0.98432 -22.14308,-3.87424c0,0 -0.45781,-0.18313 -0.79021,-0.59799c-3.46038,-1.15939 -8.02498,-3.70774 -5.69932,-7.99992c0.644,-1.18855 3.19158,-1.91194 4.37768,-2.38648c1.65252,-0.66115 3.20042,-1.13743 4.7265,-1.82659c-0.22597,-0.23812 -0.41798,-0.49703 -0.53414,-0.80239c-2.38365,-6.2656 4.47745,-7.9204 9.45231,-9.12982c-0.87383,-0.77041 -1.7485,-1.69635 -1.83159,-2.5389c-0.52622,-5.33561 8.17362,-5.98254 11.57694,-5.98773c0,0 1.75,0 1.75,1.75c0,1.75 -1.75,1.75 -1.75,1.75c-2.42992,-0.0041 -4.48924,0.21271 -6.7211,1.22299c-0.48164,0.21802 -1.67123,0.31 -1.39254,0.75928c0.43328,0.69849 1.33349,0.96338 1.9672,1.48687l0.95687,0.6288c0.31139,0.11241 0.61906,0.33863 0.84448,0.76322c0.18322,0.27849 0.32586,0.65029 0.25688,1.09401c-0.03365,0.44779 -0.25704,0.77745 -0.49875,1.00702c-0.30842,0.35357 -0.6502,0.5053 -0.9721,0.54838c-0.58424,0.23393 -1.15832,0.5016 -1.76953,0.64584c-0.75502,0.17817 -1.54105,0.17997 -2.31153,0.27033c-2.13393,0.25027 -8.65463,2.48712 -5.29684,5.22904l0.24495,0.24495c0.16528,0.12705 0.32472,0.30067 0.47044,0.53382c0.26583,0.42533 0.33357,0.80493 0.29493,1.13009c-0.03546,0.32552 -0.18683,0.68019 -0.54149,1.03484c-0.20367,0.20367 -0.40734,0.34029 -0.60549,0.42642c-2.28784,1.3623 -4.54705,2.02163 -7.01221,3.00746c-0.86709,0.34676 -2.06071,0.17465 -2.65466,0.89528c-0.98786,1.19855 2.81257,2.70584 3.2645,2.85467c0.56776,0.18697 1.16069,0.28634 1.74104,0.4295l0.98204,-0.05225c0,0 1.51939,0 1.72668,1.41576c5.88438,1.85592 11.78083,2.28854 18.03662,2.57075c5.96195,0.26896 11.92956,0.49965 17.86823,-0.23255c2.87,-0.00183 5.31001,-0.82836 8.09932,-1.16232c3.1463,-0.37672 6.24192,-0.45059 9.33542,-1.3498c1.60172,-0.46558 6.0089,-2.28675 6.0501,-4.49308c0.00678,-0.36315 -4.87362,-0.70902 -5.30906,-0.76345l-1.3595,0.0129c-0.37101,0.02831 -0.84366,-0.03432 -1.23416,-0.40508c-0.25969,-0.20682 -0.48015,-0.51907 -0.55388,-0.9905c-0.11794,-0.46235 -0.03831,-0.8362 0.11892,-1.12859c0.21543,-0.50053 0.63246,-0.74416 0.9874,-0.86275c0.77068,-0.30169 5.70231,-2.08647 4.16638,-3.60734c-0.55607,-0.55062 -3.58625,-0.27317 -4.25223,-0.27189h-1.40647c0,0 -1.75,0 -1.75,-1.75z" fill="#1c4096" stroke="none" stroke-width="0.5"/><path d="M244.51559,28.05184c0.5534,-1.6602 2.21359,-1.1068 2.21359,-1.1068l1.38727,0.65717c4.7959,4.80424 6.69752,11.18014 9.76087,17.06561c2.33148,-0.03244 4.60608,-0.35034 6.88373,-0.88813c0.98618,-0.23286 2.13457,0.15966 3.02199,-0.32948c0.1978,-0.10903 -0.29568,-0.35381 -0.37182,-0.56645c-0.19579,-0.54676 -0.29008,-1.1247 -0.43512,-1.68704c-0.75837,-3.47285 -2.69306,-5.22577 -4.66276,-8.08566c-4.73624,-6.87676 -11.15793,-14.89136 -20.0466,-15.65564c0,0 -1.74282,-0.15844 -1.58438,-1.90125c0.15844,-1.74282 1.90125,-1.58438 1.90125,-1.58438c10.03671,0.95475 17.23398,9.31833 22.61632,17.16199c2.20711,3.21641 4.29466,5.32542 5.18254,9.26081c0.34301,1.40855 1.20704,3.91617 0.13071,5.24768c-0.6823,0.84404 -2.03676,0.75334 -3.07271,1.07698c-3.08531,0.96389 -6.37597,1.4105 -9.60163,1.4504c-0.00998,0.00572 -0.02007,0.01142 -0.03027,0.01708c-0.54955,0.30531 -1.01135,0.30351 -1.37754,0.17587c-0.36472,-0.09884 -0.73689,-0.34757 -1.01581,-0.88045c-1.96418,-3.54315 -3.3679,-7.41572 -5.23988,-10.98694c-0.26055,1.6054 -1.20349,3.11599 -2.89693,4.18l-0.75589,0.58381c0,0 -1.4,1.05 -2.45,-0.35c-1.05,-1.4 0.35,-2.45 0.35,-2.45l1.11941,-0.82266c2.40662,-1.13026 1.12162,-3.94194 -0.87956,-5.1338c-0.90929,-0.54156 -2.1165,-0.03719 -3.17485,-0.0356c0,0 -1.75,0 -1.75,-1.75c0,-1.75 1.75,-1.75 1.75,-1.75c0.69583,0.00095 1.88545,-0.03094 2.94685,0.04718c-0.05583,-0.26808 -0.04356,-0.58607 0.08118,-0.96028z" fill="#1c4096" stroke="none" stroke-width="0.5"/><path d="M199.16817,39.85699c0,1.13387 -0.73467,1.53307 -1.25198,1.67363c-2.19808,1.8457 -4.14061,3.13999 -6.91591,4.18436c0,0 -1.63858,0.61446 -2.25304,-1.02411c-0.61446,-1.63858 1.02411,-2.25304 1.02411,-2.25304c2.58741,-0.96657 4.18919,-2.1229 6.27352,-3.90954l1.3733,-0.4213c0,0 1.75,0 1.75,1.75z" fill="#1c4096" stroke="none" stroke-width="0.5"/><path d="M217.10137,9.56452c1.6762,0.50286 1.17333,2.17905 1.17333,2.17905l-0.48538,1.58545c-0.61076,1.46581 -1.2261,2.92971 -1.84232,4.39323c0,0 -0.6791,1.61286 -2.29196,0.93376c-1.61286,-0.6791 -0.93376,-2.29196 -0.93376,-2.29196c0.61453,-1.45951 1.22819,-2.91939 1.83727,-4.38119l0.36376,-1.24501c0,0 0.50286,-1.67619 2.17906,-1.17334z" fill="#1c4096" stroke="none" stroke-width="0.5"/><path d="M211.20301,3.09751l0.75005,-7.68798c0,0 6.78783,2.37807 10.96943,1.6876c5.67801,-0.93756 14.34465,-3.84399 14.34465,-3.84399l2.15639,8.53178z" fill="#000000" stroke="none" stroke-width="0"/><path d="M211.63106,4.31317c0.55901,1.11803 -0.55902,1.67706 -0.55902,1.67706l-0.31546,-0.08642c-2.00994,3.33769 3.09827,3.37929 5.27583,3.37929c0,0 1.25,0 1.25,1.25c0,1.25 -1.25,1.25 -1.25,1.25c-4.34077,0 -10.41225,-1.48718 -7.46123,-7.0934l1.38282,-0.93555c0,0 1.11803,-0.55902 1.67705,0.55901z" fill="#1c4096" stroke="none" stroke-width="0.5"/><path d="M237.65233,3.64151c-5.01007,0.68897 -10.56756,1.0059 -15.51997,-0.20481l-0.82806,0.25287c-2.83211,1.04361 -5.86641,1.23069 -8.85473,1.6043c0,0 -0.09939,0.01243 -0.25003,0.00516c-0.14626,0.33019 -0.45762,0.68164 -1.12043,0.68164c-1.25,0 -1.25,-1.25 -1.25,-1.25c0,-4.55947 0.3271,-12.3503 3.91879,-15.75814c2.77449,-2.63247 7.70033,-3.32076 11.34196,-3.32373c2.49367,0 5.06899,-0.05403 7.42056,0.94746c5.5463,2.36207 9.00118,9.73738 8.74325,15.48793c2.22069,0.25642 4.48335,1.60556 2.53538,4.3752c-0.60515,0.86042 -3.13875,1.49229 -4.06253,2.22995l-0.08983,0.0972c0.9401,1.51541 1.64539,3.03407 2.38623,4.66393l0.46351,1.2262c0,0 0.52668,1.4045 -0.87781,1.93118c-1.40449,0.52669 -1.93117,-0.87781 -1.93117,-0.87781l-0.38563,-1.03816c-0.71452,-1.57193 -1.37444,-3.02884 -2.30583,-4.48564c0,0 -0.78937,-1.24043 0.423,-2.04663c-0.08187,-0.59276 0.38317,-1.0578 0.38317,-1.0578l0.3995,-0.38585c1.38096,-1.05244 5.75651,-2.56823 2.03626,-2.1735c-0.08506,0.01489 -0.17757,0.02299 -0.27818,0.02299c-0.39667,0 -0.66746,-0.12588 -0.85232,-0.29774c-0.19123,-0.16475 -0.34624,-0.41998 -0.39004,-0.81422c-0.00694,-0.06245 -0.01039,-0.12212 -0.01068,-0.17912zM236.94567,0.72592l1.26784,-0.46162c0,0 0.20804,-0.0743 0.49296,-0.08603c-0.44246,-4.43261 -3.13174,-9.60585 -7.16792,-11.27866c-2.04409,-0.84718 -4.29142,-0.75081 -6.44868,-0.75081c-3.00079,-0.00265 -7.27672,0.48139 -9.6034,2.62023c-0.93581,0.86026 -1.59466,2.15833 -2.05839,3.65245c3.09192,-0.21058 6.03498,0.57846 8.95399,1.8224l0.62752,0.24079c3.55755,-1.86891 6.52489,-3.14436 10.64498,-3.69373l1.21183,-0.01316c0,0 1.5,0 1.5,1.5c0,1.5 -1.5,1.5 -1.5,1.5l-0.81534,-0.01316c-3.91305,0.52171 -6.55356,1.73312 -9.96636,3.54463c-0.27854,0.24599 -0.60512,0.31813 -0.88354,0.3218c-0.27731,0.03052 -0.61102,-0.00126 -0.91808,-0.21238l-1.08276,-0.41735c-2.72418,-1.17502 -5.52238,-1.94413 -8.44989,-1.49603c-0.24317,1.63215 -0.3467,3.30305 -0.39031,4.77726c2.64387,-0.31518 5.40659,-0.45035 7.89082,-1.40197l1.11191,-0.34438c0.2425,-0.12106 0.49834,-0.15324 0.70408,-0.15266c0.20248,-0.00825 0.45473,0.01342 0.69821,0.12089c4.49501,1.14119 9.62098,0.80417 14.18054,0.2215z" fill="#1c4096" stroke="none" stroke-width="0.5"/><path d="M239.15964,-6.41618c0.36381,1.45521 -1.09141,1.81902 -1.09141,1.81902l-0.76924,0.14615c-0.57437,0 -1.14872,0 -1.72309,0c0,0 -1.5,0 -1.5,-1.5c0,-1.5 1.5,-1.5 1.5,-1.5c0.57437,0 1.14872,0 1.72309,0l0.04163,-0.05657c0,0 1.45521,-0.3638 1.81901,1.09141z" fill="#1c4096" stroke="none" stroke-width="0.5"/><path d="M215.46558,-0.36484c0,-0.82843 0.67157,-1.5 1.5,-1.5c0.82843,0 1.5,0.67157 1.5,1.5c0,0.82843 -0.67157,1.5 -1.5,1.5c-0.82843,0 -1.5,-0.67157 -1.5,-1.5z" fill="#fffcf7" stroke="none" stroke-width="0.5"/><path d="M229.5979,-1.0754c0,-0.82843 0.67157,-1.5 1.5,-1.5c0.82843,0 1.5,0.67157 1.5,1.5c0,0.82843 -0.67157,1.5 -1.5,1.5c-0.82843,0 -1.5,-0.67157 -1.5,-1.5z" fill="#fffcf7" stroke="none" stroke-width="0.5"/><path d="M217.06534,-1.07408c0,-0.27614 0.22386,-0.5 0.5,-0.5c0.27614,0 0.5,0.22386 0.5,0.5c0,0.27614 -0.22386,0.5 -0.5,0.5c-0.27614,0 -0.5,-0.22386 -0.5,-0.5z" fill="#000000" stroke="none" stroke-width="0.5"/><path d="M229.91918,-1.67383c0,-0.27614 0.22386,-0.5 0.5,-0.5c0.27614,0 0.5,0.22386 0.5,0.5c0,0.27614 -0.22386,0.5 -0.5,0.5c-0.27614,0 -0.5,-0.22386 -0.5,-0.5z" fill="#000000" stroke="none" stroke-width="0.5"/><path d="M222.06441,11.87954c2.48336,1.25114 2.72169,-0.54405 2.99546,-2.15706c-1.03835,0.01787 -2.0661,-0.06425 -3.02688,-0.24668c-0.38523,0.98369 -0.76994,2.00001 0.03142,2.40374zM224.95842,14.0807c-4.00565,1.70931 -7.27,-2.8872 -5.55862,-5.59596c-1.14051,-0.68552 -2.49692,-1.75552 -1.69584,-2.43548c0.1461,-0.40208 0.49495,-0.71868 0.94592,-0.80292c0.46051,-0.08602 0.90916,0.09235 1.18961,0.42795c3.1395,1.16013 4.4876,1.82218 9.09252,0.86415c1.8023,-0.37496 3.89552,-4.67562 5.2566,-2.35148c0.54802,0.93578 -1.72565,3.35654 -2.35832,3.75317c-1.13236,0.70988 -2.52433,1.20853 -4.00096,1.49499c-0.15212,1.69056 -1.50683,4.0635 -2.8709,4.64558z" fill="#000000" stroke="none" stroke-width="0.5"/><path d="M221.99699,9.44112c0.96078,0.18243 2.06679,0.27248 3.10514,0.25461c-0.27378,1.61301 -0.59283,3.46688 -3.07619,2.21574c-0.80136,-0.40373 -0.41418,-1.48666 -0.02895,-2.47035z" fill="#ff0000" stroke="none" stroke-width="0.5"/><path d="M171.08962,64.57324c-0.92323,1.33173 -0.89888,3.70872 -1.10109,5.19772c-0.26915,1.9818 0.69309,9.26702 -2.0845,9.26702c-2.27896,0 -1.69932,-2.37153 -1.66279,-3.70587c0.09742,-3.55841 -0.56793,-11.94218 3.26429,-14.24151c0.04906,-0.04547 0.10073,-0.08817 0.15476,-0.12784c0.26486,-0.22702 0.52293,-0.33702 0.77017,-0.35868c1.00818,-1.18529 2.58523,-2.25978 3.37583,-2.68989c4.20335,-2.28673 15.36879,-4.32493 18.71114,-1.46007l0.08718,0.00485c0.09763,0.1139 0.18827,0.22491 0.27105,0.33339c0.36066,0.32055 0.58788,0.78797 0.58788,1.30845c0,0.9665 -0.7835,1.75 -1.75,1.75c-1.1289,0.56439 -8.63238,-1.27123 -10.95383,-0.73987c-4.84222,1.10836 -5.23402,3.07836 -8.49269,4.7077c-0.23426,0.11714 -0.4828,0.21179 -0.73312,0.26573c-0.18874,0.19208 -0.35553,0.36084 -0.44429,0.48888z" fill="#1c4096" stroke="none" stroke-width="0.5"/><path d="M203.48675,63.64763c-4.95735,2.86364 -8.30446,5.2935 -14.09341,6.00615c-1.35987,0.16741 -5.44758,0.26812 -5.44758,-1.95939c0,-2.78889 5.66156,-1.42642 7.28372,-1.79521c3.84385,-0.87389 6.70313,-4.24526 10.27402,-5.13798c0.02517,-0.02074 0.05093,-0.04078 0.07725,-0.0601c0.37694,-0.32309 0.77714,-0.40874 1.14959,-0.33471c0.91289,0.05921 1.63501,0.81842 1.63501,1.74629c0,0.40905 -0.14035,0.78533 -0.37551,1.0833c-0.11969,0.17185 -0.28517,0.32577 -0.50308,0.45166z" fill="#1c4096" stroke="none" stroke-width="0.5"/><path d="M166.59009,78.77062c0.01065,-0.82489 1.01212,-1.3811 1.75,-1.75c0.56501,-0.28247 2.70366,1.46179 3.24182,1.70658c2.47927,1.12776 5.94869,0.92996 8.50865,1.08286c-0.57111,-2.84289 0.61358,-8.62471 1.83329,-10.65755c0.02022,-0.0337 0.04504,-0.06981 0.07409,-0.10795c-1.91046,-0.69652 -3.32082,-2.17523 -2.46785,-3.45469c0.78797,-1.18197 4.94914,0.2452 6.25288,0.35451c0.05563,0.00467 0.11539,0.00682 0.17683,0.00882c0.88345,0.08865 1.57317,0.83437 1.57317,1.74118c0,0.53186 -0.23727,1.00831 -0.61173,1.32927c0.00081,0.02196 0.00123,0.04401 0.00123,0.06616c0,0.80321 -0.54113,1.48004 -1.27872,1.68581c-0.89523,0.97868 -1.66126,1.73937 -1.68658,3.93306c-0.02471,2.14096 1.29523,4.90558 -0.21875,6.41957c-0.73605,0.73605 -1.29797,1.00773 -1.90546,0.81503c-0.34053,1.96894 -3.38687,1.37428 -4.50979,1.36819c-2.71309,-0.01471 -9.05624,-0.77406 -10.53258,-3.72675z" fill="#1c4096" stroke="none" stroke-width="0.5"/><path d="M254.5323,56.53232c5.52065,0.04136 9.30304,2.03106 13.69812,5.09949c0.83218,0.58098 3.43927,2.22424 3.43927,3.35612c0,1.64991 -0.5156,2.16551 -2.16551,2.16551c-1.56549,0 -4.66408,-3.93841 -6.30831,-4.78562c-3.94583,-2.03317 -7.29162,-2.65699 -11.67378,-2.16453c-0.1332,0.03244 -0.27237,0.04964 -0.41555,0.04964c-0.9665,0 -1.75,-0.7835 -1.75,-1.75c0,-0.45086 0.17049,-0.86189 0.45052,-1.17214c0.97571,-1.23924 3.22239,-0.80973 4.72523,-0.79847z" fill="#1c4096" stroke="none" stroke-width="0.5"/><path d="M243.95693,64.39157c1.78413,1.56441 5.62581,1.83814 7.8748,1.84735c1.11996,0.00459 12.9656,-1.76012 10.77973,2.50767c-0.80568,1.57305 -4.74215,0.87602 -5.48981,0.95005c-3.29434,0.32621 -12.46375,0.57171 -15.37636,-2.55666c-0.77683,-0.83437 -3.5439,-5.02964 -1.85352,-5.99557c0.30442,-0.51579 0.86589,-0.86182 1.50818,-0.86182c0.9665,0 1.75,0.7835 1.75,1.75c0,0.23126 -0.04486,0.45204 -0.12635,0.65412c0.13146,0.57366 0.29953,1.14911 0.93333,1.70485z" fill="#1c4096" stroke="none" stroke-width="0.5"/><path d="M253.75772,69.87653c0.21432,-1.1004 1.68246,-1.91082 2.73918,-1.36959c1.50352,0.77007 2.62141,8.46198 2.64685,9.96069c0.0213,1.25442 0.84749,3.13358 -0.24182,3.75605c-0.30442,0.51579 -0.86589,0.86182 -1.50818,0.86182c-0.63895,0 -1.19792,-0.34243 -1.5034,-0.85379c-0.09397,-0.12183 -0.15958,-0.27776 -0.20102,-0.49775c-0.02981,-0.128 -0.04557,-0.26139 -0.04557,-0.39847c-0.17742,-2.99163 -2.44655,-8.58109 -1.88604,-11.45896zM255.64376,81.33549z" fill="#1c4096" stroke="none" stroke-width="0.5"/><path d="M267.43127,89.29208c2.02355,-0.01552 4.08125,-0.09544 6.06662,-0.1103c0.48199,-0.0036 13.28325,-1.83108 11.17401,2.28707c-0.68412,1.33571 -3.63459,0.99915 -4.74195,1.10263c-4.46937,0.41762 -9.44835,0.41641 -13.93261,0.44121c-1.96997,0.0109 -3.81717,0.25549 -5.67627,-0.16255c-0.6526,-0.14675 -2.9144,-0.63983 -2.84839,-1.59711c-0.06053,-0.12485 -0.10666,-0.258 -0.13622,-0.39726c-0.34293,-0.2495 -0.69503,-0.68993 -1.03274,-1.36534c-0.95314,-1.90628 -0.2386,-4.25892 -0.21875,-6.39011c0.00495,-0.5313 -0.03505,-2.21117 0.35213,-2.43241l1.50818,-0.86182c0.23215,0.13265 0.43908,0.30549 0.62116,0.50764c0.14858,-0.0651 0.31315,-0.12724 0.49433,-0.18764c1.16697,-0.38899 3.58619,1.76629 5.17812,1.77574c3.675,0.02182 6.78177,0.03082 9.4654,-1.30263c-0.17759,-0.67385 -0.28703,-1.38193 -0.45391,-1.97284c-1.19898,-4.24536 -2.2754,-8.46109 -4.28015,-12.47058c-0.12804,-0.24318 -0.2005,-0.52019 -0.2005,-0.81412v0c0,-0.01891 0.00031,-0.03775 0.0009,-0.05651c0.04554,-2.42136 0.98112,-2.40249 1.96274,-1.68058c0.80336,0.09778 1.43873,0.73993 1.5261,1.54646c0.34291,0.42852 0.60363,0.80691 0.70907,0.98474c2.36244,3.98426 2.62462,9.15348 4.15634,13.4423c0.08859,0.24807 0.1617,0.59553 0.19527,0.97485c0.08619,0.20698 0.13378,0.43406 0.13378,0.67226c0,0.18961 -0.03016,0.37218 -0.08593,0.54317c-0.09113,1.36109 -1.77423,2.62754 -3.52691,3.15829c-1.22368,0.37055 -2.5073,0.23251 -3.76612,0.35137c-1.48305,0.14004 -7.3762,0.61089 -10.50924,-0.70647c-0.02047,1.21075 -0.03818,2.4218 0.01923,3.63077c0.01007,0.21197 0.00639,0.41913 -0.00971,0.61899c0.20227,0.06379 0.38867,0.16333 0.5518,0.29121c2.17636,-0.36357 4.78211,0.19891 7.30421,0.17957z" fill="#1c4096" stroke="none" stroke-width="0.5"/><path d="M169.58577,79.99888c-1.68831,0.84416 -3.5712,2.7136 -5.3955,3.10711c-4.17081,0.89965 -6.33086,-0.17414 -9.57531,2.87704c-0.29505,0.27747 0.80803,0.08651 1.20096,0.18475c0.57575,0.14394 1.24747,0.58028 1.85946,0.58737c2.25655,0.02613 4.37007,-0.07134 6.5645,-0.28863c4.63809,-0.45926 9.37815,1.31905 13.90018,-0.46802c0.09768,-0.03861 0.17927,-0.10818 0.2668,-0.16162c0.39307,-0.24 3.82601,-9.37083 4.97018,-3.49618c1.91796,9.84758 -14.29578,7.46526 -18.79477,7.58354c-3.26164,0.08575 -6.63297,0.9203 -9.76743,-0.37803c-1.49765,-0.62035 -3.08399,1.15155 -4.62742,0.26959c-1.33044,-0.76025 -1.30729,-3.5956 -0.2876,-4.75069c1.89147,-2.14262 6.5301,-5.32834 9.65587,-5.3693c1.25934,-0.0165 2.51896,0.01173 3.77836,0c1.13345,-0.01055 3.4531,-2.57998 4.88783,-2.93866c0.21686,-0.09629 0.45693,-0.1498 0.7095,-0.1498c0.03158,0 0.06296,0.00083 0.09412,0.00248c1.37753,0.05549 1.79289,0.92987 1.65525,1.79498c-0.01737,0.6522 -0.39156,1.21544 -0.93447,1.50163c-0.05207,0.03409 -0.10563,0.06502 -0.16051,0.09246z" fill="#1c4096" stroke="none" stroke-width="0.5"/><path d="M275.16726,82.54881c0.52679,-0.92188 1.17206,-1.47406 1.87851,-1.74536c1.7188,-0.66006 3.79983,0.34257 5.41811,1.72864c0.26849,0.22997 3.34466,-0.42056 3.62094,-0.42056c2.38414,0 6.01454,3.70858 6.49142,5.85456c0.76391,3.43758 -9.10404,4.25021 -10.06985,3.67072c-1.79199,-1.07519 -1.47358,-3.17525 0.49426,-3.5058c1.14565,-0.19245 2.64002,-0.18583 3.69848,-0.26681c0.53318,-0.0408 1.95878,0.34024 1.60312,-0.05909c-2.70068,-3.03236 -4.00779,-0.91825 -7.4067,-1.96021c-0.46303,-0.14195 -1.4509,-1.49074 -1.74071,-1.6498c-0.358,-0.19648 -2.77513,0.47551 -3.12578,-0.13811z" fill="#1c4096" stroke="none" stroke-width="0.5"/><g stroke="none" stroke-width="0.5"><path d="M217.44257,68.16279c0,0.64229 -0.34602,1.20376 -0.86182,1.50818l-0.01318,0.02307l-0.0501,0.01252c-0.08398,0.04497 -0.17206,0.08328 -0.26353,0.11424l-0.03253,0.13014l-0.03229,0.06055l-0.00527,0.06842l-0.10501,0.31504v1.7616l-0.06823,0.27292l-0.02158,0.28048l-0.0076,0.02281v0.08888l0.0109,0.01636l-0.0109,0.04906v0.04876l-0.09753,0.3901l-0.05464,0.2459l0.00624,0.02286l-0.01797,0.02995l-0.02085,0.09382l-0.02181,0.04362l-0.01219,0.04876l-0.01707,0.00975l-0.04635,0.09269l-0.14612,0.17047l-0.04871,0.21917l-0.02181,0.04362l-0.01219,0.04876l-0.01707,0.00975l-0.15525,0.3105l-0.05082,0.20327l-0.0907,0.17005l-0.04181,0.18814l-0.1392,0.2784l-0.25289,0.7587l-0.00761,0.01195v0.38526l0.01006,0.02013l0.02733,0.12296l0.06762,0.10627l0.09741,0.29223l0.02157,0.28048l0.00628,0.0251l0.0097,0.0182l0.09741,0.38963v0.21543l0.05225,0.209v0.58446l-0.05225,0.209v0.21543l-0.09741,0.38963l-0.0907,0.17005l-0.04181,0.18814l-0.10891,0.21782l-0.14822,0.59291l-0.03229,0.06054l-0.00526,0.06842l-0.10502,0.31504v0.30047l-0.06823,0.27291l-0.02158,0.28048l-0.0076,0.02282v2.69288l0.03275,0.04913l0.16878,0.08439l0.21359,0.18307l0.24122,0.14474l0.33679,0.33679l0.00541,0.00463l0.04526,0.01508l0.01195,0.0076h0.31133l0.16909,0.04227l0.1741,-0.00829l0.31713,0.06342h4.12095l0.02282,-0.0076l0.28048,-0.02157l0.27292,-0.06823h1.34024l0.02013,-0.01006l0.15342,-0.0341l0.10703,-0.09174l0.00839,-0.00978l0.04357,-0.06846l0.18136,-0.30227v-1.2484l-0.03551,-0.09942l-0.07196,-0.08396l-0.14376,-0.28751l-0.01706,-0.00975l-0.01219,-0.04877l-0.02181,-0.04361l-0.08722,-0.39253l-0.00835,-0.03343l-0.05199,-0.15596l-0.01325,-0.00757l-0.01219,-0.04876l-0.02181,-0.04362l-0.08723,-0.39252l-0.09753,-0.3901v-0.04876l-0.0109,-0.04906l0.0109,-0.01636v-1.9314l0.06823,-0.27291l0.02158,-0.28048l0.07793,-0.23378l0.01948,-0.25326l0.07615,-0.22846l0.02886,-0.11543v-0.0768l0.06822,-0.27291l0.02158,-0.28048l0.07792,-0.23378l0.00802,-0.10417l-0.03734,-0.07467l-0.01706,-0.00975l-0.01219,-0.04876l-0.02181,-0.04362l-0.02084,-0.09381l-0.01797,-0.02995l0.00624,-0.02287l-0.04534,-0.20404l-0.01948,-0.03897l-0.02733,-0.12296l-0.06762,-0.10627l-0.09741,-0.29223l-0.02158,-0.28048l-0.06823,-0.27291v-0.87668l0.05225,-0.20901v-0.21543l0.23998,-0.95991v-0.1742l0.05225,-0.209v-0.21543l0.04515,-0.18063v-2.31719l-0.0974,-0.38964v-0.04876l-0.01091,-0.04906l0.01091,-0.01636v-0.47027l-0.09741,-0.38963v-0.04877l-0.01091,-0.04906l0.01091,-0.01635v-0.15743l-0.04516,-0.18064v-0.21543l-0.05225,-0.209v-0.38964l-0.09741,-0.38964v-0.04876l-0.0109,-0.04906l0.0109,-0.01636v-1.03124l-0.05875,-0.1175l-0.03826,-0.05739l-0.15165,-0.15165l-0.17914,-0.04478l-0.01819,-0.0097l-0.14182,-0.03545h-2.44347l-0.02282,0.0076l-0.28048,0.02157l-0.27291,0.06822h-0.07393l-0.02013,0.01007l-0.20999,0.04666l-0.10709,0.08031l-0.12529,0.05276l-0.57342,0.57342l-0.12293,0.1639l-0.14714,0.29428c0.13248,0.2464 0.20764,0.52819 0.20764,0.82755zM216.17626,63.38305l0.05368,-0.02684l0.2634,-0.19755l0.13168,-0.05544l0.04332,-0.07581l0.33653,-0.08414l0.31972,-0.13461l0.02562,0.01108l0.02936,-0.01868l0.29223,-0.09741l0.28048,-0.02158l0.27292,-0.06823h0.10565l0.02281,-0.0076l0.28049,-0.02157l0.27291,-0.06822h2.80808l0.01636,-0.0109l0.04907,0.0109h0.04876l0.3901,0.09752l0.23461,0.05214h0.18937l0.38963,0.09741l0.17005,0.09069l0.18813,0.04181l0.38963,0.19482l0.21359,0.18307l0.24122,0.14474l0.48704,0.48704l0.08967,0.14947l0.12897,0.11725l0.19482,0.29223l0.03719,0.10414l0.07197,0.08396l0.14375,0.28751l0.01707,0.00975l0.01219,0.04876l0.02181,0.04361l0.07793,0.35068l0.01948,0.03896l0.08723,0.39253l0.09752,0.3901v0.04876l0.01091,0.04907l-0.01091,0.01635v1.05473l0.09741,0.38963v0.04876l0.01091,0.04906l-0.01091,0.01636v0.25483l0.04516,0.18063v0.21543l0.05225,0.20901v0.29223l0.09741,0.38963v0.04876l0.0109,0.04907l-0.0109,0.01635v0.47027l0.0974,0.38963v0.04876l0.01091,0.04907l-0.01091,0.01636v2.61326l-0.05225,0.20901v0.21543l-0.04515,0.18063v0.1742l-0.05225,0.20901v0.21543l-0.23998,0.95991v0.34553l0.01006,0.02013l0.06669,0.30009l0.07536,0.1256l0.11618,0.06639l0.05454,0.21815l0.11569,0.19281l-0.03521,0.1291l0.08373,0.33494v0.68187l-0.06822,0.27291l-0.02158,0.28048l-0.07792,0.23378l-0.01948,0.25326l-0.0076,0.02281v0.00825l-0.05225,0.209v0.21543l-0.09741,0.38963l-0.03229,0.06055l-0.00527,0.06841l-0.07792,0.23379l-0.01949,0.25326l-0.00761,0.02281v1.39107l0.00761,0.01195l0.09741,0.29223l0.01414,0.18376l0.03701,0.07402l0.13439,0.20157l0.03719,0.10414l0.07197,0.08397l0.04634,0.09268l0.01707,0.00975l0.01219,0.04876l0.02181,0.04362l0.08723,0.39253l0.09753,0.39009v0.04876l0.0109,0.04907l-0.0109,0.01636v1.71981l0.0109,0.01636l-0.0109,0.04906v0.04877l-0.09753,0.3901l-0.08723,0.39252l-0.01948,0.03897l-0.07792,0.35067l-0.02181,0.04361l-0.01219,0.04877l-0.01707,0.00975l-0.14375,0.28751l-0.18219,0.21256l-0.01509,0.04527l-0.18535,0.29126l-0.00743,0.13362l-0.17073,0.14633l-0.12072,0.18971l-0.04663,0.00933l-0.17842,0.20815l-0.02624,0.13122l-0.18971,0.12072l-0.14633,0.17073l-0.13361,0.00742l-0.29127,0.18536l-0.29223,0.09741l-0.18376,0.01413l-0.06934,0.03467l-0.00975,0.01707l-0.04876,0.01219l-0.04362,0.02181l-0.39253,0.08723l-0.3901,0.09753h-0.04876l-0.04907,0.0109l-0.01636,-0.0109h-1.35519l-0.02282,0.0076l-0.28048,0.02157l-0.27292,0.06823h-4.57821l-0.1691,-0.04228l-0.1741,0.00829l-0.31713,-0.06342h-0.3944l-0.01636,0.0109l-0.04906,-0.0109h-0.04877l-0.3901,-0.09753l-0.39253,-0.08723l-0.04361,-0.02181l-0.04877,-0.01219l-0.00757,-0.01324l-0.04955,-0.01652l-0.01897,0.00517l-0.0431,-0.02586l-0.04626,-0.01542l-0.33924,-0.21588l-0.3448,-0.20688l-0.03448,-0.03448l-0.04241,-0.02698l-0.00386,-0.01928l-0.06123,-0.06123l-0.00644,-0.00552l-0.24122,-0.14473l-0.18883,-0.18883l-0.13563,-0.06782l-0.08396,-0.07196l-0.10414,-0.03719l-0.273,-0.182l-0.02678,-0.00149l-0.29462,-0.34373l-0.30453,-0.33498l0.00185,-0.02676l-0.03835,-0.0767l-0.13438,-0.20157l-0.03719,-0.10414l-0.07197,-0.08396l-0.14375,-0.28751l-0.01707,-0.00975l-0.01219,-0.04877l-0.02181,-0.04361l-0.08723,-0.39253l-0.09752,-0.39009v-0.04877l-0.01091,-0.04906l0.01091,-0.01636v-3.29513l0.06823,-0.27291l0.02157,-0.28048l0.00761,-0.02282v-0.30047l0.06823,-0.27291l0.02157,-0.28048l0.17357,-0.52069l0.17852,-0.71407l0.09069,-0.17005l0.04181,-0.18814l0.10747,-0.21495v-0.15072l-0.04516,-0.18063v-0.17852l-0.02053,-0.06158l-0.04179,-0.08357l-0.02732,-0.12296l-0.06763,-0.10627l-0.0974,-0.29223l-0.02158,-0.28048l-0.06823,-0.27291v-0.95731l-0.0109,-0.01636l0.0109,-0.04906v-0.04876l0.09753,-0.3901l0.08722,-0.39252l0.02181,-0.04362l0.01219,-0.04876l0.01325,-0.00757l0.24744,-0.74233l0.06762,-0.10627l0.02732,-0.12296l0.10891,-0.21782l0.05082,-0.20327l0.09069,-0.17005l0.04181,-0.18813l0.18224,-0.36448l-0.02624,-0.09621l0.11569,-0.19281l0.05454,-0.21814l0.08523,-0.04871l0.05648,-0.22589l0.02157,-0.28048l0.00761,-0.02282v-1.7616l0.06822,-0.27292l0.02158,-0.28048l0.17356,-0.52069l0.08111,-0.32444l0.05665,-0.10621l0.01627,-0.11928l0.19482,-0.48705l0.04347,-0.0602l0.01611,-0.07249l0.09741,-0.19481l0.18308,-0.21359l0.14473,-0.24123l0.11408,-0.11408l0.00385,-0.01927l0.00211,-0.00134l-0.05906,-0.08858l0.19566,-0.88045l0.38963,-0.77927l0.10352,-0.12077l0.06172,-0.1466l0.29223,-0.38964l0.09776,-0.07943l0.06481,-0.10801l0.77927,-0.77927l0.24123,-0.14473z" fill="#1c4096"/><path d="M217.22702,67.28588l0.1482,-0.29444l0.12371,-0.164l0.57672,-0.57372l0.12595,-0.05279l0.10765,-0.08033l0.21106,-0.04669l0.02024,-0.01006h0.0743l0.27429,-0.0682l0.28189,-0.02152l0.02293,-0.00759l2.45511,0.00208l0.14249,0.03566l0.01829,0.00973l0.17998,0.04506l0.15252,0.15196l0.03851,0.05749l0.05919,0.11767l0.00183,1.03198l-0.01092,0.01635l0.01105,0.04912l0.00009,0.0488l0.09867,0.3902l0.00088,0.39006l0.053,0.20937l0.00054,0.21571l0.04584,0.181l0.00042,0.15765l-0.01092,0.01635l0.0111,0.04917l0.00014,0.04884l0.09901,0.39058l0.00147,0.47122l-0.01091,0.01636l0.01112,0.04921l0.00017,0.04887l0.09923,0.39094l0.0099,2.327l-0.04444,0.1816l0.00105,0.21694l-0.0514,0.21032l0.00084,0.1756l-0.23612,0.96824l0.00082,0.21797l-0.0516,0.21142l0.00142,0.88849l0.06809,0.27662l0.02116,0.28418l0.09676,0.2957l0.06737,0.10735l0.02697,0.12432l0.01937,0.03934l0.04469,0.20615l-0.00633,0.02313l0.01789,0.0302l0.02052,0.09472l0.02167,0.04398l0.01201,0.04921l0.01705,0.00978l0.0371,0.07527l-0.00844,0.1052l-0.07908,0.23628l-0.02292,0.28301l-0.06974,0.27541l-0.00038,0.07737l-0.02953,0.11641l-0.07758,0.2304l-0.02083,0.25493l-0.07943,0.23547l-0.02304,0.282l-0.06986,0.27445l-0.00751,1.937l-0.01101,0.01642l0.01081,0.04912l-0.00016,0.04885l0.09685,0.3905l0.08656,0.3929l0.02179,0.04363l0.01212,0.0488l0.01329,0.00754l0.05183,0.15606l0.0083,0.03345l0.08665,0.39284l0.02181,0.04362l0.01212,0.04879l-0.02977,-0.0786l0.14379,0.28749l0.07185,0.08402l0.08248,0.1877l-0.00256,1.24967l-0.18263,0.30283l-0.04386,0.06858l-0.00843,0.00981l-0.10762,0.09198l-0.1541,0.03437l-0.02023,0.0101l-1.34614,0.00185l-0.27427,0.06855l-0.28184,0.02185l-0.02293,0.00763l-4.14124,-0.00039l-0.31866,-0.06381l-0.17489,0.00808l-0.16991,-0.04251l-0.31271,-0.00043l-0.01201,-0.00763l-0.04548,-0.01515l-0.00544,-0.00464l-0.33877,-0.33751l-0.2425,-0.14524l-0.21481,-0.1836l-0.16963,-0.08478l-0.03298,-0.04924l-0.00659,-2.69664l0.00756,-0.02284l0.0208,-0.28102l0.06764,-0.27334l-0.00103,-0.30124l0.10436,-0.31556l0.00504,-0.0686l0.03221,-0.0606l0.14656,-0.59432l0.1085,-0.21818l0.04117,-0.18873l0.09035,-0.17037l0.09599,-0.39105l-0.0011,-0.21661l0.05139,-0.20998l-0.00317,-0.58857l-0.05357,-0.211l-0.00114,-0.21735l-0.09958,-0.39396l-0.00981,-0.01843l-0.0064,-0.02539l-0.02281,-0.28365l-0.09857,-0.29597l-0.06798,-0.10774l-0.02766,-0.12451l-0.01011,-0.0204l-0.00069,-0.39004l0.00759,-0.0121l0.25298,-0.76874l0.13981,-0.28244l0.04239,-0.19078l0.09141,-0.17261l0.05177,-0.20607l0.1572,-0.315l0.01717,-0.00996l0.01251,-0.04938l0.02212,-0.04423l0.0502,-0.22179l0.14782,-0.17307l0.04718,-0.09386l0.01721,-0.00995l0.01259,-0.04928l0.02222,-0.04413l0.02159,-0.09474l0.01827,-0.03032l-0.00611,-0.023l0.05662,-0.24806l0.10067,-0.39311l0.0003,-0.04902l0.01128,-0.04938l-0.01089,-0.01637l0.00053,-0.08931l0.00779,-0.02296l0.02332,-0.28184l0.07018,-0.27428l0.00701,-1.7655l0.10665,-0.31575l0.00549,-0.06851l0.03266,-0.0607l0.03309,-0.13036c0.09147,-0.03096 0.18159,-0.07 0.26557,-0.11498l0.05047,-0.01265l0.01333,-0.02312c0.51579,-0.30442 0.86977,-0.86776 0.86977,-1.51005c0,-0.29935 -0.07563,-0.58107 -0.20811,-0.82747z" fill="#2c64e7"/><path d="M218.33415,86.77126c1.22761,0.01806 3.68516,0.16954 5.42917,-0.04516c0.96397,-0.11867 0.23236,-2.09707 2.05977,-2.29265c1.92047,-0.20554 9.02898,0.38162 8.87176,3.21155c-0.16173,2.91124 -8.04481,2.42105 -9.04596,2.43144c-5.41372,0.05622 -19.99194,1.65239 -23.73899,-1.54811c-3.5368,-3.02093 5.24493,-4.0889 8.84069,-4.10126c0.17541,-0.05904 0.36325,-0.09103 0.55857,-0.09103c0.27952,0 0.54372,0.06553 0.7781,0.18207c0.57605,0.28642 0.9719,0.88095 0.9719,1.56793c0,0.00152 0,0.00304 0,0.00456c0.02329,0.28757 4.50262,0.6693 5.27499,0.68066z" fill="#1c4096"/></g><g stroke="none"><path d="M215.51391,33.90658c0,-3.72991 4.26065,-6.7536 9.51644,-6.7536c5.25579,0 9.51644,3.02369 9.51644,6.75361c0,3.72991 -4.26066,6.7536 -9.51644,6.7536c-5.25579,0 -9.51644,-3.02369 -9.51644,-6.7536z" fill="#ffffff" stroke-width="0"/><path d="M224.53977,39.31808c-0.91681,0.16702 -1.08383,-0.7498 -1.08383,-0.7498l-0.16766,-0.92035c-0.3269,-1.88475 -0.005,-3.76949 0.90438,-5.44591c0,0 0.45129,-0.81533 1.26663,-0.36404c0.81534,0.4513 0.36404,1.26663 0.36404,1.26663c-0.7141,1.25703 -0.97742,2.78474 -0.70143,4.20928l0.16766,0.92036c0,0 0.16701,0.91681 -0.7498,1.08383z" fill="#000000" stroke-width="0.5"/><path d="M225.42891,29.72396c-0.09224,-0.50634 0.24346,-0.99159 0.7498,-1.08383c0.50634,-0.09224 0.99159,0.24346 1.08383,0.7498c0.09224,0.50634 -0.24346,0.99159 -0.7498,1.08383c-0.50634,0.09224 -0.99158,-0.24346 -1.08382,-0.7498z" fill="#000000" stroke-width="0.5"/></g><path d="M193.8075,44.48338c0.88388,0.88389 0,1.76777 0,1.76777l-0.10204,0.10204c-1.39066,1.32143 -2.30463,1.51747 -4.09979,2.04919c-0.48555,0.14382 -0.97057,0.29018 -1.46077,0.41724c-0.44393,0.11507 -1.45641,-0.22275 -1.35728,0.22501c0.59629,2.69339 -1.52524,5.28256 -4.83888,4.80743c-0.28658,-0.04109 -0.27206,-0.75736 -0.54901,-0.67301c-0.26335,0.08021 0.22405,0.6088 0.05261,0.8242c-0.46225,0.58076 -2.48154,1.80105 -3.26206,2.11382c-0.88554,0.35485 -2.7574,0.85858 -3.7042,0.40505c-0.66622,-0.31913 -1.45668,-1.2373 -1.75252,-2.09758c-0.52696,0.30589 -1.09948,0.51582 -1.74872,0.45803c-3.4897,-0.31062 -3.17702,-5.05623 -1.60946,-7.07162c-0.31229,-0.0716 -0.59125,-0.1951 -0.79416,-0.43703c-1.83307,-2.18559 1.56801,-5.38621 3.23665,-6.11429c2.67069,-1.16531 6.13562,-0.50971 8.9629,-0.50971c0,0 1.25,0 1.25,1.25c0,1.25 -1.25,1.25 -1.25,1.25c-2.40669,0 -5.69693,-0.67865 -7.97589,0.30662c-0.58705,0.2538 -2.37116,2.13105 -2.05082,2.08537l-0.01436,-0.0718l1.50531,-0.30106c0.08709,-0.01921 0.17759,-0.02934 0.27045,-0.02934c0.69036,0 1.25,0.55965 1.25,1.25c0,0.40827 -0.19574,0.77083 -0.49848,0.99895l-0.98419,0.75707c-1.37818,2.44674 -2.78643,5.54817 0.44754,3.1291l0.03942,-0.0103l-0.00702,-0.01103l1.10669,-0.70425c0.1971,-0.12987 0.43315,-0.20546 0.68685,-0.20546c0.69036,0 1.25,0.55965 1.25,1.25c0,0.1382 -0.02242,0.27116 -0.06384,0.39544l-0.3996,1.29869l-0.14186,-0.04364c-0.00304,0.22271 0.00101,0.4453 0.01626,0.66773c0.0652,0.95077 4.01061,-1.27541 4.2797,-1.56645c0.44062,-0.47656 0.46785,-1.3902 1.07302,-1.62478c1.16446,-0.45137 2.77674,0.98316 4.22869,-0.30841c0.53104,-0.47237 -0.67821,-1.42072 -0.43291,-2.08777c0.26874,-0.73077 1.0222,-1.2045 1.67657,-1.62645c1.82942,-1.17964 4.34863,-0.53411 5.89538,-2.21272l0.10204,-0.10204c0,0 0.88388,-0.88389 1.76777,0z" fill="#1c4096" stroke="none" stroke-width="0.5"/><path d="M258.36749,46.10196c1,0.75 0.25,1.75 0.25,1.75l-0.12027,0.05345c-0.28981,0.8071 -0.52499,1.04928 -0.29252,1.90594c0.19158,0.70597 1.1281,0.97713 1.48522,1.61553c0.91014,1.62699 -0.7128,3.4974 0.53945,4.68252c0.9658,0.91402 2.43888,0.59405 3.78892,0.06499l-0.03882,-0.04852l1.01264,-0.81011c0.21512,-0.17513 0.48962,-0.28014 0.78864,-0.28014c0.69036,0 1.25,0.55965 1.25,1.25v1.29624c0.12268,2.11396 4.82423,6.04571 6.87671,4.0196c0.44385,-0.43815 -0.84463,-2.09135 -0.92104,-2.30489l-0.78727,-1.18091c-0.1384,-0.20119 -0.21942,-0.44494 -0.21942,-0.70759c0,-0.69035 0.55964,-1.25 1.25,-1.25c0.2537,0 0.48975,0.07558 0.68685,0.20546l1.10669,0.70426l-0.00513,0.00807l0.02547,0.00515c1.26324,0.93756 5.51035,1.67228 3.58177,-1.00977c-0.93928,-1.30624 -2.19879,-2.44617 -3.4856,-3.51853l-0.00202,0.00538l-1.60533,-0.602c-0.48815,-0.17015 -0.83842,-0.63451 -0.83842,-1.18066c0,-0.69035 0.55964,-1.25 1.25,-1.25h1.32653c0.96522,0.00285 4.96512,-0.82459 2.00334,-2.21068c-1.99584,-0.93404 -4.68918,-1.22434 -6.83271,-1.63863c0,0 -1.22722,-0.23752 -0.9897,-1.46475c0.23753,-1.22723 1.46475,-0.9897 1.46475,-0.9897c2.30678,0.44709 5.66625,0.77403 7.70948,1.99009c1.4964,0.8906 2.64895,3.83805 1.55969,5.44483c-0.46868,0.69134 -1.25008,1.03441 -2.1024,1.20423c0.2185,0.2445 0.40774,0.46285 0.54334,0.60528c2.04879,2.15203 5.34934,5.99952 0.70133,7.7643c-0.73019,0.27724 -1.5565,0.16453 -2.33755,0.16228c-0.22059,-0.00064 -0.44033,-0.02112 -0.65828,-0.05825c0.16933,1.05391 0.00213,2.23522 -0.51453,2.88026c-0.74304,0.92767 -2.74876,1.11571 -3.79174,1.05296c-3.39124,-0.20403 -6.4559,-2.34641 -7.29791,-5.51287c-1.47798,0.84982 -5.3865,-0.04018 -6.25268,-0.86434c-1.56859,-1.4925 -1.09571,-2.85126 -0.78004,-4.61196c0.10591,-0.59073 -1.69643,-2.0846 -1.88916,-2.76345c-0.4513,-1.58958 -0.12368,-1.997 0.31973,-3.40019l0.49198,-0.76288c0,0 0.75,-1 1.75,-0.25z" fill="#1c4096" stroke="none" stroke-width="0.5"/><path d="M210.24888,-7.56835c-0.59852,-0.33306 -0.59852,-1.09811 -0.59852,-1.09811l0.07283,-1.03445c1.13851,-2.66504 3.82934,-2.95154 6.4347,-3.81816c6.32554,-2.71094 13.23361,-3.34158 19.46662,0.16026c3.33246,1.87225 7.40694,7.68543 1.3746,8.74852c-2.04999,-0.11385 -4.12133,-0.91681 -6.10627,-0.96409c-1.41084,-0.0336 -2.31673,1.30928 -3.68851,1.55344c-0.01898,0.00338 -3.65817,0.0601 -3.93187,-0.0017c-0.9272,-0.20935 -1.63784,-1.13681 -2.58619,-1.20144c-0.95618,-0.06516 -2.41414,1.42701 -3.46646,1.56665c-2.61083,0.34645 -5.40466,-0.46054 -6.9209,-2.56127c0,0 -0.47423,-0.71135 -0.05002,-1.34965z" fill="#ffe766" stroke="none" stroke-width="0.5"/><path d="M224.97296,-17.07934c-0.19604,-0.44173 0.11962,-0.68634 0.25208,-0.76578c0.23729,-0.28109 0.17689,-0.88084 -0.10486,-1.11108c-1.15537,-0.62251 -3.06281,-0.17905 -2.94662,1.53662c0.14011,2.06874 2.50267,3.08244 4.2703,2.47883c0,0 0.57215,-0.18834 0.76049,0.38381c0.18834,0.57215 -0.38381,0.76049 -0.38381,0.76049c-2.49445,0.79796 -5.71782,-0.67034 -5.85068,-3.57363c-0.12535,-2.7392 2.82283,-3.65418 4.82133,-2.58665c1.27871,1.06044 1.44883,1.85666 0.19471,3.05303l-0.21804,0.13058c0,0 -0.55057,0.24434 -0.79491,-0.30623z" fill="#ffe766" stroke="#ffe766" stroke-width="1.5"/></g></g></g></svg>